<svg xmlns="http://www.w3.org/2000/svg" enable-background="new 0 0 5000 5000" viewBox="0 0 5000 5000"><path fill="#91efff" d="M2049.447,1434.176c0.625,0.521,1.268,1.027,1.743,1.737c0.111,0.168,0.121,0.365,0.22,0.538
			c0.218,0.381,0.325,0.774,0.483,1.185c0.32,0.831,0.53,1.651,0.583,2.515c0.015,0.23,0.157,0.429,0.154,0.662
			c-0.003,0.219-0.142,0.401-0.162,0.617c-0.08,0.912-0.324,1.76-0.685,2.606c-0.148,0.344-0.226,0.691-0.418,1.013
			c-0.641,1.086-1.463,2.075-2.583,2.819l-369.797,245.707c-78.765,56.22-111.985,159.735-80.541,251.566l123.577,360.882
			c11.761,34.365,46.37,55.142,82.225,49.527l11.432-1.81c2.522-0.399,4.943-1.048,7.249-1.91c0.498-0.184,0.937-0.483,1.425-0.689
			c1.791-0.759,3.566-1.55,5.19-2.562c0.223-0.139,0.408-0.331,0.627-0.475c7.716-5.036,13.335-12.77,15.72-21.672
			c0.058-0.217,0.166-0.418,0.221-0.635c0.477-1.919,0.699-3.917,0.864-5.921c0.037-0.461,0.171-0.907,0.189-1.37
			c0.109-2.46-0.021-4.966-0.42-7.49l-7.246-45.846c-2.405-11.614-4.118-23.07-5.444-34.432l-39.918-252.536
			c-8.73-55.201,14.11-109.67,59.596-142.14l562.442-383.23c0.418-0.365,0.865-0.693,1.354-0.971
			c123.384-70.338,191.381-211.83,169.215-352.093l-58.947-306.329l-666.117,119.385l46.505,294.206
			c14.564,92.15,64.571,172.633,140.81,226.621C2049.187,1433.786,2049.266,1434.023,2049.447,1434.176z"/><path fill="#fff" d="M1937.975 1028.166c-4.073-25.768 13.21-50.061 38.888-54.664l371.695-66.616c52.762-9.456 101.728-33.789 141.03-70.239 12.114-11.234 24.288-22.695 36.722-35.129l1.484-8.081-666.117 119.385 46.505 294.206c14.017 88.686 61.123 166.312 132.587 220.168-32.787-43.963-54.799-95.381-63.622-151.203L1937.975 1028.166zM1667.409 2014.106c-31.444-91.831 1.776-195.346 80.542-251.566 45.431-30.186 90.863-60.372 136.294-90.558 55.563-36.918 191.215-93.459 195.952-169.006 5.475-87.305-56.032-38.75-94.122-13.442-41.721 27.721-83.443 55.442-125.164 83.164-60.642 40.293-121.284 80.585-181.925 120.878-78.765 56.22-111.985 159.735-80.541 251.566l123.577 360.882c9.553 27.914 34.243 46.582 62.37 49.703L1667.409 2014.106z"/><path fill="#fff" d="M2169.101,1258.044c28.632,20.811,63.653,29.229,98.641,23.715
			c34.971-5.531,65.699-24.347,86.519-52.987c20.828-28.64,29.246-63.679,23.724-98.65
			c-10.313-65.211-66.81-111.867-130.851-111.867c-6.861,0-13.798,0.53-20.777,1.633c-34.971,5.531-65.699,24.347-86.527,52.987
			c-20.819,28.64-29.238,63.67-23.715,98.641C2121.645,1206.488,2140.461,1237.216,2169.101,1258.044z M2200.056,1200.831
			l80.086-110.158c2.787-3.864,8.166-4.706,12.039-1.903c3.856,2.795,4.706,8.191,1.903,12.039l-80.086,110.158
			c-1.684,2.324-4.311,3.553-6.979,3.553c-1.76,0-3.527-0.539-5.06-1.65C2198.103,1210.075,2197.253,1204.678,2200.056,1200.831z"/><path fill="#91efff" d="M2426.998,1466.304c-0.101,0.076-0.202,0.152-0.303,0.219l-98.662,67.224l504.365,147.527
			c53.475,16.913,91.999,61.675,100.721,116.884l39.906,252.462c2.252,11.249,4.162,22.708,5.459,34.532l7.242,45.819
			c3.224,20.331,22.36,34.188,42.724,31.065l11.433-1.81c35.88-5.674,62.348-36.158,62.946-72.476l6.238-381.407
			c1.583-97.05-61.936-185.269-154.482-214.541l-422.014-118.107C2504.218,1410.599,2468.695,1442.369,2426.998,1466.304z"/><path fill="#fff" d="M3287.302,3260.698c1.035,22.332,0.116,45.825-3.522,71.026
			c-40.258,278.876,92.049,520.314,236.985,605.898c19.438,11.483,38.541,5.666,49.922-3.62c11.651-9.505,21.4-27.487,13.84-49.417
			c-22.326-64.798-34.626-141.593-34.626-216.258c0-57.541,7.349-114.443,21.257-164.559
			c25.643-92.47,38.641-181.641,38.641-265.027v-585.904c0-39.534-24.784-75.499-61.675-89.499
			c-34.55-13.108-69.378-18.95-112.911-18.95c-92.765,0-169.897,36.604-217.193,103.069c-58.4,82.082-65.926,198.335-21.173,327.325
			c11.096,31.974,23.446,61.322,35.392,89.709c26.266,62.42,51.356,122.24,55.011,194.763
			C3287.275,3259.742,3287.362,3260.215,3287.302,3260.698z"/><path fill="#f2dac9" d="M3588.916,2596.043c-52.761,53.125-82.564,124.832-82.564,199.705v339.543
		c0,83.387-12.998,172.557-38.642,265.027c-13.907,50.116-21.257,107.018-21.257,164.559c0,74.665,12.3,151.46,34.626,216.258
		c7.56,21.931-2.189,39.913-13.84,49.417c-11.382,9.286-30.484,15.103-49.923,3.62c-6.385-3.771-12.731-7.949-19.054-12.314
		c36.85,50.421,79.088,90.127,122.502,115.763c19.438,11.483,38.541,5.666,49.922-3.62c11.651-9.505,21.4-27.487,13.84-49.417
		c-22.326-64.798-34.626-141.593-34.626-216.258c0-57.541,7.349-114.443,21.257-164.559c25.643-92.47,38.641-181.641,38.641-265.027
		v-585.904c0-21.316-7.604-41.294-20.052-57.631C3589.471,2595.485,3589.193,2595.764,3588.916,2596.043z"/><path fill="#fff" d="M1451.875,2562.033c-36.891,14-61.675,49.965-61.675,89.499v585.912
			c0,83.395,13.007,172.557,38.65,265.019c13.899,50.141,21.249,107.043,21.249,164.568c0,74.665-12.3,151.46-34.626,216.25
			c-7.56,21.939,2.189,39.913,13.84,49.426c11.357,9.269,30.45,15.094,49.922,3.612c144.935-85.576,277.243-327.014,236.985-605.898
			c-3.565-24.701-4.503-47.752-3.567-69.688c-0.075-0.578,0.015-1.143,0.058-1.725c3.465-72.996,28.656-133.101,55.048-195.821
			c11.946-28.388,24.296-57.735,35.392-89.709c44.753-128.99,37.236-245.235-21.173-327.317
			c-47.296-66.465-124.427-103.069-217.193-103.069C1521.236,2543.091,1486.417,2548.934,1451.875,2562.033z"/><path fill="#f2dac9" d="M1781.978,2646.16c-22.154-31.132-51.061-55.422-84.846-72.758
		c40.801,79.218,42.009,182.956,2.571,296.626c-11.096,31.974-23.446,61.322-35.392,89.709
		c-26.392,62.72-51.583,122.825-55.048,195.821c-0.043,0.582-0.133,1.147-0.058,1.725c-0.935,21.936,0.002,44.986,3.567,69.688
		c10.438,72.319,4.006,142,3.416,214.286c-0.592,72.464-14.116,145.54-36.833,214.23c-22.469,67.941-54.593,146.163-104.122,199.171
		c-4.931,5.277-50.427,40.84-50.525,39.957c2.232,20.82,21.396,41.496,42.63,44.005c18.365,2.169,32.162-14.827,46.095-25.57
		c170.505-131.473,232.385-377.585,202.786-582.631c-3.565-24.701-4.503-47.752-3.567-69.688c-0.075-0.578,0.015-1.143,0.058-1.725
		c3.465-72.996,28.656-133.101,55.048-195.821c11.946-28.388,24.296-57.735,35.392-89.709
		C1847.905,2844.487,1840.387,2728.242,1781.978,2646.16z"/><path fill="#ffa1b4" d="M1733.285,3327.961c40.944,283.655-93.012,530.069-241.125,620.609
		c1.831,143.313,118.828,259.367,262.567,259.367h1490.344c143.352,0,260.071-115.44,262.517-258.22
		c-148.012-90.674-281.793-336.966-240.864-620.451c3.407-23.617,4.351-45.54,3.506-66.393
		c-30.111-35.991-88.82-93.562-156.389-93.562c-67.441,0-126.121,57.491-156.267,93.487c-0.805,21.372,0.265,42.713,3.51,65.154
		c41.361,286.537-95.635,535.03-245.538,623.367c-22.234,13.108-48.55,11.037-68.679-5.396
		c-20.567-16.779-28.295-43.794-19.7-68.823c21.384-62.273,33.49-101.125,33.49-175.588c0-173.104-67.568-298.744-160.661-298.744
		c-93.085,0-160.653,125.64-160.653,298.744c0,74.463,12.106,113.315,33.49,175.588c8.595,25.029,0.867,52.044-19.7,68.823
		c-11.332,9.252-24.625,13.95-38.052,13.95c-10.414,0-20.912-2.829-30.627-8.553c-149.903-88.337-286.899-336.83-245.547-623.358
		c3.245-22.407,4.314-43.749,3.518-65.163c-30.14-35.996-88.819-93.486-156.325-93.486c-67.528,0-126.241,57.535-156.367,93.527
		C1728.981,3283.315,1729.944,3304.821,1733.285,3327.961z"/><path fill="#eb7f95" d="M2573.465 3432.852c-15.557-13.77-32.739-23.105-51.176-27.279 8.601 19.8 14.658 39.644 19.042 59.574C2552.056 3454.396 2562.771 3443.635 2573.465 3432.852zM2672.74 3951.734c-67.983-68.068-12.083-168.173-12.083-250.22 0-106.602-25.66-195.066-67.11-247.317-.153.154-.306.309-.459.463-27.871 28.104-42.507 66.741-40.041 106.245.772 12.365 1.436 24.787 2.188 37.276 1.004 16.677 2.167 33.473 3.955 50.411 8.691 82.335-33.031 160.335-22.335 240.731 8.078 60.727 65.838 110.727 127.095 110.021 9.81-.113 21.181-2.402 25.621-11.151C2696.088 3975.35 2682.919 3961.925 2672.74 3951.734zM2038.907 3327.961c3.245-22.407 4.314-43.749 3.518-65.163-9.357-11.175-21.606-24.383-35.882-37.318-.258.258-.516.516-.775.774-54.687 54.638-80.904 131.857-69.441 208.307 26.985 179.969 119.44 326.559 222.375 398.8C2068.959 3711.954 2009.834 3529.403 2038.907 3327.961z"/><path fill="#eb7f95" d="M3403.458,3856.402c-7.684,138.029-121.92,248.086-261.836,248.086H1651.279
			c-45.904,0-89.017-11.935-126.586-32.715c44.737,81.097,131.033,136.163,230.034,136.163h1490.344
			c143.352,0,260.071-115.44,262.517-258.22C3471.219,3927.437,3435.728,3895.716,3403.458,3856.402z"/><path fill="#fff" d="M3506.691 3963.06c.302-4.448.82-8.839.897-13.344-12.24-7.498-24.365-16.159-36.319-25.718C3482.696 3938.018 3494.546 3951.039 3506.691 3963.06zM2715.547 3951.319c-7.106 4.189-14.639 6.656-22.244 7.771-2.553 20.991 5.5 41.905 22.531 55.798 20.129 16.433 46.446 18.504 68.679 5.396 149.902-88.337 286.899-336.83 245.538-623.367-.032-.225-.065-.449-.097-.673-6.107-42.758 11.644-85.61 45.131-112.889 29.896-24.354 67.23-45.079 107.722-45.079 30.554 0 59.248 11.827 84.351 28.059 1.827-1.987 1.299-1.413 3.125-3.4-30.095-35.986-88.833-93.624-156.442-93.624-67.441 0-126.121 57.491-156.267 93.487-.805 21.372.265 42.713 3.51 65.154C3002.446 3614.49 2865.449 3862.982 2715.547 3951.319zM1709.899 3402.769c-.295 8.028 13.369 5.276 30.238.395-.383-9.713-1.006-19.496-1.794-29.322C1725.552 3385.797 1715.606 3395.951 1709.899 3402.769zM1564.467 4056.196c-6.918-42.742-4.886-88.135-7.063-131.39-.458-9.102-.952-18.381-4.206-26.894-1.275-3.338-3.189-6.447-5.412-9.276-10.359 7.499-21.245 14.067-32.795 19.26-.302 6.454-5.111 12.009-11.413 13.558-1.242.305-2.437.111-3.646.042.612 6.616 1.617 13.209.894 20.123-.33 3.158-1.275 6.113-2.376 9.167-2.29 6.354-5.253 13.132-4.761 23.03 1.272 25.533 9.921 52.301 20.024 75.577 19.681 45.343 52.293 84.699 93.054 112.636C1581.673 4144.83 1568.939 4083.836 1564.467 4056.196zM1972.996 3199.044c-25.703-17.084-55.307-29.732-86.896-29.732-67.528 0-126.241 57.535-156.367 93.527-.752 20.476.21 41.983 3.552 65.122 2.226 15.418 3.84 30.702 5.057 45.881 38.074-35.587 101.51-87.161 155.037-115.28 25.877-13.594 50.111-30.133 70.828-50.755C1967.14 3204.888 1970.069 3201.968 1972.996 3199.044zM2573.526 3432.791c-21.665-19.335-46.499-30.022-73.53-30.022-67.321 0-121.069 65.964-145.757 167.854l.826.826c29.407 29.398 78.928 22.136 98.494-14.554 14.462-27.119 31.94-48.637 51.752-63.26 17.909-13.218 35.03-27.476 50.733-43.252C2561.876 3444.525 2567.704 3438.661 2573.526 3432.791z"/><path fill="#ffec9e" d="M2934.112,2323.255c7.366-29.903,14.985-60.816,20.946-94.129
		c9.063-50.604,11.073-98.258,6.312-141.86l-5.33-33.723c-11.602-57.54-36.073-106.738-72.995-144.419
		c-57.085-58.273-139.03-82.367-230.614-67.897c-73.417,11.599-128.082,63.488-192.924,94.88
		c-73.987,35.819-155.276,26.378-232.696,7.576c-32.1-7.787-62.938-15.28-101.31-15.28c-15.583,0-32.412,1.238-51.068,4.184
		c-91.628,14.489-162.101,62.685-198.436,135.717c-23.507,47.243-31.609,101.603-24.892,159.93l5.319,33.647
		c8.916,42.958,25.527,87.683,49.762,133.041c15.945,29.844,32.723,56.91,48.954,83.075
		c46.892,75.616,91.174,147.031,92.639,255.918c3.78,281.974,172.296,499.79,328.942,561.566c20.457,8.073,38.12-0.648,47.818-11.5
		c12.83-14.345,15.313-34.55,6.331-51.48c-32.016-60.378-56.051-134.126-67.669-207.654
		c-14.253-90.096-9.943-177.726,12.114-246.767c22.697-71.037,61.658-114.342,109.703-121.936
		c96.89-15.415,199.892,125.168,229.61,313.148c11.626,73.52,11.5,151.089-0.328,218.405c-3.325,18.875,5.278,37.328,21.897,47.018
		c12.586,7.341,32.075,10.17,49.039-3.797c129.942-107.102,223.069-366.278,139.699-635.649
		C2892.742,2491.24,2912.838,2409.647,2934.112,2323.255z"/><path fill="#ffb987" d="M2381.571 2552.697c-48.045 7.594-87.007 50.899-109.703 121.936-22.057 69.041-26.367 156.671-12.115 246.767 11.618 73.529 35.653 147.276 67.669 207.654 8.983 16.93 6.499 37.135-6.331 51.48-9.698 10.852-27.361 19.573-47.818 11.5-28.56-11.263-57.498-27.838-85.777-48.919 56.65 73.386 123.892 126.602 189.226 152.367 20.457 8.073 38.12-.648 47.818-11.5 12.83-14.345 15.313-34.55 6.331-51.48-32.016-60.378-56.051-134.126-67.669-207.654-14.253-90.096-9.943-177.726 12.114-246.767 22.697-71.037 61.658-114.342 109.703-121.936 18.927-3.011 38.075.102 56.877 8.187C2496.926 2588.304 2438.258 2543.678 2381.571 2552.697zM2955.057 2229.126c9.063-50.604 11.073-98.258 6.312-141.86l-5.33-33.723c-11.259-55.838-34.741-103.723-69.855-140.947l-7.897 7.897c-16.576 16.576-24.149 40.179-20.368 63.314l.002.011c4.762 43.601 2.751 91.255-6.312 141.859-5.96 33.313-13.579 64.226-20.946 94.129-21.274 86.392-41.369 167.986-9.176 272.015 74.194 239.721 8.568 471.268-98.352 594.845-.348 34.954-3.234 69.157-8.834 101.032-3.325 18.875 5.278 37.328 21.897 47.018 12.586 7.341 32.075 10.17 49.039-3.797 129.942-107.102 223.069-366.278 139.699-635.649-32.193-104.029-12.098-185.623 9.176-272.015C2941.478 2293.352 2949.097 2262.439 2955.057 2229.126z"/><path fill="#fff" d="M2851.791,1887.046c-52.937-34.912-119.321-48.096-192.012-36.611
			c-73.418,11.599-128.081,63.488-192.924,94.88c-73.987,35.819-155.276,26.378-232.696,7.576
			c-32.1-7.787-62.938-15.28-101.31-15.28c-15.583,0-32.412,1.238-51.068,4.184c-91.628,14.488-162.101,62.685-198.436,135.717
			c-23.507,47.243-31.609,101.603-24.892,159.93l5.319,33.647c8.916,42.958,25.527,87.683,49.762,133.041
			c15.945,29.844,32.723,56.91,48.954,83.075c46.892,75.616,91.174,147.032,92.639,255.918
			c2.929,218.446,104.803,398.007,223.355,496.722c-86.611-103.577-152.051-253.326-154.389-427.757
			c-1.465-108.887-45.747-180.302-92.639-255.918c-16.231-26.165-33.01-53.231-48.954-83.075
			c-24.234-45.357-40.845-90.083-49.762-133.041l-5.32-33.647c-6.717-58.327,1.385-112.687,24.892-159.93
			c36.335-73.032,106.807-121.229,198.436-135.717c18.656-2.947,35.485-4.184,51.067-4.184c38.372,0,69.21,7.493,101.31,15.28
			c77.42,18.802,158.708,28.244,232.696-7.576c64.843-31.392,119.506-83.281,192.924-94.88c15.981-2.525,30.091-2.881,43.821-2.076
			c28.22,1.655,56.046-7.854,76.383-27.488C2849.935,1888.883,2850.886,1887.951,2851.791,1887.046z"/><path fill="#080075" d="M2314.971 3976.988c-13.461 0-26.982-3.57-39.265-10.81-154.735-91.182-296.294-346.713-253.856-640.684 3.216-22.284 4.319-43.44 3.359-64.68-.64-14.27 10.397-26.359 24.667-27.007 14.691-.581 26.359 10.414 27.007 24.667 1.111 24.541-.152 48.879-3.847 74.421-39.206 271.653 88.682 506.078 228.928 588.716 13.823 8.174 25.155 1.052 29.364-2.399 7.366-6.011 13.571-17.283 8.898-30.905-21.931-63.83-35.367-107.001-35.367-186.793 0-193.082 82.065-333.227 195.136-333.227s195.144 140.145 195.144 333.227c0 79.792-13.436 122.963-35.367 186.793-4.672 13.621 1.532 24.894 8.898 30.905 4.209 3.452 15.499 10.574 29.373 2.399 140.238-82.637 268.125-317.063 228.92-588.724-3.704-25.584-4.958-49.931-3.847-74.421.648-14.27 12.527-25.256 27.015-24.658 14.27.648 25.307 12.746 24.658 27.015-.968 21.19.135 42.346 3.359 64.664 42.438 293.979-99.121 549.51-253.847 640.692-28.177 16.602-62.862 13.908-88.345-6.895-26.207-21.4-36.065-55.849-25.096-87.781 20.794-60.53 32.555-98.271 32.555-169.989 0-160.485-61.658-281.502-143.42-281.502-81.762 0-143.412 121.018-143.412 281.502 0 71.719 11.761 109.459 32.555 169.989 10.969 31.932 1.111 66.381-25.096 87.781C2349.673 3971.01 2332.372 3976.988 2314.971 3976.988zM1456.673 3977.097c-17.494 0-34.811-5.96-49.173-17.679-25.955-21.19-35.619-55.487-24.625-87.377 21.114-61.262 32.74-134.067 32.74-205.011 0-54.452-6.912-108.171-19.994-155.349-26.477-95.459-39.904-187.727-39.904-274.237v-585.912c0-53.77 33.725-102.691 83.934-121.734 38.094-14.455 77.864-21.19 125.135-21.19 104.231 0 191.347 41.748 245.286 117.558 65.059 91.435 74.168 218.792 25.652 358.617-11.449 33.018-24.027 62.887-36.175 91.772-34.02 80.836-63.392 150.643-49.207 248.939 42.413 293.743-98.995 549.249-253.569 640.516C1484.202 3973.435 1470.387 3977.097 1456.673 3977.097zM1564.786 2560.333c-41.361 0-74.303 5.497-106.79 17.822-30.24 11.475-50.554 40.957-50.554 73.377v585.912c0 81.838 12.788 169.451 38.019 260.414 14.312 51.615 21.88 110.116 21.88 169.173 0 76.525-12.628 155.324-35.569 221.865-5.876 17.065 4.975 27.622 8.444 30.45 3.334 2.711 15.364 10.911 30.257 2.13 140.112-82.73 267.873-317.13 228.684-588.589-16.248-112.515 17.25-192.114 52.717-276.393 11.837-28.127 24.077-57.221 34.988-88.665 42.868-123.577 36.15-234.257-18.933-311.675C1723.965 2594.361 1651.818 2560.333 1564.786 2560.333zM3543.318 3978.402c-13.706 0-27.521-3.662-40.09-11.087-154.575-91.275-295.983-346.789-253.57-640.515 14.186-98.296-15.187-168.104-49.207-248.939-12.148-28.885-24.717-58.754-36.175-91.772-48.517-139.834-39.408-267.191 25.652-358.626 53.938-75.81 141.054-117.558 245.286-117.558 47.262 0 87.023 6.735 125.143 21.198 50.2 19.043 83.926 67.964 83.926 121.734v585.904c0 86.501-13.419 178.77-39.896 274.246-13.083 47.161-20.003 100.872-20.003 155.341 0 70.936 11.626 143.748 32.74 205.019 10.995 31.881 1.33 66.179-24.625 87.369C3578.138 3972.442 3560.812 3978.402 3543.318 3978.402zM3435.214 2561.629c-87.032 0-159.171 34.028-203.142 95.821-55.083 77.418-61.801 188.106-18.934 311.684 10.911 31.444 23.151 60.538 34.988 88.665 35.468 84.279 68.965 163.877 52.718 276.393-39.18 271.451 88.581 505.851 228.684 588.589 14.901 8.797 26.915.589 30.257-2.13 3.469-2.829 14.32-13.394 8.444-30.45-22.941-66.549-35.569-145.348-35.569-221.873 0-59.073 7.568-117.575 21.888-169.164 25.222-90.972 38.01-178.593 38.01-260.422v-585.904c0-32.42-20.314-61.902-50.554-73.377C3509.5 2567.126 3476.567 2561.629 3435.214 2561.629z"/><path fill="#080075" d="M2051.063 3285.506c-7.459 0-14.85-3.208-19.969-9.404-22.208-26.923-80.811-89.549-144.994-89.549-64.175 0-122.786 62.618-145.003 89.541-9.084 11.011-25.391 12.586-36.402 3.485-11.02-9.084-12.578-25.391-3.485-36.402 33.388-40.468 101.807-108.348 184.89-108.348 83.092 0 151.51 67.888 184.899 108.356 9.084 11.02 7.526 27.319-3.494 36.411C2062.689 3283.57 2056.855 3285.506 2051.063 3285.506zM2948.937 3285.506c-5.792 0-11.626-1.936-16.442-5.918-11.02-9.083-12.577-25.391-3.485-36.402 33.388-40.469 101.807-108.356 184.831-108.356 83.109 0 151.519 67.888 184.899 108.356 9.084 11.02 7.526 27.319-3.494 36.411-11.029 9.092-27.319 7.518-36.411-3.494-22.208-26.923-80.794-89.549-144.994-89.549-61.81 0-117.339 56.11-144.944 89.549C2963.787 3282.298 2956.387 3285.506 2948.937 3285.506zM2392.65 3333.046c-9.555 0-19.228-1.793-28.581-5.481-167.076-65.901-346.789-296.193-350.771-593.186-1.33-99.315-41.243-163.675-87.461-238.206-16.517-26.636-33.59-54.174-50.057-84.995-69.757-130.548-80.642-257.77-30.661-358.23 41.445-83.302 120.976-138.141 223.927-154.415 71.441-11.323 119.452.353 165.898 11.643 54.056 13.116 109.914 26.687 212.326 3.729.833-.724 1.667-1.448 2.5-2.172 53.063-46.126 103.187-89.692 197.266-104.559 102.951-16.298 195.523 11.357 260.641 77.822 78.529 80.146 107.413 204.514 81.324 350.199-6.163 34.407-13.907 65.876-21.409 96.309-20.971 85.146-39.079 158.683-9.715 253.57 87.807 283.725-12.114 558.223-150.71 672.456-25.248 20.794-59.907 23.547-88.337 6.979-29.229-17.04-44.341-49.535-38.499-82.781 11.197-63.662 11.281-137.199.244-207.048-29.028-183.569-121.843-295.191-190.169-284.483-34.011 5.38-63.99 41.235-82.25 98.38-20.449 64.007-24.321 146.004-10.902 230.881 11.045 69.866 33.801 139.783 64.083 196.887 15.819 29.819 11.466 65.396-11.087 90.618C2435.071 3323.945 2414.176 3333.046 2392.65 3333.046zM2125.711 1945.611c-14.783 0-30.745 1.187-48.584 4.007-85.971 13.588-151.914 58.468-185.698 126.372-42.32 85.054-31.679 195.439 29.97 310.808 15.684 29.356 32.311 56.178 48.399 82.115 48.18 77.704 93.691 151.098 95.223 264.775 3.679 274.456 166.596 486.033 318.022 545.755 14.994 5.893 25.02-2.896 28.64-6.954 6.339-7.08 10.7-19.186 3.957-31.915-32.892-62.012-57.567-137.678-69.471-213.034-14.657-92.698-10.145-183.156 12.72-254.706 24.784-77.569 68.62-125.059 123.434-133.722 108.23-17.166 217.605 126.768 249.335 327.485 11.913 75.355 11.778 154.937-.379 224.087-2.5 14.186 5.388 24.347 13.605 29.137 4.706 2.745 16.972 8.023 29.381-2.214 125.623-103.524 215.349-355.039 134.193-617.246-33.607-108.601-12.956-192.45 8.915-281.225 7.299-29.642 14.842-60.286 20.71-93.051 23.059-128.755-.867-237.035-67.349-304.898-53.088-54.165-129.672-76.5-215.618-62.929-79.43 12.552-122.053 49.611-171.412 92.521-2.324 2.012-4.647 4.032-6.996 6.07-.286.261-.581.514-.875.758-61.852 53.585-134.572 112.456-289.786 141.307-13.95 2.669-27.529-6.642-30.147-20.702-2.61-14.042 6.659-27.537 20.701-30.147 86.182-16.021 143.757-41.47 188.973-70.506-60.429 2.871-103.423-7.543-142.831-17.124C2190.653 1952.65 2161.651 1945.611 2125.711 1945.611z"/><path fill="#080075" d="M1792.434,2390.958c-45.983,0-87.722-29.036-103.036-73.764l-123.577-360.882
			c-36.343-106.142,2.054-225.796,93.363-290.965l340.694-226.386c-67.45-58.215-111.665-137.426-125.749-226.546l-47.826-302.549
			c-2.197-13.908,7.122-27.016,20.979-29.499l682.802-122.373c14.034-2.509,27.276,6.676,29.962,20.575l60.606,314.967
			c24.439,154.549-49.67,309.612-184.385,387.333l-562.963,383.579c-34.323,24.507-51.783,66.154-45.115,108.365l52.608,332.814
			c6.188,39.122-20.609,75.987-59.73,82.166l-11.432,1.81C1803.867,2390.52,1798.117,2390.958,1792.434,2390.958z M1881.343,926.813
			l43.87,277.521c13.832,87.52,61.33,163.961,133.738,215.248c6.962,4.925,11.045,12.965,10.919,21.493
			c-0.126,8.52-4.454,16.433-11.551,21.156l-369.797,245.707c-72.131,51.497-102.758,146.947-73.773,231.622l123.577,360.882
			c9.058,26.418,35.72,42.489,63.224,38.078l11.432-1.81c10.953-1.734,18.454-12.055,16.728-23l-52.608-332.814
			c-9.757-61.7,15.768-122.575,66.608-158.868l562.062-382.981c1.01-0.792,2.079-1.516,3.216-2.164
			c117.188-66.802,181.775-201.206,160.72-334.422l-55.631-289.046L1881.343,926.813z"/><path fill="#080075" d="M1792.434,2390.958c-45.983,0-87.722-29.036-103.036-73.764l-123.577-360.882
			c-36.343-106.142,2.054-225.796,93.363-290.965l370.513-246.203c11.904-7.897,27.95-4.664,35.855,7.232
			c7.905,11.896,4.664,27.95-7.232,35.855l-369.797,245.707c-72.131,51.497-102.758,146.947-73.773,231.622l123.577,360.882
			c9.058,26.418,35.72,42.489,63.224,38.078c14.076-2.29,27.352,7.383,29.583,21.501c2.231,14.11-7.392,27.352-21.501,29.583
			C1803.858,2390.52,1798.117,2390.958,1792.434,2390.958z"/><path fill="#080075" d="M1816.991,2388.112c-12.502,0-23.496-9.084-25.508-21.821c-2.231-14.11,7.391-27.352,21.501-29.583
			c5.312-0.842,9.968-3.696,13.133-8.04c3.157-4.344,4.428-9.656,3.595-14.96l-52.608-332.814
			c-9.757-61.7,15.768-122.575,66.608-158.868l563.561-384c11.82-8.031,27.899-4.975,35.939,6.811
			c8.04,11.803,4.992,27.891-6.811,35.939l-563.098,383.671c-34.323,24.507-51.783,66.154-45.115,108.365l52.608,332.814
			c2.997,18.959-1.566,37.943-12.847,53.458c-11.281,15.516-27.933,25.71-46.883,28.708
			C1819.694,2388.011,1818.338,2388.112,1816.991,2388.112z"/><path fill="#080075" d="M3022.6 2196.975c-34.719 0-65.337-25.281-70.927-60.614l-52.608-332.814c-6.676-42.219-36.133-76.45-76.879-89.339l-521.358-152.495c-13.714-4.007-21.577-18.37-17.561-32.075 4.007-13.706 18.361-21.602 32.075-17.561l521.897 152.655c60.101 19.001 103.162 69.033 112.911 130.741l52.608 332.806c1.734 10.953 12.098 18.369 23.008 16.728l11.424-1.81c27.588-4.361 47.944-27.798 48.399-55.731l6.238-381.398c1.465-89.49-57.112-170.839-142.435-197.821l-426.724-119.418c-13.756-3.847-21.788-18.117-17.932-31.873 3.839-13.756 18.092-21.813 31.873-17.932l427.549 119.663c107.792 34.07 181.219 136.045 179.393 248.224l-6.238 381.407c-.875 53.113-39.584 97.673-92.041 105.966l-11.433 1.81C3030.067 2196.689 3026.304 2196.975 3022.6 2196.975zM2246.696 1317.901c-35.005 0-69.008-10.986-97.867-31.974-36.091-26.233-59.806-64.958-66.768-109.021-6.971-44.072 3.645-88.219 29.886-124.31 26.232-36.082 64.95-59.798 109.021-66.76 91.048-14.328 176.69 47.936 191.07 138.899 6.971 44.072-3.645 88.219-29.878 124.31-26.241 36.091-64.958 59.806-109.03 66.768C2264.299 1317.21 2255.459 1317.901 2246.696 1317.901zM2247.117 1035.497c-5.96 0-11.997.463-18.066 1.423-30.425 4.816-57.154 21.181-75.271 46.092-18.117 24.919-25.441 55.395-20.634 85.811 4.815 30.425 21.181 57.154 46.101 75.271s55.403 25.449 85.803 20.634c30.425-4.816 57.154-21.181 75.271-46.101 18.117-24.911 25.441-55.386 20.634-85.811C2351.979 1076.084 2302.831 1035.497 2247.117 1035.497z"/><path fill="#080075" d="M2207.002 1231.761c-5.27 0-10.591-1.608-15.179-4.942-11.559-8.402-14.11-24.574-5.716-36.125l80.087-110.158c8.385-11.55 24.565-14.118 36.124-5.716s14.11 24.574 5.716 36.124l-80.086 110.158C2222.888 1228.065 2215 1231.761 2207.002 1231.761zM3245.071 4242.419H1754.727c-163.886 0-297.22-133.335-297.22-297.22 0-14.286 11.576-26.51 25.862-26.51 14.286 0 25.862 10.919 25.862 25.205v1.305c0 135.363 110.133 245.496 245.496 245.496h1490.344c135.372 0 245.504-110.133 245.504-245.496 0-14.286 11.576-25.862 25.862-25.862 14.286 0 25.862 11.576 25.862 25.862C3542.3 4109.084 3408.965 4242.419 3245.071 4242.419z"/></svg>