<svg xmlns="http://www.w3.org/2000/svg" enable-background="new 0 0 5000 5000" viewBox="0 0 5000 5000"><path fill="#ffa1b4" d="M3185.348,2987.627c61.599,426.682-142.157,796.572-365.142,927.97
		c-30.883,18.201-67.201,15.692-95.57-6.089c-57.094,55.218-128.248,101.06-226.048,137.109
		c180.199,70.839,504.499,82.497,693.285,82.695h0.185c87.049,0,163.557-61.818,181.969-147.065l218.632-1011.702
		c11.559-53.475-0.539-109.35-33.178-153.303c-31.048-41.815-76.012-67.088-126.591-71.163c-4.891-0.396-9.816-0.598-14.766-0.598
		c-103.46,0-192.846,88.232-238.094,142.555C3178.799,2919.309,3180.234,2952.192,3185.348,2987.627z"/><path fill="#eb7f95" d="M3553.146,2809.855c-0.22,0.22-0.441,0.441-0.661,0.661c-42.51,42.512-71.873,96.371-84.572,155.134
		l-197.335,913.15c-18.412,85.247-94.92,147.065-181.969,147.065h-0.185c-126.822-0.133-314.69-5.533-479.053-30.477
		c-32.854,18.781-69.303,35.94-110.783,51.23c180.199,70.839,504.499,82.497,693.285,82.695h0.185
		c87.049,0,163.557-61.818,181.969-147.065l218.632-1011.702c12.214-56.507-1.987-115.693-38.927-160.661
		C3553.493,2809.872,3553.385,2809.867,3553.146,2809.855z"/><path fill="#ffec9e" d="M1912.736,1403.39l3.905-1.568l456.401-183.272c6.137-2.467,10.944-7.173,13.537-13.242
		c2.593-6.078,2.66-12.796,0.202-18.925l-50.773-126.44c-3.873-9.648-13.175-15.516-22.983-15.516c-3.064,0-6.179,0.572-9.193,1.776
		l-24.348,9.777c-0.003,0.001-0.004,0.004-0.007,0.005l-534.727,214.734c-0.002,0.001-0.004,0-0.006,0.001l-24.357,9.781
		c-12.653,5.085-18.816,19.514-13.739,32.176l50.773,126.423c2.467,6.137,7.164,10.944,13.243,13.537
		c6.061,2.584,12.796,2.652,18.925,0.202L1912.736,1403.39L1912.736,1403.39z"/><path fill="#fff" d="M2313.025,1044.427c-3.064,0-6.179,0.572-9.193,1.776l-24.348,9.777
		c-0.003,0.001-0.004,0.004-0.007,0.005l-534.727,214.734c-0.002,0.001-0.004,0-0.006,0.001l-24.359,9.782
		c-12.678,5.091-18.829,19.497-13.737,32.175l50.773,126.423c1.335,3.323,3.419,6.147,5.928,8.549l7.618-7.618
		c21.113-21.113,27.591-52.786,16.464-80.493v0c-5.092-12.679,1.059-27.086,13.738-32.178l24.357-9.781
		c0.002-0.001,0.004,0,0.006-0.001l309.781-124.401c68.165-27.374,130.083-68.262,182.024-120.204
		c5.525-5.525,11.05-11.05,16.574-16.574C2329.368,1048.991,2321.496,1044.427,2313.025,1044.427z"/><path fill="#91efff" d="M2285.707,1380.298l-37.379-93.085l-321.163,128.965l37.37,93.085
			c23.235,57.861,89.229,86.038,147.082,62.803l111.286-44.695C2280.765,1504.136,2308.942,1438.159,2285.707,1380.298z"/><polygon fill="#91efff" points="2265.047 1043.198 2196.814 873.285 1678.091 1081.596 1746.324 1251.509 1781.698 1237.304"/><path fill="#fff" d="M2202.636,871.3l-518.723,208.311l60.819,151.452h0c17.859-17.859,23.34-44.652,13.928-68.09l0,0
			c-3.193-7.951,0.664-16.985,8.615-20.178l243.921-97.955c27.073-10.872,51.666-27.112,72.295-47.742l121.05-121.05L2202.636,871.3
			z"/><path fill="#ffa1b4" d="M2286.282,3899.716c44.485,46.061,96.995,86.231,160.439,122.486
		c8.639,4.937,17.997,9.606,27.783,14.106c103.713-35.966,178.091-82.409,237.006-138.943
		c-21.002-23.851-27.885-56.811-17.281-87.692c32.454-94.482,50.327-206.56,50.327-315.564
		c0-272.772-109.703-494.688-244.545-494.688c-134.841,0-244.545,221.915-244.545,494.688c0,109.021,17.873,221.091,50.318,315.564
		C2316.749,3841.599,2308.984,3875.713,2286.282,3899.716z"/><path fill="#fff" d="M2116.639,3648.781c10.325,17.311,20.314,34.552,30.143,51.636
			c37.572,65.334,73.327,127.143,127.761,186.741c17.738-19.335,23.659-46.491,14.943-71.877
			c-33.06-96.234-51.261-210.289-51.261-321.171c0-282.277,117.44-511.929,261.786-511.929
			c144.346,0,261.786,229.652,261.786,511.929c0,110.865-18.209,224.921-51.27,321.171c-8.434,24.562-3.09,50.738,13.327,69.93
			c65.55-66.863,112.177-147.037,161.599-239.907c4.164-16.283,59.325-238.841,27.93-451.892
			c-29.945-203.176-67.215-456.038-413.372-456.038c-124.17,0-216.299,32.115-281.682,98.113
			C2084.392,3081.916,2058.518,3380.893,2116.639,3648.781z"/><path fill="#f2dac9" d="M2386.844,2856.543c-58.82,26.019-110.923,72.099-146.184,123.108
			c-80.843,116.948-105.882,271.733-105.883,411.01c0,110.882,18.201,224.938,51.261,321.171c6.007,17.494,4.913,35.772-2.06,51.808
			c25.919,42.424,54.002,83.486,90.565,123.517c17.738-19.335,23.659-46.491,14.943-71.877
			c-33.06-96.234-51.261-210.289-51.261-321.171c0-155.496,30.649-363.813,158.497-470.393
			c46.004-38.351,120.504-62.586,169.824-19.5c38.382,33.53,71.671,75.522,100.594,117.266
			c16.07,23.193,74.087,94.665,69.284,123.547c13.081-78.653,10.11-161.427-19.693-235.38
			c-29.803-73.953-88.527-138.103-163.872-164.189C2496.962,2826.107,2439.238,2833.366,2386.844,2856.543z"/><path fill="#ffec9e" d="M2249.529,2216.15c37.775,12.592,75.551,25.183,113.326,37.775
		C2325.08,2241.333,2287.304,2228.742,2249.529,2216.15c-27.437,185.216-81.078,382.152-142.55,606.985l-3.25,11.896
		c-144.759,529.49,8.545,806.346,10.136,808.998c0.958,1.595,1.824,3.159,2.774,4.752
		c-58.121-267.887-32.248-566.865,101.69-813.293c-0.162,0.164-0.348,0.297-0.51,0.461c-3.342,3.393-8.797,3.426-12.19,0.084
		c-3.393-3.342-3.426-8.798-0.084-12.19c68.814-69.782,165.14-103.709,294.467-103.709c361.05,0,401.148,272.091,430.428,470.771
		c23.177,157.227-0.017,319.344-16.071,402.664c37.581-73.848,98.498-220.122,88.783-377.24
		c-3.208-51.833-7.223-99.854-11.113-146.291c-13.242-158.245-23.707-283.237,12.552-398.252
		c5.649-17.915,11.744-35.821,17.814-53.686c43.499-127.913,84.591-248.737-39.13-355.275
		c-107.801-92.833-207.528-58.316-313.098-21.754c-55.125,19.085-112.128,38.818-170.166,38.818
		c-47.178,0-92.453-12.796-134.345-26.62c-3.914-1.29-6.108-5.122-5.701-9.059c-38.787-18.274-72.977-30.494-109.242-36.808
		C2250.302,2210.327,2249.963,2213.219,2249.529,2216.15z"/><path fill="#fff" d="M3265.889,1964.871c-71.55-100.561-188.148-155.938-328.302-155.938
			c-128.873,0-203.883,46.9-290.746,101.209c-48.988,30.635-99.651,62.315-164.753,88.623c-4.42,1.785-9.437-0.345-11.222-4.757
			c-1.785-4.42,0.345-9.437,4.757-11.222c45.789-18.504,84.498-39.862,120.605-61.641c-83.277,3.3-152.234-4.891-219.777-25.913
			c-30.046-9.353-62.601-24.86-94.087-39.862c-6.617-3.152-13.099-6.212-19.555-9.24c11.878,118.392,5.761,237.295-12.086,361.272
			c36.265,6.314,70.456,18.535,109.242,36.808c0.063-0.611,0.02-1.22,0.221-1.827c1.49-4.512,6.314-7.013,10.885-5.48
			c40.527,13.369,84.195,25.744,128.94,25.744c55.142,0,110.747-19.253,164.526-37.867
			c105.528-36.537,214.667-74.328,329.985,24.978c132.543,114.132,87.638,246.187,44.206,373.889
			c-6.028,17.746-12.081,35.527-17.688,53.323c-35.249,111.774-24.911,235.276-11.82,391.627
			c3.889,46.53,7.922,94.651,11.138,146.669c13.994,226.286-114.464,429.88-119.369,437.55
			c-50.311,94.571-97.655,176.261-164.005,244.404c18.231,13.004,46.171,20.191,74.465,3.526
			c218.161-128.553,417.363-491.405,356.841-910.661c-23.101-160.013,23.193-270.02,76.795-397.402
			c17.89-42.514,36.385-86.468,53.021-134.412C3365.499,2264.019,3354.058,2088.794,3265.889,1964.871z"/><path d="M2377.494,1895.531c-0.346-0.107-0.697-0.192-1.043-0.299c-2.535-0.789-5.177-1.85-7.746-2.722
				C2370.771,1895.177,2374.15,1896.373,2377.494,1895.531z"/><path fill="#f2dac9" d="M3265.889,1964.871c-26.216-36.845-58.533-67.556-95.787-91.769
			c80.909,123.143,89.884,293.419,24.557,481.721c-16.635,47.944-35.131,91.898-53.021,134.412
			c-53.602,127.382-99.896,237.389-76.795,397.402c30.636,212.231-5.343,409.938-76.582,570.188
			c-34.6,112.504-84.256,191.279-87.271,195.992c-50.311,94.571-97.655,176.261-164.005,244.404
			c18.231,13.004,46.171,20.191,74.465,3.526c218.161-128.553,417.363-491.405,356.841-910.661
			c-23.101-160.013,23.193-270.02,76.795-397.402c17.89-42.514,36.385-86.468,53.021-134.412
			C3365.499,2264.019,3354.058,2088.794,3265.889,1964.871z"/><path fill="#ffa1b4" d="M1581.984,2745.481c-4.992,0-9.951,0.202-14.876,0.606c-50.613,4.108-95.585,29.406-126.633,71.247
		c-32.605,43.928-44.686,99.778-33.136,153.228l217.689,1007.274c18.866,87.318,97.395,149.414,186.229,147.015
		c292.418-6.945,493.939-34.255,639.926-80.711c-4.438-2.285-8.841-4.583-13.015-6.969
		c-65.208-37.26-119.198-78.639-164.975-126.191c-15.153,10.961-32.321,16.8-49.751,16.8c-14.842,0-29.785-4.024-43.625-12.182
		c-222.993-131.398-426.749-501.288-365.15-927.97c5.114-35.438,6.552-68.325,5.321-99.599
		C1774.731,2833.705,1685.331,2745.481,1581.984,2745.481z"/><path fill="#eb7f95" d="M2314.721,3945.511c-51.227,13.471-102.644,30.328-156.727,39.302
			c-102.104,16.942-205.425,26.174-308.878,31.454c-58.969,3.01-114.8,27.428-156.552,69.179h0
			c32.983,25.844,74.553,40.596,118.693,39.403c147.914-3.514,296.521-11.694,442.742-35.337
			c52.906-8.554,109.13-16.753,159.97-34.285c8.934-3.081,17.906-5.798,26.915-8.315c7.927-2.215,15.922-4.176,23.9-6.19
			C2413.212,4013.085,2360.358,3984.89,2314.721,3945.511z"/><path fill="#eb7f95" d="M2623.506,3985.288c-26.246-19.102-55.478-33.979-86.204-44.401
			c-78.423-26.599-150.31-14.381-222.582,4.625c45.637,39.378,98.492,67.573,150.063,95.212
			c16.512-4.169,33.091-8.246,49.793-13.012C2527.051,4024.151,2618.775,3981.844,2623.506,3985.288z"/><path fill="#fff" d="M3511.568 2772.627c-23.48-14.974-50.125-24.248-78.678-26.548-4.891-.396-9.816-.598-14.766-.598-103.46 0-192.846 88.232-238.094 142.555-1.231 31.272.204 64.155 5.318 99.591 1.268 8.786 2.252 17.509 3.298 26.245 61.411-62.039 163.204-152.548 243.534-186.066 27.861-11.625 52.865-29.125 74.401-50.281L3511.568 2772.627zM2442.381 4046.804c2.909-.897 5.937-1.753 8.803-2.665-4.438-2.285-8.841-4.583-13.015-6.969-9.639-5.508-18.959-11.138-28.117-16.832C2420.469 4029.367 2431.175 4038.223 2442.381 4046.804zM1665.015 4059.001c.16-.16.32-.321.479-.481 29.445-29.662 40.38-73.085 31.551-113.938l-194.35-899.28c-11.575-53.558-2.428-110.469 29.165-155.239 31.111-44.086 77.244-70.781 129.357-75.01 4.925-.404 9.883-.606 14.876-.606 35.317 0 68.934 10.438 99.788 26.169-48.945-47.036-117.587-95.135-193.896-95.135-4.992 0-9.951.202-14.876.606-52.113 4.23-98.246 30.924-129.357 75.01-31.593 44.77-40.74 101.681-29.165 155.239l216.442 1001.499C1631.36 4007.14 1647.102 4036.883 1665.015 4059.001z"/><path fill="#ffec9e" d="M2108.343,2193.61c2.107-0.549,4.19-1.184,6.314-1.671c4.622-1.094,9.26,1.827,10.33,6.474
		c1.069,4.639-1.835,9.26-6.474,10.33c-35.745,8.208-69.033,25.896-101.773,54.082c-123.712,106.538-82.629,227.362-39.13,355.283
		c6.078,17.856,12.165,35.762,17.814,53.677c10.742,34.062,17.789,70.245,21.543,110.621c0.438,4.74-3.048,8.941-7.787,9.387
		c-0.269,0.025-0.539,0.034-0.808,0.034c-4.132,0-7.588-3-8.358-7.058c-17.208,304.917-74.175,666.408,129.679,920.566
		c-9.994-17.365-20.038-34.834-30.61-52.432c-1.625-2.711-158.632-286.015-11.988-822.417l3.258-11.896
		c62.097-227.133,116.119-425.615,143.016-612.083C2190.842,2192.574,2152.652,2179.557,2108.343,2193.61z"/><path fill="#fff" d="M2129.693,3705.334c-203.853-254.158-146.886-615.649-129.679-920.566
			c-0.051-0.265-0.195-0.488-0.221-0.763c-3.637-39.138-10.448-74.151-20.819-107.035c-5.607-17.797-11.651-35.577-17.688-53.307
			c-43.423-127.711-88.328-259.774,44.206-373.906c32.988-28.398,66.722-46.735,102.85-56.148
			c44.31-14.053,82.5-1.036,125.025,12.896c18.284-126.76,24.153-248.024,11.031-368.75c-3.583-1.602-7.29-3.341-10.771-4.822
			c-25.045-10.641-58.695-14.48-88.387-17.864c-6.575-0.749-12.973-1.482-19.077-2.256c-20.525-2.61-41.377-3.881-63.729-3.881
			c-140.162,0-256.76,55.386-328.31,155.947c-88.168,123.914-99.609,299.14-32.21,493.391
			c16.635,47.953,35.131,91.906,53.021,134.42c53.602,127.383,99.887,237.389,76.786,397.394
			c-60.522,419.257,138.689,782.1,356.849,910.661c27.454,16.164,54.618,9.888,72.868-2.39
			c-55.47-60.828-91.628-123.314-129.601-189.345C2131.139,3707.795,2130.393,3706.552,2129.693,3705.334z"/><path fill="#080075" d="M2069.457,1614.774c-19.657,0-39.298-3.982-57.92-11.938c-36.259-15.473-64.31-44.147-79-80.718
			l-40.586-101.091c-5.321-13.259,1.111-28.32,14.362-33.641l337.167-135.389c6.39-2.542,13.495-2.475,19.792,0.219
			c6.314,2.694,11.289,7.779,13.849,14.143l40.586,101.083c30.315,75.515-6.44,161.604-81.947,191.928l-111.286,44.695
			C2106.684,1611.204,2088.062,1614.774,2069.457,1614.774z M1949.584,1425.75l30.955,77.089
			c9.538,23.757,27.756,42.379,51.303,52.431s49.603,10.33,73.352,0.791l111.286-44.695l0,0
			c49.039-19.691,72.914-75.608,53.223-124.646l-30.947-77.081L1949.584,1425.75z"/><path fill="#080075" d="M1780.361,1489.142c-7.888,0-15.768-1.599-23.244-4.79c-14.547-6.213-25.803-17.721-31.696-32.403
			l-50.773-126.423c-12.156-30.307,2.593-64.857,32.883-77.022l583.454-234.299c30.332-12.148,64.865,2.593,77.022,32.883
			l50.773,126.44c5.893,14.674,5.725,30.77-0.488,45.318c-6.213,14.547-17.713,25.803-32.395,31.705l0,0l-583.454,234.291
			C1795.304,1487.703,1787.828,1489.142,1780.361,1489.142z M2313.042,1061.669c-0.926,0-1.869,0.168-2.787,0.539l-583.446,234.299
			c-3.839,1.541-5.699,5.91-4.159,9.749l50.773,126.423c0.951,2.391,2.702,3.544,4.007,4.1c1.297,0.572,3.351,1.027,5.733,0.059
			l583.454-234.291c2.382-0.951,3.544-2.711,4.1-4.007c0.556-1.305,1.019-3.351,0.067-5.725l-50.781-126.448
			C2318.834,1063.445,2316.014,1061.669,2313.042,1061.669z M2376.258,1226.548h0.168H2376.258z"/><path fill="#080075" d="M1741.534 1288.585c-3.46 0-6.912-.69-10.153-2.079-6.314-2.694-11.289-7.779-13.849-14.143l-74.656-185.917c-5.321-13.259 1.111-28.312 14.362-33.641l534.727-214.734c6.365-2.551 13.478-2.492 19.792.219 6.314 2.694 11.289 7.779 13.849 14.143l74.656 185.917c5.321 13.259-1.111 28.312-14.362 33.641l-534.727 214.734C1748.075 1287.962 1744.809 1288.585 1741.534 1288.585zM1700.51 1091.168l55.386 137.914 486.732-195.456-55.386-137.914L1700.51 1091.168zM2274.123 3925.464c-6.895 0-13.765-2.736-18.858-8.158-60.631-64.529-100.156-133.242-138.377-199.698-10.624-18.471-21.324-37.084-32.58-55.824-1.667-2.778-162.379-292.531-13.84-835.845l3.25-11.896c136.247-498.342 234.695-858.39 87.209-1253.174-4.992-13.377 1.802-28.278 15.179-33.279 13.36-4.959 28.278 1.793 33.279 15.179 153.32 410.417 53.038 777.226-85.769 1284.912l-3.258 11.896c-142.864 522.579 6.735 792.994 8.292 795.578 11.424 19.018 22.292 37.909 33.077 56.666 38.44 66.819 74.741 129.933 131.238 190.076 9.782 10.405 9.269 26.771-1.145 36.554C2286.826 3923.14 2280.47 3925.464 2274.123 3925.464z"/><path fill="#080075" d="M3192.058,4163.795c-0.076,0-0.143,0-0.219,0c-212.099-0.228-593.152-15.036-762.224-111.656
			c-69.243-39.559-126.271-83.665-174.35-134.824c-9.782-10.414-9.269-26.78,1.137-36.562c10.414-9.791,26.771-9.269,36.562,1.136
			c44.501,47.372,97.597,88.371,162.312,125.345c158.725,90.703,529.642,104.619,736.614,104.837c0.059,0,0.118,0,0.168,0
			c78.984,0,148.404-56.102,165.115-133.469L3575.805,2966.9c10.507-48.618-0.488-99.416-30.164-139.379
			c-28.042-37.766-68.578-60.589-114.14-64.26c-4.428-0.354-8.89-0.539-13.377-0.539c-97.808,0-184.04,86.821-226.731,138.579
			c-9.101,11.003-25.382,12.578-36.411,3.494c-11.02-9.092-12.577-25.391-3.494-36.411
			c48.491-58.779,147.604-157.386,266.635-157.386c5.885,0,11.727,0.236,17.536,0.707c60.631,4.883,114.443,35.064,151.51,84.978
			c38.566,51.926,52.852,117.954,39.197,181.144L3407.735,3989.53C3385.914,4090.536,3295.228,4163.795,3192.058,4163.795z"/><path fill="#080075" d="M2776.514,3945.104c-22.966,0-45.688-8.031-65.068-23.842
			c-35.005-28.573-48.163-74.572-33.523-117.188c31.848-92.731,49.392-202.813,49.392-309.966
			c0-258.806-104.097-477.446-227.303-477.446s-227.303,218.64-227.303,477.446c0,107.169,17.536,217.251,49.384,309.966
			c14.64,42.624,1.473,88.623-33.523,117.188c-34.424,28.101-79.455,31.604-117.507,9.193
			c-227.817-134.252-436.136-511.171-373.459-945.296c21.729-150.534-22.84-256.449-74.446-379.091
			c-18.1-43.019-36.815-87.495-53.812-136.491c-71.163-205.095-58.131-391.433,36.688-524.692
			c78.201-109.905,204.775-170.435,356.403-170.435c23.825,0,46.092,1.355,68.082,4.159c5.96,0.758,12.207,1.465,18.63,2.197
			c32.025,3.654,68.317,7.796,97.976,20.398c16.012,6.811,32.555,14.691,50.074,23.033c30.391,14.48,61.818,29.448,89.499,38.069
			c70.666,22.006,143.361,29.145,234.931,22.932c2.315-1.448,4.63-2.888,6.937-4.336c87.554-54.746,170.259-106.454,309.023-106.454
			c151.628,0,278.194,60.53,356.395,170.435c94.819,133.259,107.851,319.597,36.697,524.692
			c-16.997,48.988-35.712,93.464-53.812,136.475c-51.606,122.651-96.183,228.574-74.454,379.108
			c62.677,434.124-145.634,811.044-373.451,945.296C2812.318,3940.255,2794.344,3945.104,2776.514,3945.104z M2500.012,2964.939
			c156.46,0,279.028,232.439,279.028,529.17c0,112.717-18.538,228.768-52.204,326.77c-9.126,26.594,2.963,48.592,17.317,60.311
			c17.469,14.253,39.357,16.004,58.543,4.698c213.328-125.707,407.976-481.521,348.532-893.336
			c-23.782-164.753,25.643-282.21,77.965-406.562c17.78-42.253,36.175-85.954,52.625-133.368
			c65.514-188.838,54.873-358.508-29.979-477.75c-68.225-95.888-179.831-148.698-314.251-148.698
			c-123.931,0-196.996,45.688-281.604,98.591c-4.125,2.576-8.267,5.169-12.426,7.762c-0.025,0.017-0.059,0.034-0.093,0.051
			c-45.806,28.556-93.986,57.55-154.92,82.174c-13.243,5.363-28.329-1.052-33.666-14.286c-5.354-13.243,1.044-28.312,14.286-33.666
			c21.931-8.865,42.262-18.437,61.481-28.413c-57.356-2.349-109.384-11.146-159.323-26.696c-31.216-9.715-64.344-25.5-96.368-40.755
			c-16.635-7.922-32.883-15.676-48.071-22.133c-22.739-9.665-55.075-13.352-83.597-16.602c-6.651-0.758-13.125-1.499-19.304-2.29
			c-19.792-2.517-39.929-3.738-61.549-3.738c-134.429,0-246.035,52.81-314.26,148.698c-84.843,119.242-95.484,288.911-29.97,477.75
			c16.45,47.422,34.845,91.124,52.625,133.385c52.322,124.343,101.739,241.8,77.957,406.545
			c-59.444,411.815,135.203,767.629,348.54,893.336c19.186,11.306,41.066,9.555,58.535-4.698
			c14.354-11.719,26.443-33.717,17.317-60.311c-33.658-97.985-52.196-214.036-52.196-326.77
			C2220.984,3197.377,2343.551,2964.939,2500.012,2964.939z"/><path fill="#080075" d="M1806.812 4159.393c-103.373.008-193.494-72.535-215.492-174.274l-217.689-1007.274c-13.647-63.157.623-129.15 39.155-181.06 37.059-49.931 90.871-80.146 151.527-85.07 5.843-.48 11.736-.716 17.671-.716 118.922 0 218.043 98.607 266.543 157.386 9.092 11.011 7.535 27.318-3.485 36.402-11.012 9.109-27.327 7.526-36.402-3.485-42.708-51.758-128.948-138.579-226.655-138.579-4.521 0-9.016.185-13.47.547-45.595 3.704-86.148 26.552-114.19 64.335-29.651 39.947-40.628 90.728-30.13 139.312l217.689 1007.274c17.124 79.228 88.017 135.069 168.962 133.427 781.469-18.572 906.376-182.735 1059.865-471.301 6.71-12.603 22.343-17.41 34.979-10.683 12.611 6.71 17.393 22.368 10.683 34.979-162.556 305.614-293.996 479.459-1104.299 498.712C1810.323 4159.367 1808.555 4159.393 1806.812 4159.393zM2008.346 2809.067c-13.2 0-24.473-10.06-25.719-23.471-3.519-37.901-10.094-71.744-20.095-103.44-5.573-17.671-11.576-35.333-17.57-52.945-43.162-126.928-92.075-270.786 49.274-392.519 37.093-31.932 75.22-52.069 116.564-61.557 13.899-3.148 27.798 5.497 30.989 19.422 3.199 13.916-5.497 27.798-19.422 30.989-32.942 7.568-63.813 24.035-94.381 50.344-114.889 98.944-77.426 209.111-34.053 336.67 6.112 17.974 12.241 36.007 17.932 54.039 11.113 35.249 18.395 72.602 22.267 114.216 1.322 14.219-9.134 26.822-23.362 28.144C2009.963 2809.034 2009.154 2809.067 2008.346 2809.067z"/><path fill="#080075" d="M2893.533,3674.327c-3.527,0-7.088-0.724-10.49-2.231c-11.601-5.152-17.747-17.974-14.505-30.257
			c0.606-2.265,59.688-229.45,27.79-445.91c-28.977-196.617-65.042-441.314-396.316-441.314
			c-119.629,0-207.915,30.568-269.918,93.438c-10.027,10.187-26.392,10.288-36.571,0.252c-10.17-10.027-10.288-26.401-0.253-36.571
			c72.224-73.242,172.557-108.844,306.742-108.844c375.935,0,418.996,292.16,447.485,485.495
			c14.042,95.274,11.668,190.994,3.99,270.76c22.629-69.647,39.879-154.036,34.457-241.75c-3.199-51.648-7.206-99.576-11.087-145.92
			c-13.403-160.139-23.993-286.621,13.293-404.878c5.691-18.041,11.82-36.066,17.932-54.048
			c43.381-127.559,80.844-237.726-34.062-336.661c-100.266-86.35-191.061-54.915-296.201-18.53
			c-56.472,19.557-114.864,39.77-175.807,39.77c-49.619,0-96.486-13.209-139.75-27.487c-13.562-4.47-20.929-19.094-16.45-32.665
			c4.479-13.545,19.085-20.946,32.664-16.45c39.155,12.923,81.223,24.877,123.535,24.877c52.238,0,104.038-17.932,158.885-36.924
			c105.014-36.343,224.037-77.561,346.882,28.211c141.357,121.725,92.437,265.583,49.274,392.511
			c-5.994,17.612-11.996,35.274-17.57,52.953c-34.222,108.533-24.01,230.536-11.079,385.001
			c3.898,46.623,7.939,94.836,11.163,147.04c14.547,235.166-116.758,439.781-122.357,448.377
			C2910.311,3670.109,2902.052,3674.327,2893.533,3674.327z"/></svg>