<svg xmlns="http://www.w3.org/2000/svg" enable-background="new 0 0 5000 5000" viewBox="0 0 5000 5000"><path fill="#fff" d="M3440.303,1497.108c-88.076-123.788-231.546-191.953-403.985-191.953
			c-121.346,0-196.213,31.208-275.483,64.251c-96.412,40.182-276.038,96.246-459.136,48.01
			c-98.829-61.442-189.17-112.261-338.025-112.261c-81.456,0-156.284,15.155-222.771,44.739
			c31.386,54.796,72.594,87.35,159.909,156.265l2.29,1.81c2.071,1.633,3.283,4.134,3.283,6.769s-1.212,5.135-3.283,6.769
			l-2.256,1.776c-165.409,130.556-165.409,130.556-246.473,398.547l-1.137,3.755c-1.103,3.637-4.453,6.129-8.25,6.129
			c-3.797,0-7.147-2.492-8.25-6.129l-1.103-3.645c-57.014-188.512-74.004-244.474-136.538-306.473
			c-36.101,102.804-41.696,221.61-16.802,349.567c0.007,0.046,0.039,0.081,0.045,0.127c0.004,0.033-0.009,0.063-0.005,0.096
			c8.786,45.099,21.3,91.311,37.62,138.357c20.415,58.829,43.095,112.742,65.034,164.871c1.158,2.751,2.287,5.45,3.438,8.188
			c80.258,9.272,169.673,17.623,268.972,24.687c4.748,0.337,8.326,4.462,7.981,9.21c-0.32,4.538-4.1,8.006-8.587,8.006
			c-0.202,0-0.413-0.008-0.623-0.025c-57.524-4.089-153.575-11.839-260.257-24.046c60.731,145.114,109.715,275.418,83.07,460.022
			c-1.318,9.125-2.308,18.175-3.426,27.254c175.667,21.591,390.39,36.866,634.699,42.157
			c52.251-90.406,117.343-148.438,189.747-148.438c72.4,0,137.491,58.032,189.74,148.438
			c244.312-5.292,459.037-20.566,634.706-42.157c-1.119-9.08-2.109-18.13-3.426-27.254c-26.661-184.66,22.36-314.987,83.116-460.153
			c-262.359,29.738-585.639,45.763-904.136,45.763c-4.765,0-8.621-3.856-8.621-8.621c0-4.765,3.856-8.621,8.621-8.621
			c359.634,0,670.355-18.028,911.52-46.109c1.167-2.776,2.312-5.512,3.485-8.301c21.939-52.128,44.619-106.041,65.034-164.871
			c16.352-47.134,28.775-93.309,37.589-138.321c0.006-0.048-0.016-0.093-0.009-0.141c0.01-0.068,0.055-0.12,0.066-0.187
			C3553.415,1782.157,3527.28,1619.344,3440.303,1497.108z M2390.095,2293.47l-1.76,1.389
			c-129.31,102.051-129.31,102.051-192.72,311.692l-0.901,2.972c-1.103,3.637-4.454,6.129-8.25,6.129
			c-3.797,0-7.147-2.492-8.25-6.129l-0.884-2.913c-63.418-209.691-63.418-209.691-192.711-311.734l-1.776-1.406
			c-2.071-1.633-3.283-4.134-3.283-6.769c0-2.635,1.212-5.135,3.283-6.769l1.793-1.414
			c129.285-102.042,129.285-102.042,192.711-311.776l0.867-2.862c2.189-7.274,14.295-7.274,16.5,0l0.867,2.862
			c63.435,209.734,63.435,209.734,192.72,311.776l1.793,1.414c2.071,1.633,3.283,4.134,3.283,6.769
			C2393.378,2289.336,2392.166,2291.836,2390.095,2293.47z M3360.166,1828.963l-1.81,1.431
			c-131.937,104.122-131.937,104.122-196.634,318.031l-0.909,3.014c-1.103,3.637-4.454,6.129-8.25,6.129
			c-3.797,0-7.147-2.492-8.25-6.129l-0.884-2.904c-64.723-214.002-64.723-214.002-196.626-318.115l-1.844-1.456
			c-2.071-1.633-3.283-4.134-3.283-6.769s1.212-5.135,3.283-6.769l1.827-1.44c131.929-104.122,131.929-104.122,196.643-318.115
			l0.884-2.921c2.189-7.274,14.312-7.274,16.501,0l0.901,2.972c64.697,213.951,64.697,213.951,196.643,318.073l1.81,1.431
			c2.071,1.633,3.283,4.134,3.283,6.769S3362.237,1827.329,3360.166,1828.963z"/><path fill="#ffec9e" d="M2186.465,2577.287c56.329-185.496,63.855-195.371,184.377-290.586
		c-120.538-95.232-128.048-105.056-184.377-290.586c-56.321,185.53-63.83,195.355-184.377,290.586
		C2122.626,2381.924,2130.144,2391.774,2186.465,2577.287z"/><path fill="#fff" d="M2117.289 3872.647c37.909 22.343 75.515 10.65 98.052-7.762 29.684-24.229 40.856-63.207 28.464-99.298-40.452-117.794-62.727-257.366-62.727-393.024 0-190.579 45.813-394.084 119.782-531.734-223.588-5.452-441.739-19.957-627.386-42.505C1618.711 3294.366 1856.982 3719.261 2117.289 3872.647zM2818.915 3372.563c0 135.658-22.276 275.231-62.727 393.024-12.392 36.091-1.221 75.069 28.463 99.298 22.537 18.403 60.151 30.105 98.052 7.762 260.306-153.385 498.577-578.282 443.822-1074.324-185.649 22.548-403.802 37.054-627.392 42.506C2773.102 2978.479 2818.915 3181.984 2818.915 3372.563z"/><path fill="#ffec9e" d="M3152.563 2119.187c58.089-191.592 63.965-198.773 188.35-296.993-124.394-98.212-130.27-105.401-188.35-296.993-58.089 191.608-63.957 198.773-188.35 296.993C3088.598 1920.423 3094.474 1927.604 3152.563 2119.187zM1644.986 1893.323c74.682-246.548 80.39-253.485 238.862-378.586-158.464-125.101-164.197-132.063-238.862-378.586-74.656 246.523-80.39 253.485-238.862 378.586C1564.588 1639.838 1570.313 1646.766 1644.986 1893.323z"/><path fill="#f2dac9" d="M2828.882 2905.784c-6.646-90.398-34.101-181.813-93.171-250.564-74.402-86.594-197.466-128.278-309.177-104.724-14.865 3.135-29.082 7.312-42.688 12.422-110.805 41.615-181.002 145.09-229.171 250.83-61.632 135.295-83.276 290.6-83.927 438.099-.622 142.664 21.168 289.551 61.359 413.595 12.143 37.508.872 77.892-28.724 102.886-22.468 18.96-59.852 30.938-97.393 7.588-27.604-17.166-54.912-37.687-81.671-60.981 56.698 69.942 118.589 126.298 181.924 165.682 37.541 23.35 74.926 11.371 97.393-7.587 29.597-24.994 40.867-65.379 28.724-102.886-40.192-124.045-61.981-270.932-61.358-413.596 1.509-342.422 131.261-624.037 294.969-654.166 9.853-1.813 19.804-2.71 29.875-2.666 50.784.242 86.701 19.719 112.424 50.215 5.384-.566 11.138 1.289 14.768 6.922 19.923 30.914 38.024 63.392 53.719 96.881.1.177.17.374.269.551 3.901-11.272 20.948-16.431 26.114-2.632 12.765 34.102 25.176 68.471 34.012 103.836 4.313 17.263 12.187 35.756 18.401 54.094 7.638 22.54 22.58 63.996 11.558 90.413.795 3.172 1.661 6.317 2.314 9.539.536 2.643.269 4.933-.359 7.016 13.028 20.509 26.674 40.626 41.359 59.986C2822.961 3086.766 2835.528 2996.181 2828.882 2905.784zM3457.368 1495.973c-28.582-40.562-63.173-75.123-102.682-103.477.788 1.097 1.65 2.119 2.429 3.225 108.176 153.511 121.331 369.9 37.04 609.303-20.795 59.044-43.848 113.157-66.157 165.488-66.752 156.647-124.407 291.926-96.863 489.114 16.516 118.195 17.004 238.589.931 356.86-18.092 133.127-56.986 263.681-116.457 384.229-62.506 126.699-137.645 252.503-228.009 361.825-14.752 17.848-30.263 35.619-49.941 47.824-19.678 12.205-44.39 18.253-66.353 10.917 11.955 54.9 81.152 75.897 127.416 52.531 39.755-20.079 76.588-54.105 108.76-84.364 76.848-72.28 139.592-159.137 189.492-251.84 127.057-236.039 171.399-512.967 134.414-777.729-27.544-197.189 30.11-332.467 96.863-489.114 22.309-52.33 45.362-106.444 66.157-165.488C3578.699 1865.873 3565.543 1649.484 3457.368 1495.973z"/><path fill="#080075" d="M1034.483 2144.333c-14.286 0-25.862-11.576-25.862-25.862 0-27.672 0-111.884 461.527-177.692 14.16-2.029 27.234 7.813 29.255 21.947 2.021 14.143-7.813 27.243-21.947 29.255-342.176 48.794-417.11 107.851-417.11 126.49C1060.345 2132.758 1048.769 2144.333 1034.483 2144.333zM3965.517 2144.333c-14.287 0-25.862-11.576-25.862-25.862 0-18.639-74.943-77.696-417.152-126.499-14.135-2.012-23.968-15.111-21.947-29.255 2.012-14.135 15.229-23.884 29.255-21.947 461.569 65.817 461.569 150.029 461.569 177.701C3991.379 2132.758 3979.804 2144.333 3965.517 2144.333zM1150.197 2647.474c-14.286 0-25.862-11.576-25.862-25.862 0-82.2 174.796-146.392 519.531-190.792 14.143-1.827 27.125 8.175 28.952 22.352 1.827 14.16-8.183 27.125-22.351 28.952-389.177 50.125-474.407 117.684-474.407 139.489C1176.059 2635.898 1164.483 2647.474 1150.197 2647.474zM3849.795 2647.474c-14.287 0-25.862-11.576-25.862-25.862 0-21.804-85.23-89.364-474.407-139.489-14.168-1.827-24.178-14.792-22.352-28.952 1.827-14.177 14.876-24.187 28.952-22.352 344.735 44.4 519.531 108.592 519.531 190.792C3875.657 2635.898 3864.081 2647.474 3849.795 2647.474zM2750.8 1613.715c-1.128 0-2.273-.067-3.427-.227-208.715-27.596-329.169-102.918-435.446-169.366-104.467-65.32-194.681-121.725-348.254-121.725-82.41 0-157.799 15.76-224.087 46.841-12.889 6.104-28.329.505-34.39-12.434-6.07-12.931-.497-28.329 12.434-34.39 73.2-34.331 155.989-51.741 246.043-51.741 168.406 0 269.085 62.946 375.674 129.588 106.79 66.777 217.218 135.826 414.812 161.958 14.16 1.869 24.12 14.867 22.242 29.027C2774.683 1604.252 2763.571 1613.715 2750.8 1613.715z"/><path fill="#080075" d="M2838.918,3919.48c-26.839,0-53.416-9.395-76.071-27.883
			c-40.99-33.456-56.405-87.318-39.265-137.216c39.239-114.275,60.85-249.874,60.85-381.819
			c0-340.576-138.226-662.581-284.432-662.581s-284.441,322.005-284.441,662.581c0,131.946,21.611,267.544,60.85,381.819
			c17.14,49.897,1.726,103.76-39.264,137.216c-40.233,32.849-92.883,36.975-137.367,10.759
			c-277.596-163.583-531.376-623.182-454.927-1152.756c26.864-186.103-28.059-316.617-91.645-467.74
			c-22.149-52.642-45.057-107.068-65.825-166.942c-66.869-192.753-72.754-373.198-17.039-521.838
			c5.026-13.386,19.986-20.129,33.296-15.145c13.377,5.018,20.154,19.927,15.145,33.296
			c-51.438,137.215-45.402,305.521,17.46,486.732c20.23,58.299,42.809,111.951,64.638,163.835
			c63.805,151.645,124.082,294.871,95.156,495.193c-73.225,507.265,166.9,945.759,430.007,1100.796
			c25.702,15.145,55.033,12.822,78.394-6.263c19.127-15.608,35.224-44.905,23.059-80.339
			c-41.058-119.545-63.662-261.113-63.662-398.623c0-337.857,138.057-714.305,336.165-714.305
			c198.099,0,336.156,376.448,336.156,714.305c0,137.51-22.604,279.078-63.662,398.623c-12.165,35.434,3.931,64.731,23.059,80.339
			c23.379,19.094,52.692,21.442,78.395,6.263c263.108-155.029,503.233-593.523,430.007-1100.796
			c-28.927-200.322,31.351-343.548,95.156-495.193c21.838-51.884,44.408-105.536,64.638-163.835
			c80.937-233.289,67.619-443.132-37.497-590.863c-84.75-119.107-223.229-184.705-389.935-184.705
			c-117.895,0-191.221,30.56-268.849,62.921c-103.937,43.322-211.367,88.118-428.509,72.173
			c-14.244-1.044-24.944-13.445-23.9-27.689c1.044-14.236,13.167-24.978,27.689-23.901c204.8,15.027,306.489-27.344,404.819-68.326
			c78.908-32.892,160.51-66.903,288.751-66.903c183.905,0,337.352,73.318,432.078,206.442
			c115.091,161.756,130.792,388.259,44.215,637.805c-20.769,59.873-43.676,114.3-65.825,166.942
			c-63.586,151.123-118.509,281.637-91.637,467.74c76.441,529.575-177.339,989.182-454.935,1152.756
			C2880.767,3913.814,2859.762,3919.48,2838.918,3919.48z"/><path fill="#080075" d="M1644.986 1948.954L1644.986 1948.954c-11.399 0-21.451-7.467-24.751-18.378l-1.111-3.654c-79.506-262.889-79.506-262.889-240.647-390.078l-2.29-1.81c-6.213-4.9-9.841-12.384-9.841-20.297 0-7.913 3.629-15.398 9.841-20.297l2.29-1.81c161.15-127.189 161.15-127.189 240.638-390.044l1.12-3.687c3.292-10.911 13.352-18.378 24.751-18.378s21.451 7.467 24.751 18.378l1.12 3.687c79.497 262.855 79.497 262.855 240.639 390.044l2.29 1.81c6.213 4.9 9.841 12.384 9.841 20.297 0 7.914-3.628 15.398-9.841 20.297l-2.256 1.785c-161.158 127.197-161.158 127.197-240.655 390.002l-1.136 3.755C1666.437 1941.486 1656.385 1948.954 1644.986 1948.954zM1433.905 1514.737c133.023 105.545 152.251 129.731 211.081 319.631 58.829-189.899 78.049-214.086 211.081-319.631-133.023-105.545-152.26-129.756-211.081-319.622C1586.173 1384.989 1566.937 1409.192 1433.905 1514.737zM3152.563 2174.809c-11.399 0-21.451-7.467-24.751-18.378l-.884-2.904c-63.157-208.816-63.157-208.816-190.809-309.579l-1.844-1.456c-6.213-4.9-9.841-12.384-9.841-20.297 0-7.914 3.628-15.398 9.841-20.297l1.827-1.448c127.677-100.763 127.677-100.763 190.817-309.57l.892-2.921c3.292-10.911 13.352-18.378 24.751-18.378 11.399 0 21.459 7.467 24.751 18.378l.901 2.972c63.131 208.766 63.131 208.766 190.825 309.537l1.81 1.431c6.213 4.9 9.841 12.384 9.841 20.297 0 7.913-3.628 15.398-9.841 20.297l-1.81 1.44c-127.686 100.763-127.686 100.763-190.809 309.486l-.917 3.014C3174.013 2167.342 3163.961 2174.809 3152.563 2174.809zM2991.952 1822.194c100.224 79.885 118.181 103.17 160.611 238.281 42.421-135.102 60.37-158.388 160.611-238.281-100.241-79.885-118.189-103.171-160.611-238.273C3110.141 1719.032 3092.193 1742.31 2991.952 1822.194zM2186.465 2632.893L2186.465 2632.893c-11.399 0-21.451-7.468-24.751-18.378l-.884-2.921c-61.852-204.497-61.852-204.497-186.894-303.189l-1.776-1.406c-6.213-4.9-9.841-12.384-9.841-20.297 0-7.914 3.628-15.398 9.841-20.297l1.793-1.423c125.034-98.683 125.034-98.683 186.894-303.231l.867-2.862c3.292-10.911 13.352-18.378 24.751-18.378 11.399 0 21.451 7.467 24.751 18.378l.867 2.862c61.868 204.548 61.868 204.548 186.902 303.231l1.793 1.423c6.213 4.9 9.842 12.384 9.842 20.297 0 7.913-3.629 15.398-9.842 20.297l-1.768 1.397c-125.051 98.692-125.051 98.692-186.894 303.147l-.901 2.972C2207.915 2625.425 2197.863 2632.893 2186.465 2632.893zM2029.836 2286.701c97.564 77.788 115.411 100.88 156.629 231.908 41.226-131.019 59.073-154.12 156.637-231.908-97.547-77.78-115.42-100.897-156.637-231.9C2145.255 2185.804 2127.383 2208.921 2029.836 2286.701zM1856.807 2335.815c-.615 0-1.238-.017-1.861-.067-316.078-22.478-846.326-80.6-846.326-217.277 0-14.287 11.576-25.862 25.862-25.862 14.286 0 25.862 11.575 25.862 25.862 0 35.535 195.127 122.786 798.272 165.687 14.244 1.01 24.978 13.385 23.959 27.63C1881.609 2325.41 1870.252 2335.815 1856.807 2335.815zM2500 2357.375c-14.286 0-25.862-11.575-25.862-25.862 0-14.286 11.576-25.862 25.862-25.862 390.255 0 756.954-22.065 1032.555-62.129 402.445-58.501 407.1-124.394 407.1-125.051 0-14.287 11.575-25.862 25.862-25.862 14.286 0 25.862 11.575 25.862 25.862 0 27.361 0 110.621-451.382 176.236C3262.005 2335.117 2892.662 2357.375 2500 2357.375z"/><path fill="#080075" d="M2500,2860.516c-552.979,0-1375.665-63.62-1375.665-238.904c0-14.287,11.576-25.862,25.862-25.862
			c14.286,0,25.862,11.575,25.862,25.862c0,22.882,78.066,78.462,373.518,125.101c253.654,40.031,591.182,62.079,950.423,62.079
			c359.232,0,696.769-22.048,950.414-62.079c295.452-46.639,373.518-102.219,373.518-125.101c0-14.287,11.575-25.862,25.862-25.862
			c14.286,0,25.862,11.575,25.862,25.862C3875.657,2796.896,3052.97,2860.516,2500,2860.516z"/></svg>