<svg xmlns="http://www.w3.org/2000/svg" enable-background="new 0 0 5000 5000" viewBox="0 0 5000 5000"><path fill="#fff" d="M2773.745,1172.86c-61.086,0-98.927,15.768-138.983,32.471
			c-46.808,19.514-94.76,39.753-182.567,38.078c55.967,32.555,125.505,62.904,243.576,66.095c4.757,0.135,8.511,4.092,8.385,8.856
			s-4.335,8.36-8.856,8.385c-143.647-3.881-217.529-46.597-280.896-86.081c-0.126-0.076-0.244-0.151-0.362-0.227
			c-2.551-1.591-5.085-3.174-7.611-4.748c-53.913-33.717-100.476-62.828-180.176-62.828c-86.611,0-158.615,34.163-202.755,96.2
			c-54.536,76.643-61.54,185.227-19.733,305.74c10.38,29.911,21.931,57.365,33.102,83.917
			c16.778,39.879,32.622,77.536,42.354,118.307c5.683,23.816,22.848,43.701,45.924,53.189
			c259.294,106.631,512.35,106.159,752.113-1.372c21.846-9.799,38.12-29.171,43.524-51.834
			c9.732-40.78,25.584-78.453,42.363-118.332c11.171-26.544,22.722-53.989,33.094-83.875
			c41.807-120.513,34.794-229.097-19.742-305.74C2932.36,1207.023,2860.356,1172.86,2773.745,1172.86z"/><path fill="#fff" d="M2773.745,1172.86c-61.086,0-98.927,15.768-138.983,32.471
			c-46.808,19.514-94.76,39.753-182.567,38.078c55.967,32.555,125.505,62.904,243.576,66.095c4.757,0.135,8.511,4.092,8.385,8.856
			s-4.335,8.36-8.856,8.385c-143.647-3.881-217.529-46.597-280.896-86.081c-0.126-0.076-0.244-0.151-0.362-0.227
			c-2.551-1.591-5.085-3.174-7.611-4.748c-53.913-33.717-100.476-62.828-180.176-62.828c-86.611,0-158.615,34.163-202.755,96.2
			c-54.536,76.643-61.54,185.227-19.733,305.74c10.38,29.911,21.931,57.365,33.102,83.917
			c16.778,39.879,32.622,77.536,42.354,118.307c5.683,23.816,22.848,43.701,45.924,53.189
			c259.294,106.631,512.35,106.159,752.113-1.372c21.846-9.799,38.12-29.171,43.524-51.834
			c9.732-40.78,25.584-78.453,42.363-118.332c11.171-26.544,22.722-53.989,33.094-83.875
			c41.807-120.513,34.794-229.097-19.742-305.74C2932.36,1207.023,2860.356,1172.86,2773.745,1172.86z"/><path fill="#f2dac9" d="M2976.499,1269.06c-21.743-30.56-50.305-54.276-83.988-70.556
			c36.001,73.425,36.427,168.654,0.281,272.847c-10.372,29.886-21.922,57.331-33.094,83.875
			c-16.779,39.879-32.631,77.552-42.363,118.332c-5.405,22.663-21.678,42.034-43.524,51.834
			c-179.922,80.693-367.339,100.957-559.252,61.027c-39.526-8.224-80.565,3.357-109.112,31.906l0,0
			c5.9,4.818,12.464,8.911,19.698,11.887c259.294,106.631,512.35,106.159,752.113-1.372c21.846-9.799,38.12-29.171,43.524-51.834
			c9.732-40.78,25.584-78.453,42.363-118.332c11.171-26.544,22.722-53.989,33.094-83.875
			C3038.048,1454.287,3031.035,1345.703,2976.499,1269.06z"/><path fill="#91efff" d="M2286.525,2857.548l17.294,119.545l82.744-29.659c4.487-1.608,9.412,0.716,11.028,5.203
			c1.608,4.487-0.724,9.42-5.203,11.028l-86.049,30.842l17.294,119.549l372.024-133.345l19.186-132.621l-221.894,79.535
			c-0.968,0.345-1.945,0.505-2.913,0.505c-3.536,0-6.853-2.189-8.116-5.708c-1.608-4.487,0.724-9.42,5.203-11.028l230.514-82.621
			l13.467-93.085H2626.5L2286.525,2857.548z"/><path fill="#ffec9e" d="M2215.648,2718.447h568.705c14.261,0,25.862-11.601,25.862-25.862v-120.319
		c0-14.261-11.601-25.862-25.862-25.862h-568.705c-14.261,0-25.862,11.601-25.862,25.862v120.319
		C2189.786,2706.846,2201.386,2718.447,2215.648,2718.447z"/><path fill="#fff" d="M2749.006 2546.404h-533.358c-14.283 0-25.862 11.579-25.862 25.862v120.319c0 14.283 11.579 25.862 25.862 25.862h43.104v-77.216c0-14.283 11.579-25.862 25.862-25.862h298.872c61.824 0 121.114-24.561 164.831-68.276L2749.006 2546.404zM2801.938 2553.414l-61.956 61.955h70.232v-43.104C2810.214 2564.811 2807 2558.139 2801.938 2553.414z"/><path fill="#ffec9e" d="M2675.045,2167.321c-2.551-11.828-13.184-20.407-25.281-20.407h-299.527
		c-12.098,0-22.73,8.579-25.281,20.407l-78.074,361.842h506.247L2675.045,2167.321z"/><path fill="#fff" d="M2640.671,2146.914h-290.435c-12.182,0-22.712,8.5-25.281,20.408l-78.074,361.84h83.846
		l63.193-292.875c2.569-11.908,13.1-20.408,25.281-20.408h54.972C2536.623,2215.879,2596.513,2191.072,2640.671,2146.914
		L2640.671,2146.914z"/><path fill="#91efff" d="M2326.154,3131.472l17.295,119.547l224.241-80.373c4.495-1.616,9.412,0.716,11.028,5.203
			c1.608,4.487-0.724,9.42-5.203,11.028l-227.548,81.56l17.295,119.545l288.431-103.383l41.167-284.567L2326.154,3131.472z"/><path fill="#fff" d="M4039.715,2078.117c-44.139-62.037-116.144-96.2-202.754-96.2
			c-61.086,0-98.927,15.768-138.983,32.471c-44.597,18.584-143.066,30.795-228.151,30.471c-0.06-0.038-0.12-0.076-0.18-0.114
			c-53.913-33.717-100.476-62.828-180.176-62.828c-86.603,0-158.607,34.163-202.754,96.2
			c-54.536,76.652-61.54,185.227-19.733,305.74c10.372,29.895,21.922,57.348,33.094,83.892
			c15.419,36.642,30.369,72.341,40.267,110.591c0.166,0.366,0.192,0.772,0.305,1.16c10.637,41.599,15.242,86.255,7.683,138.577
			c-37.648,260.885,86.114,486.564,221.688,566.457c17.469,10.296,34.828,4.9,45.242-3.595c13.764-11.239,18.95-29.314,13.2-46.05
			c-20.794-60.53-32.243-132.257-32.243-201.963c0-181.396,73.352-323.486,167-323.486s167.001,142.09,167.001,323.486
			c0,69.706-11.449,141.433-32.252,201.972c-5.741,16.736-0.556,34.811,13.209,46.042c10.405,8.494,27.748,13.908,45.233,3.595
			c135.574-79.893,259.344-305.563,221.688-566.457c-14.581-100.99,15.945-173.525,48.256-250.32
			c11.172-26.552,22.73-53.997,33.102-83.9C4101.264,2263.344,4094.251,2154.76,4039.715,2078.117z"/><path fill="#f2dac9" d="M4039.715 2078.117c-21.743-30.56-50.305-54.275-83.988-70.557 36.001 73.427 36.427 168.655.281 272.848-10.372 29.903-21.93 57.348-33.102 83.9-32.311 76.795-62.837 149.33-48.256 250.32 8.021 55.572 7.556 112.625 10.901 168.088 3.161 52.413-2.532 106.288-13.09 157.599-21.024 102.18-65.994 199.565-131.455 280.897-9.87 12.262-20.717 25.537-20.969 41.276-1.053 65.899 92.354-19.306 105.976-33.013 37.982-38.219 68.682-83.51 92.772-131.59 58.401-116.564 77.895-251.06 59.313-379.808-14.581-100.99 15.945-173.525 48.256-250.32 11.172-26.552 22.73-53.997 33.102-83.9C4101.264 2263.344 4094.251 2154.76 4039.715 2078.117zM3444.793 2582.516c-65.468 40.983-112.102 120.599-131.621 189.649-29.557 104.563-35.916 225.284 4.805 326.863 13.587 33.893 34.79 65.661 50.093 99.05 7.448 16.249 14.95 35.081 7.526 51.34-6.837 14.972-23.803 29.907-4.224 41.314 10.052 5.856 36.11-3.436 43.905-9.807 13.753-11.24 18.932-29.307 13.185-46.037-20.794-60.53-32.243-132.257-32.243-201.963 0-181.396 73.352-323.486 167-323.486 27.689 0 51.563 46.795 67.759 66.622 24.083 29.482 48.166 58.963 72.249 88.445 23.7-17.425 35.56-47.659 36.433-77.063.874-29.404-7.966-58.252-19.008-85.518-17.159-42.371-40.827-83.59-77.042-111.487-39.361-30.321-92.273-42.308-140.859-31.913C3482.129 2562.938 3462.752 2571.273 3444.793 2582.516z"/><polygon fill="#91efff" points="2268.896 2735.688 2284.005 2840.13 2575.39 2735.688"/><path fill="#fff" d="M1913.284,2078.117c-44.139-62.037-116.144-96.2-202.755-96.2
			c-61.094,0-98.927,15.768-138.992,32.471c-43.021,17.936-133.686,36.322-216.056,37.989c-1.446-0.896-2.918-1.797-4.352-2.69
			c-0.084-0.051-0.168-0.101-0.244-0.151c-2.576-1.608-5.127-3.208-7.669-4.79c-53.913-33.717-100.477-62.828-180.176-62.828
			c-86.611,0-158.616,34.163-202.755,96.2c-54.536,76.643-61.549,185.227-19.742,305.74c10.372,29.903,21.931,57.348,33.102,83.9
			c32.311,76.795,62.837,149.33,48.256,250.32c-37.657,260.894,86.114,486.564,221.688,566.457
			c17.502,10.304,34.828,4.891,45.233-3.595c13.765-11.23,18.95-29.305,13.2-46.05c-20.794-60.53-32.243-132.257-32.243-201.963
			c0-181.396,73.352-323.486,167.001-323.486c93.649,0,167.001,142.09,167.001,323.486c0,69.698-11.449,141.425-32.243,201.972
			c-5.741,16.728-0.564,34.803,13.2,46.042c10.414,8.494,27.773,13.916,45.242,3.595
			c135.574-79.885,259.336-305.563,221.688-566.457c-7.511-52.023-3.004-96.473,7.501-137.868c0.124-0.45,0.16-0.916,0.354-1.338
			c9.896-38.457,24.915-74.316,40.401-111.122c11.172-26.544,22.722-53.997,33.094-83.892
			C1974.824,2263.344,1967.82,2154.76,1913.284,2078.117z"/><path fill="#f2dac9" d="M1913.284 2078.117c-21.743-30.56-50.306-54.277-83.989-70.557 36 73.427 36.419 168.655.274 272.848-10.372 29.895-21.922 57.348-33.094 83.892-15.486 36.806-30.505 72.666-40.401 111.122-.194.423-.229.888-.354 1.338-10.505 41.395-15.013 85.845-7.501 137.868 12.684 87.897 6.268 175.992-2.454 264.005-8.348 84.238-24.961 169.538-60.505 245.613-13.204 28.262-28.688 56.201-44.569 82.857-7.401 12.423-13.841 22.394-27.682 28.685-2.576 1.171-34.295 6.957-33.184 3.521-4.113 12.726-.432 27.636 9.131 36.986 64.055 62.626 188.581-147.166 208.258-188.348 54.61-114.295 72.51-244.749 54.454-369.872-7.511-52.023-3.004-96.473 7.501-137.868.124-.45.16-.916.354-1.338 9.896-38.457 24.915-74.316 40.401-111.122 11.172-26.544 22.722-53.997 33.094-83.892C1974.824 2263.344 1967.82 2154.76 1913.284 2078.117zM1328.675 2594.962c-41.137 17.142-78.12 46.753-100.673 81.671-47.338 73.293-61.671 167.174-61.671 252.844 0 52.314 6.137 104.823 18.667 155.628 11.673 47.328 41.903 87.793 36.712 138.959-1.086 10.702-11.865 30.881-7.986 40.024 3.285 7.743 22.795 16.284 29.866 20.446 17.502 10.304 34.827 4.891 45.233-3.595 13.765-11.23 18.95-29.305 13.2-46.05-20.794-60.53-32.243-132.257-32.243-201.963 0-93.774 16.664-205.934 81.221-278.957 19.577-22.144 56.782-53.015 87.217-39.518 48.406 21.467 93.367 79.402 121.27 122.489 21.798-66.616 15.016-145.466-30.231-198.997-27.384-32.397-67.592-53.645-109.786-58.016C1389.583 2576.832 1358.069 2582.714 1328.675 2594.962z"/><path fill="#91efff" d="M2413.301,3579.051h173.407c12.763,0,23.766-9.521,25.593-22.149l14.617-101.036l-241.32,86.497
			l2.103,14.531C2389.526,3569.53,2400.53,3579.051,2413.301,3579.051z"/><path fill="#ffa1b4" d="M3765.166,3299.384c-21.021,12.384-45.873,10.439-64.891-5.085
		c-19.422-15.852-26.729-41.369-18.614-65.009c20.196-58.779,31.317-128.51,31.317-196.365
		c0-168.861-67.181-306.245-149.759-306.245c-82.578,0-149.759,137.384-149.759,306.245c0,67.854,11.121,137.586,31.309,196.365
		c8.115,23.64,0.817,49.156-18.605,65.009c-10.708,8.73-23.269,13.175-35.956,13.175c-9.841,0-19.759-2.677-28.943-8.09
		c-140.398-82.73-268.723-315.447-229.989-583.766c6.941-48.07,3.365-88.88-6.027-127.38c-1.725-0.699-3.476-1.391-5.162-2.098
		c-45.957-19.262-120.74-19.262-166.698,0c-35.805,15.019-77.974,32.298-125.934,48.811v57.634
		c0,23.766-19.338,43.103-43.104,43.103h-35.829l-119.167,823.68c-3.039,21.047-21.375,36.924-42.649,36.924h-173.407
		c-21.282,0-39.618-15.878-42.657-36.933l-119.167-823.672h-35.829c-23.766,0-43.104-19.338-43.104-43.103v-58.083
		c-47.348-16.345-89.139-33.475-124.646-48.363c-45.949-19.262-120.74-19.262-166.689,0c-2.143,0.901-4.374,1.776-6.576,2.656
		c-9.292,38.338-12.812,78.984-5.909,126.823c38.734,268.327-89.591,501.036-229.989,583.766c-9.185,5.413-19.102,8.09-28.943,8.09
		c-12.687,0-25.248-4.437-35.956-13.184c-19.422-15.844-26.721-41.361-18.597-65c20.18-58.787,31.301-128.527,31.301-196.365
		c0-168.861-67.181-306.245-149.759-306.245c-82.578,0-149.759,137.384-149.759,306.245c0,67.854,11.121,137.586,31.309,196.365
		c8.124,23.64,0.817,49.156-18.605,65.009c-19.026,15.524-43.87,17.469-64.891,5.085c-42.993-25.332-84.825-64.781-121.102-114.955
		v310.04c0,183.434,149.237,332.671,332.671,332.671h2107.194c183.434,0,332.671-149.237,332.671-332.671v-310.04
		C3849.991,3234.602,3808.159,3274.052,3765.166,3299.384z"/><path fill="#eb7f95" d="M3782.82,3288.082v102.939c0,183.434-149.237,332.671-332.671,332.671H1342.954
			c-65.269,0-126.023-19.165-177.45-51.772c59.032,93.106,162.733,155.221,280.899,155.221h2107.194
			c183.434,0,332.671-149.237,332.671-332.671v-310.04C3854.98,3227.703,3819.553,3262.939,3782.82,3288.082z"/><path d="M1114.072,3184.878c-0.112-0.154-0.228-0.295-0.34-0.448v0.204C1113.845,3184.711,1113.958,3184.802,1114.072,3184.878z"/><path fill="#fff" d="M2889.611 2628.325c34.779 34.611 87.093 45.738 132.408 26.92.114-.047.226-.094.336-.141 30.211-12.662 72.788-16.827 111.534-12.843-1.438-18.765-4.403-36.655-8.641-54.025-1.725-.699-3.476-1.391-5.162-2.098-45.957-19.262-120.74-19.262-166.698 0-22.617 9.488-48.053 19.893-75.605 30.421C2881.728 2620.481 2885.67 2624.403 2889.611 2628.325zM2241.51 2761.55c0 14.779 7.49 27.828 18.859 35.598l-8.892-61.46h-9.967V2761.55zM1182.697 3563.435v-302.37c-24.306-21.411-47.613-47.104-68.965-76.635v310.04c0 109.287 53.207 206.133 134.822 266.814C1207.383 3705.907 1182.697 3637.582 1182.697 3563.435zM2047.898 2586.14c-45.949-19.262-120.74-19.262-166.689 0-2.143.901-4.374 1.776-6.576 2.656-7.094 29.27-10.732 59.945-9.028 94.076 36.376-11.902 83.25-27.211 84.57-27.767 45.949-19.262 120.74-19.262 166.689 0 17.104 7.173 35.742 14.876 55.681 22.749v-43.352C2125.196 2618.158 2083.406 2601.028 2047.898 2586.14z"/><polygon fill="#91efff" points="2365.783 3405.398 2383.078 3524.944 2629.712 3436.544 2648.899 3303.919"/><path fill="#7ed1f2" d="M2622.137,2727.072l-101.178,676.204c-5.488,36.678-31.608,65.537-65.417,76.235
		c-24.46,23.945-48.859,47.955-73.119,72.104l5.399,36.057h224.473l128.77-860.6H2622.137z"/><path fill="#ffb987" d="M2692.862 2718.447L2692.862 2718.447l114.083 0v-170.04l-74.514 74.513C2707.095 2648.255 2692.862 2682.617 2692.862 2718.447zM2669.817 2177.713c-.178.178-.357.358-.535.538-34.563 34.935-50.154 84.476-45.673 133.415l19.915 217.495h118.424L2669.817 2177.713z"/><path fill="#080075" d="M2506.95 1944.437c-129.521 0-261.449-27.445-394.919-82.334-33.304-13.697-58.105-42.506-66.347-77.073-9.075-38.019-24.38-74.404-40.595-112.936-11.391-27.057-23.16-55.041-33.894-85.988-45.578-131.348-36.975-251.044 24.212-337.04 50.79-71.382 132.77-110.688 230.848-110.688 89.591 0 142.477 33.068 198.461 68.073.758.471 1.515.951 2.273 1.423 97.193 6.179 144.498-13.537 194.504-34.373 41.428-17.267 84.262-35.123 152.251-35.123 98.077 0 180.058 39.307 230.847 110.688 61.187 85.996 69.791 205.684 24.22 337.04-10.734 30.93-22.503 58.897-33.876 85.938-16.223 38.541-31.536 74.943-40.612 112.97-7.872 33.001-31.41 61.145-62.955 75.288C2766.336 1916.386 2637.868 1944.429 2506.95 1944.437zM2226.255 1190.101c-80.869 0-147.89 31.587-188.704 88.951-51.211 71.979-57.424 174.998-17.494 290.098 10.195 29.381 21.636 56.582 32.707 82.881 17.056 40.544 33.169 78.841 43.23 120.993 4.395 18.437 17.746 33.851 35.712 41.243 254.731 104.753 503.207 104.383 738.5-1.162 16.997-7.619 29.634-22.613 33.809-40.098 10.06-42.161 26.182-80.465 43.247-121.026 11.062-26.283 22.495-53.475 32.689-82.831 39.93-115.1 33.717-218.119-17.502-290.098-40.814-57.365-107.834-88.951-188.704-88.951-57.643 0-92.26 14.43-132.35 31.141-33.843 14.11-70.641 29.44-123.737 36.082 44.871 18.908 100.249 32.833 178.576 34.946 14.278.387 25.542 12.274 25.155 26.552-.387 14.295-12.67 25.837-26.552 25.155-148.084-3.999-224.087-47.902-289.248-88.488-.32-.194-.64-.396-.951-.598-2.467-1.532-4.908-3.064-7.341-4.588C2343.502 1216.671 2301.004 1190.101 2226.255 1190.101zM3736.332 3324.589c-16.66 0-33.203-5.716-46.959-16.93-25.071-20.466-34.5-53.425-24.018-83.968 19.599-57.028 30.383-124.773 30.383-190.766 0-170.318-69.841-289.004-132.518-289.004s-132.518 118.686-132.518 289.004c0 65.994 10.784 133.739 30.375 190.766 10.49 30.543 1.061 63.502-24.018 83.959-24.38 19.91-57.567 22.478-84.549 6.592-145.23-85.584-278.101-325.338-238.306-601.091 13.217-91.519-14.177-156.629-45.907-232.026-11.382-27.049-23.151-55.024-33.885-85.963-45.57-131.348-36.975-251.044 24.212-337.04 50.79-71.373 132.77-110.688 230.847-110.688 89.591 0 142.469 33.068 198.461 68.073.758.472 1.515.943 2.273 1.423 97.151 6.154 144.506-13.537 194.504-34.373 41.428-17.267 84.262-35.123 152.251-35.123 98.077 0 180.058 39.307 230.847 110.688 61.187 85.996 69.791 205.684 24.22 337.04-10.734 30.947-22.503 58.914-33.885 85.971-31.729 75.389-59.132 140.507-45.923 232.018 39.812 275.761-93.068 515.507-238.298 601.091C3762.152 3321.171 3749.213 3324.589 3736.332 3324.589zM3563.22 2692.198c103.314 0 184.242 149.667 184.242 340.728 0 71.567-11.786 145.281-33.186 207.57-4.091 11.929 1.347 21.821 7.804 27.091 3.67 2.997 13.529 9.202 25.576 2.088 130.75-77.039 249.966-295.679 213.379-549.131-15.263-105.73 16.164-180.412 49.434-259.471 11.062-26.3 22.503-53.492 32.698-82.865 39.93-115.1 33.717-218.119-17.502-290.098-40.814-57.365-107.834-88.952-188.704-88.952-57.643 0-92.26 14.43-132.35 31.141-33.843 14.11-70.641 29.44-123.729 36.082 44.871 18.908 100.249 32.833 178.576 34.946 14.278.387 25.542 12.274 25.155 26.552-.387 14.295-12.687 25.82-26.552 25.155-148.075-3.999-224.079-47.894-289.239-88.48-.337-.202-.665-.404-.985-.615-2.458-1.532-4.9-3.056-7.324-4.58-53.804-33.632-96.292-60.202-171.042-60.202-80.869 0-147.89 31.595-188.704 88.952-51.21 71.979-57.424 175.007-17.494 290.098 10.195 29.373 21.636 56.565 32.698 82.856 33.271 79.068 64.697 153.75 49.426 259.479-36.579 253.452 82.637 472.092 213.379 549.131 12.055 7.114 21.914.901 25.584-2.096 6.457-5.27 11.896-15.154 7.796-27.083-21.392-62.29-33.178-136.003-33.178-207.57C3378.978 2841.864 3459.906 2692.198 3563.22 2692.198zM1609.893 3324.589c-16.652 0-33.203-5.716-46.959-16.938-25.071-20.466-34.491-53.425-24.002-83.959 19.582-57.028 30.366-124.781 30.366-190.766 0-170.318-69.841-289.004-132.518-289.004-62.677 0-132.518 118.686-132.518 289.004 0 65.994 10.784 133.739 30.375 190.766 10.49 30.543 1.061 63.502-24.01 83.968-24.389 19.876-57.567 22.461-84.548 6.583-145.23-85.584-278.11-325.33-238.298-601.091 13.209-91.511-14.194-156.629-45.924-232.018-11.382-27.057-23.151-55.024-33.885-85.971-45.57-131.356-36.966-251.044 24.22-337.04 50.79-71.382 132.77-110.688 230.848-110.688 89.591 0 142.469 33.068 198.453 68.073.766.472 1.515.943 2.281 1.423 97.168 6.154 144.506-13.537 194.496-34.373 41.428-17.267 84.271-35.123 152.26-35.123 98.077 0 180.058 39.307 230.848 110.688 61.187 85.996 69.791 205.693 24.212 337.04-10.734 30.938-22.503 58.905-33.885 85.954-31.721 75.397-59.124 140.516-45.915 232.035 39.803 275.761-93.068 515.516-238.298 601.091C1635.721 3321.171 1622.773 3324.589 1609.893 3324.589zM1436.78 2692.198c103.314 0 184.242 149.667 184.242 340.728 0 71.55-11.778 145.272-33.178 207.57-4.1 11.929 1.339 21.813 7.796 27.083 3.662 2.997 13.529 9.227 25.584 2.096 130.741-77.039 249.958-295.671 213.379-549.131-15.263-105.738 16.155-180.42 49.426-259.488 11.062-26.292 22.503-53.475 32.698-82.848 39.93-115.1 33.717-218.119-17.494-290.098-40.814-57.365-107.834-88.952-188.704-88.952-57.642 0-92.268 14.43-132.358 31.141-33.843 14.11-70.641 29.44-123.729 36.082 44.863 18.9 100.258 32.833 178.576 34.946 14.278.387 25.542 12.274 25.155 26.552-.387 14.295-12.67 25.82-26.552 25.155-148.134-4.007-224.146-47.927-289.323-88.539-.269-.16-.539-.328-.8-.497-2.492-1.549-4.967-3.098-7.425-4.639-53.795-33.632-96.284-60.202-171.033-60.202-80.87 0-147.89 31.587-188.704 88.952-51.219 71.979-57.432 174.998-17.502 290.098 10.195 29.373 21.636 56.565 32.698 82.865 33.27 79.059 64.697 153.741 49.434 259.471-36.587 253.452 82.629 472.092 213.379 549.131 12.056 7.114 21.897.901 25.576-2.088 6.457-5.27 11.896-15.162 7.796-27.091-21.392-62.29-33.178-136.003-33.178-207.57C1252.538 2841.864 1333.467 2692.198 1436.78 2692.198z"/><path fill="#080075" d="M2818.835 2654.726c-10.776 0-20.836-6.794-24.49-17.561-4.588-13.529 2.652-28.211 16.181-32.799 49.417-16.761 92.773-34.609 129.529-50.024 55.117-23.101 138.234-23.101 193.368 0 2.787 1.17 5.632 2.332 8.537 3.469 13.293 5.219 19.843 20.23 14.632 33.523-5.211 13.293-20.239 19.818-33.523 14.632-3.275-1.288-6.491-2.601-9.648-3.923-42.295-17.713-111.101-17.73-153.362 0-37.564 15.751-81.914 34.003-132.914 51.303C2824.391 2654.28 2821.588 2654.726 2818.835 2654.726zM2181.165 2654.289c-2.761 0-5.565-.446-8.326-1.389-50.369-17.132-94.339-35.232-131.609-50.857-42.278-17.73-111.076-17.73-153.354 0-3.645 1.524-7.366 3.031-11.172 4.512-13.344 5.194-28.295-1.414-33.473-14.733-5.177-13.31 1.423-28.295 14.733-33.472 3.384-1.313 6.684-2.652 9.917-4.007 55.092-23.101 138.226-23.117 193.351 0 36.461 15.288 79.455 32.984 128.258 49.594 13.529 4.597 20.76 19.287 16.156 32.807C2201.984 2647.511 2191.932 2654.289 2181.165 2654.289z"/><path fill="#080075" d="M2784.352,2752.93h-568.705c-33.271,0-60.345-27.074-60.345-60.345v-120.319
			c0-33.271,27.074-60.345,60.345-60.345h568.705c33.271,0,60.345,27.074,60.345,60.345v120.319
			C2844.697,2725.855,2817.623,2752.93,2784.352,2752.93z M2215.648,2563.645c-4.757,0-8.621,3.864-8.621,8.621v120.319
			c0,4.756,3.864,8.621,8.621,8.621h568.705c4.757,0,8.621-3.864,8.621-8.621v-120.319c0-4.757-3.864-8.621-8.621-8.621H2215.648z"/><path fill="#080075" d="M2763.811 2563.645h-527.613c-7.813 0-15.213-3.536-20.121-9.614-4.917-6.087-6.811-14.059-5.161-21.703l80.331-372.281c5.96-27.588 30.77-47.616 58.99-47.616h299.527c28.219 0 53.029 20.028 58.99 47.616l80.339 372.281c1.65 7.644-.244 15.616-5.161 21.703C2779.023 2560.109 2771.623 2563.645 2763.811 2563.645zM2268.239 2511.921h463.531l-73.579-340.964c-.85-3.94-4.395-6.802-8.427-6.802h-299.527c-4.032 0-7.577 2.862-8.427 6.802L2268.239 2511.921zM2586.708 3613.534h-173.407c-29.793 0-55.47-22.225-59.722-51.707l-120.235-831.055c-1.078-7.425 1.128-14.96 6.036-20.634 4.917-5.674 12.047-8.932 19.556-8.932h482.127c7.509 0 14.64 3.258 19.556 8.932 4.908 5.674 7.114 13.209 6.036 20.634l-120.235 831.063C2642.17 3591.309 2616.493 3613.534 2586.708 3613.534zM2288.806 2752.93l115.958 801.497c.615 4.209 4.277 7.383 8.536 7.383h173.407c4.251 0 7.914-3.174 8.528-7.375l115.958-801.505H2288.806z"/><path fill="#080075" d="M2276.986 2877.677c-10.607 0-20.558-6.583-24.347-17.14-4.815-13.453 2.172-28.253 15.617-33.077l348.01-124.739c13.445-4.849 28.253 2.18 33.077 15.616 4.815 13.453-2.172 28.253-15.617 33.077l-348.01 124.739C2282.829 2877.189 2279.882 2877.677 2276.986 2877.677zM2490.037 2945.38c-10.608 0-20.558-6.583-24.347-17.14-4.816-13.453 2.172-28.253 15.616-33.077l235.394-84.372c13.461-4.849 28.253 2.18 33.077 15.617 4.815 13.453-2.172 28.253-15.616 33.077l-235.394 84.372C2495.879 2944.892 2492.933 2945.38 2490.037 2945.38zM2296.795 3014.64c-10.607 0-20.558-6.583-24.347-17.14-4.815-13.453 2.172-28.253 15.617-33.077l92.681-33.22c13.478-4.824 28.253 2.172 33.077 15.616 4.815 13.453-2.172 28.253-15.616 33.077l-92.681 33.22C2302.637 3014.152 2299.691 3014.64 2296.795 3014.64zM2316.613 3151.603c-10.607 0-20.558-6.583-24.347-17.14-4.815-13.453 2.172-28.253 15.616-33.077l386.837-138.655c13.461-4.832 28.253 2.172 33.077 15.616 4.815 13.453-2.172 28.253-15.617 33.077l-386.837 138.655C2322.455 3151.115 2319.509 3151.603 2316.613 3151.603zM2336.43 3288.566c-10.607 0-20.558-6.583-24.347-17.14-4.815-13.453 2.172-28.253 15.617-33.077l234.173-83.934c13.47-4.841 28.261 2.172 33.077 15.616 4.815 13.453-2.172 28.253-15.617 33.077l-234.173 83.934C2342.272 3288.078 2339.326 3288.566 2336.43 3288.566zM2356.239 3425.529c-10.607 0-20.558-6.583-24.347-17.14-4.815-13.453 2.172-28.253 15.617-33.077l303.248-108.693c13.453-4.858 28.253 2.18 33.077 15.616 4.815 13.453-2.172 28.253-15.617 33.077l-303.248 108.693C2362.082 3425.041 2359.135 3425.529 2356.239 3425.529zM2376.057 3562.492c-10.608 0-20.558-6.583-24.347-17.14-4.815-13.453 2.172-28.253 15.617-33.077l261.441-93.708c13.461-4.849 28.245 2.18 33.077 15.617 4.815 13.453-2.172 28.253-15.617 33.077l-261.441 93.708C2381.899 3562.003 2378.953 3562.492 2376.057 3562.492zM2763.811 3861.623H1446.403c-202.452 0-367.154-164.702-367.154-367.154V3157.37c0-14.286 11.576-25.862 25.862-25.862 14.286 0 25.862 11.576 25.862 25.862v337.099c0 173.929 141.5 315.43 315.43 315.43h1317.408c14.286 0 25.862 11.576 25.862 25.862S2778.097 3861.623 2763.811 3861.623z"/><path fill="#080075" d="M3553.597,3861.623H2236.198c-14.287,0-25.862-11.576-25.862-25.862s11.576-25.862,25.862-25.862
			h1317.399c173.929,0,315.43-141.5,315.43-315.43V3157.37c0-14.286,11.576-25.862,25.862-25.862
			c14.286,0,25.862,11.576,25.862,25.862v337.099C3920.751,3696.92,3756.049,3861.623,3553.597,3861.623z"/></svg>