<svg xmlns="http://www.w3.org/2000/svg" enable-background="new 0 0 5000 5000" viewBox="0 0 5000 5000"><path fill="#ffec9e" d="M1602.139,2169.782l0.657-2.172c2.206-7.274,14.295-7.274,16.501,0l0.657,2.172
		c47.481,156.982,47.481,156.982,144.136,233.272c2.071,1.633,3.948,4.656,3.948,7.291c0,2.644-0.539,5.666-2.61,7.299l-1.339,1.061
		c-56.575,44.653-80,63.336-99.25,102.495c14.986,8.164,29.434,16.97,44.486,26.386c1.797,1.124,3.632,2.262,5.445,3.393
		c97.932,6.823,146.885-13.512,194.203-33.229c39.307-16.383,76.424-31.856,137.291-31.856c68.694,0,128.139,21.855,172.269,61.844
		l147.581-29.229v-154.112c-142.816-37.598-248.594-167.464-248.594-321.92v-15.903h-26.594
		c-62.449,0-113.256-50.807-113.256-113.256c0-18.384,4.499-35.703,12.306-51.072c-0.411-0.421-0.89-0.751-1.219-1.267
		c-38.724-60.73-61.373-127.307-67.954-193.454c-22.641-29.6-42.67-54.284-59.479-73.257
		c-129.041-145.634-332.267-251.6-494.216-257.703c-81.08-3.047-148.143,18.891-194.041,63.443
		c-154.011,149.498-53.037,523.825,133.242,734.072c44.493,50.217,124.924,126.376,221.163,209.548
		C1559.851,2309.157,1570.557,2274.203,1602.139,2169.782z"/><path fill="#fff" d="M1375.274,2203.044c-186.279-210.247-287.252-584.574-133.242-734.072
			c45.898-44.552,112.961-66.49,194.041-63.443c136.819,5.156,302.934,81.732,429.053,193.141c-1.244-1.425-2.592-3.038-3.802-4.404
			c-129.041-145.634-332.267-251.6-494.216-257.703c-81.08-3.047-148.143,18.891-194.041,63.443
			c-154.011,149.498-53.037,523.825,133.242,734.072c20.989,23.69,50.196,53.294,85.067,86.544
			C1385.65,2214.506,1380.159,2208.558,1375.274,2203.044z"/><path fill="#fff1e3" d="M2090.926 2009.331h26.594v-192.029h-26.594c-52.945 0-96.015 43.07-96.015 96.015S2037.981 2009.331 2090.926 2009.331zM3004.677 1913.317c0-52.945-43.07-96.015-96.015-96.015h-26.594v192.029h26.594C2961.607 2009.331 3004.677 1966.261 3004.677 1913.317z"/><path fill="#ffa1b4" d="M3320.418,2330.999l-126.768-10.574c-9.252-0.775-17.241-6.575-20.853-15.128l-49.224-117.314
		c-1.818-4.327-5.834-4.664-7.021-4.664c-1.179,0-5.194,0.337-7.013,4.664l-49.232,117.297c-3.595,8.57-11.584,14.371-20.836,15.145
		l-126.776,10.574c-4.681,0.396-6.238,4.108-6.609,5.236c-0.362,1.128-1.28,5.043,2.273,8.116l96.343,83.058
		c7.03,6.07,10.085,15.457,7.964,24.507l-29.12,123.83c-1.077,4.571,1.97,7.206,2.938,7.897c0.951,0.699,4.395,2.778,8.419,0.354
		l108.769-65.96c3.974-2.408,8.427-3.62,12.881-3.62c4.462,0,8.915,1.212,12.897,3.628l108.76,65.952
		c4.016,2.441,7.459,0.354,8.419-0.354c0.96-0.69,4.007-3.325,2.93-7.888l-29.112-123.838c-2.13-9.042,0.918-18.437,7.972-24.507
		l96.326-83.067c3.561-3.064,2.644-6.979,2.273-8.107C3326.656,2335.107,3325.098,2331.395,3320.418,2330.999z"/><path fill="#fff" d="M1645.448,2521.877c0.135-0.385,0.14-0.789,0.333-1.164c0.107-0.206,0.298-0.328,0.419-0.522
		c20.154-44.509,43.104-64.346,99.982-109.316c-87.613-69.26-94.777-78.537-135.136-211.055
		c-28.551,93.746-40.612,125.838-76.17,161.097c-0.084,0.107-0.105,0.242-0.196,0.347c-0.196,0.227-0.476,0.311-0.689,0.513
		c-14.575,14.322-32.95,29.229-58.081,49.097c42.046,33.241,65.495,52.73,83.046,78.588c0.361,0.383,0.606,0.833,0.892,1.28
		c18.519,27.826,30.53,63.317,51.198,131.188C1624.886,2576.489,1634.837,2545.719,1645.448,2521.877z"/><path fill="#91efff" d="M3107.931,2571.747c0-4.765,3.856-8.621,8.621-8.621c0.25,0,0.461,0.122,0.705,0.143l0.664-31.21
			c-1.809-0.345-3.664-0.274-5.301,0.718l-108.777,65.969c-8.713,5.253-19.253,4.832-27.495-1.153
			c-1.863-1.351-3.414-2.955-4.793-4.66l-90.676-13.798c-1.521,2.629-4.332,4.315-7.423,4.315c-0.555,0-1.12-0.051-1.684-0.168
			l-49.36-9.774c-16.44,35.156-104.802,198.983-322.618,198.983c-76.969,0-145.21-20.348-203.402-60.054
			c4.792,53.13-3.343,112.058-24.861,174.076c-4.259,12.262-8.74,23.995-13.273,35.485
			c57.951,191.608,57.988,191.646,176.123,284.895l1.65,1.305c2.071,1.633,3.283,4.134,3.283,6.769s-1.212,5.135-3.283,6.769
			l-1.625,1.28c-118.189,93.279-118.189,93.279-176.169,284.988l-0.825,2.719c-1.103,3.637-4.453,6.129-8.25,6.129
			s-7.147-2.492-8.25-6.129l-0.792-2.61c-18.763-62.033-31.456-103.938-44.043-135.49c-12.938,91.106-46.215,177.677-92.634,247.382
			h916.571c48.474,0,87.916-39.441,87.916-87.916V2571.747z"/><path d="M2330.933,3103.443c-3.841-3.031-7.545-5.956-11.142-8.802c4.424,7.783,9.144,14.916,14.308,21.758
				c1.029-1.446,1.768-3.073,1.768-4.883c0-2.635-1.212-5.135-3.283-6.769L2330.933,3103.443z"/><path fill="#7ed1f2" d="M3004.483,2843.243v585.396c0,48.555-39.361,87.916-87.916,87.916h-666.514
			c-0.321,0.038-0.561,0.294-0.89,0.294s-0.569-0.257-0.89-0.294h-90.947c-14.918,37.109-32.975,72.055-53.881,103.448h916.571
			c48.554,0,87.916-39.361,87.916-87.916v-938.59l0,0C3041.694,2659.733,3004.483,2749.57,3004.483,2843.243z"/><path fill="#fff1e3" d="M3163.174,3037.702h-67.341c-54.275,0-98.431,44.156-98.431,98.431v67.686
		c0,54.275,44.156,98.431,98.431,98.431h67.341c22.099,0,40.073-17.974,40.073-40.064v-184.41
		C3203.247,3055.676,3185.273,3037.702,3163.174,3037.702z"/><path fill="#ffec9e" d="M4031.439,2546.432c-54.231-173.66-280.561-264.64-465.682-262.258
		c-60.224,54.753-131.108,115.575-206.092,176.488c-1.6,1.297-3.528,1.928-5.43,1.928c-2.509,0-4.992-1.086-6.701-3.182
		c-2.997-3.696-2.441-9.126,1.254-12.131c148.37-120.53,280.526-240.537,344.903-313.199
		c186.279-210.247,287.252-584.574,133.242-734.072c-45.907-44.551-113.164-66.516-194.041-63.443
		c-161.949,6.104-365.176,112.069-494.217,257.703c-29.818,33.66-69.506,84.919-114.81,148.259
		c-3.749,35.154-9.763,72.516-18.41,112.29c10.375,17.102,16.463,37.08,16.463,58.501c0,62.449-50.807,113.256-113.256,113.256
		h-26.594v15.903c0,154.474-105.805,284.348-248.645,321.929v154.103l241.699,47.868c4.672,0.918,7.703,5.455,6.777,10.128
		c-0.188,0.96-0.558,1.831-1.021,2.631l90.676,13.798c-4.73-5.847-6.601-13.449-4.795-21.126l29.12-123.83
		c0.648-2.77-0.286-5.649-2.441-7.501l-96.343-83.067c-7.711-6.659-10.549-16.812-7.4-26.502c3.148-9.69,11.416-16.24,21.568-17.082
		l126.768-10.574c2.829-0.244,5.279-2.021,6.381-4.639l49.232-117.297c3.94-9.395,12.72-15.238,22.907-15.238
		c10.195,0,18.976,5.843,22.916,15.238l49.224,117.297c1.103,2.618,3.553,4.395,6.398,4.639l126.76,10.574
		c10.161,0.842,18.42,7.392,21.569,17.082c3.148,9.69,0.312,19.843-7.417,26.502l-96.326,83.067
		c-2.164,1.852-3.098,4.723-2.441,7.492l29.112,123.838c2.332,9.909-1.33,19.792-9.58,25.786c-4.411,3.207-9.479,4.824-14.573,4.824
		c-4.428,0-8.873-1.221-12.923-3.67l-108.769-65.96c-0.797-0.482-1.699-0.558-2.579-0.726l-0.664,31.21
		c4.417,0.375,7.916,3.963,7.916,8.478v448.714h38.002c30.052,0,54.502,23.328,56.856,52.785
		c68.862-1.444,247.095-4.908,313.314-10.06c-1.407-3.382-3.91-6.512-6.866-9.538c62.889-7.156,115.673-15.667,150.713-24.49
		c129.773-32.673,255.548-128.586,320.422-244.359C4043.091,2703.642,4054.784,2621.215,4031.439,2546.432z"/><path fill="#ffb987" d="M3827.844 1400.98c-20.914 20.914-32.249 49.727-30.236 79.236 11.912 174.694-76.663 402.87-207.364 550.414-91.969 103.808-203.16 187.062-304.392 280.438 1.796-.076 3.326.531 4.587 1.814.137 4.336-1.208 7.665-2.427 11.839 14.786-6.657 28.763 15.139 23.094 30.33s-20.994 24.027-33.608 34.213c-40.44 32.658-57.97 91.02-42.217 140.556 40.939-14.2 74.905-42.984 107.828-71.156 60.484-51.756 120.969-103.511 181.452-155.267 61.003-52.202 115.974-109.324 169.132-169.318C3879.585 1924.269 3980.478 1551.097 3827.844 1400.98L3827.844 1400.98zM4031.439 2546.432c-21.593-69.145-70.519-125.135-133.213-167.388 12.534 19.889 22.66 41.186 29.765 63.94 23.345 74.783 11.651 157.21-33.826 238.365-64.874 115.773-190.649 211.687-320.422 244.359-35.04 8.823-87.823 17.334-150.713 24.49 2.956 3.027 5.459 6.156 6.866 9.538-63.705 4.957-230.794 8.347-304.724 9.882v50.842h38.002c30.052 0 54.502 23.328 56.856 52.785 68.862-1.444 247.095-4.908 313.314-10.06-1.407-3.382-3.91-6.512-6.866-9.538 62.889-7.156 115.673-15.667 150.713-24.49 129.773-32.673 255.548-128.586 320.422-244.359C4043.091 2703.642 4054.784 2621.215 4031.439 2546.432z"/><path fill="#fff" d="M3482.158 3063.459c17.211-44.968 33.081-59.402 81.281-97.551-64.234-50.84-71.053-59.553-100.14-154.558-29.086 95.004-35.897 103.718-100.131 154.558 49.284 39.037 64.855 53.633 82.509 100.969.085.158.11.345.185.509 5.295 14.255 10.779 31.334 17.437 53.08 7.208-23.541 13.046-41.761 18.732-56.659C3482.066 3063.686 3482.118 3063.577 3482.158 3063.459zM3794.242 1374.639c-42.961-27.255-97.866-40.487-161.35-38.075-161.949 6.104-365.176 112.069-494.217 257.703-29.818 33.66-69.506 84.919-114.81 148.259-3.749 35.154-9.763 72.516-18.41 112.29 4.13 6.808 7.356 14.181 10.014 21.808 10.009-12.455 20.074-24.846 30.448-36.899 76.996-89.469 156.57-183.806 247.774-259.169 112.756-93.086 259.443-169.421 408.164-175.027 6.539-.249 12.979-.317 19.321-.218C3748.614 1405.743 3774.839 1394.042 3794.242 1374.639L3794.242 1374.639z"/><path fill="#ffec9e" d="M1305.567,2886.511c-41.192-118.72-33.818-226.327,20.752-303.021
		c44.779-62.938,117.415-97.597,204.514-97.597c1.331,0,2.527,0.126,3.84,0.141c-16.768-19.988-39.567-38.05-76.653-67.322
		l-1.355-1.069c-2.071-1.633-3.283-4.134-3.283-6.769c0-2.635,1.212-5.135,3.283-6.769c25.196-19.885,43.845-34.643,58.557-48.287
		c-28.552-24.69-55.573-48.67-80.826-71.645c-185.697-2.425-411.587,88.531-465.835,262.258
		c-23.345,74.783-11.651,157.21,33.826,238.365c64.874,115.773,190.649,211.687,320.43,244.359
		c12.071,3.043,26.307,6.062,42.352,9.006c-8.043-23.7-17.74-47.138-28.066-71.674
		C1326.488,2941.25,1315.501,2915.16,1305.567,2886.511z"/><path fill="#fff" d="M1534.673 2486.035c-3.192-3.805-6.691-7.545-10.377-11.302-1.136 1.488-1.949 3.201-1.949 5.108 0 2.446 1.129 4.706 2.933 6.333 1.878-.031 3.661-.28 5.553-.28C1532.164 2485.894 1533.36 2486.02 1534.673 2486.035zM1071.352 2853.763c-45.477-81.156-57.171-163.583-33.826-238.365 54.248-173.727 280.138-264.682 465.835-262.258 2.386 2.17 4.985 4.458 7.401 6.646 1.461-1.313 3.071-2.679 4.46-3.967-28.552-24.69-55.573-48.67-80.826-71.645-185.697-2.425-411.587 88.531-465.835 262.258-23.345 74.783-11.651 157.21 33.826 238.365 28.722 51.257 69.413 98.584 117.072 138.291C1101.164 2901.08 1084.873 2877.891 1071.352 2853.763z"/><path fill="#ffa1b4" d="M2992.566,1450.179l61.662-68.129c40.931-45.242,37.438-115.352-7.804-156.292
		c-45.217-40.931-115.335-37.438-156.284,7.804l-34.874,38.54C2907.053,1309.931,2959.163,1366.456,2992.566,1450.179z"/><path fill="#fff" d="M2959.106,1302.527c30.508-33.706,77.199-44.202,117.729-30.456
			c-5.85-17.232-15.986-33.261-30.41-46.314c-45.217-40.931-115.335-37.438-156.284,7.804l-34.874,38.54
			c24.293,17.746,48.586,39.803,71.058,66.655L2959.106,1302.527z"/><path fill="#ffa1b4" d="M2128.043,1305.696l-65.278-72.134c-40.948-45.225-111.042-48.735-156.284-7.804
		c-45.233,40.94-48.727,111.05-7.796,156.292l63.127,69.755c5.182-9.669,10.685-19.186,16.808-28.385
		C2016.625,1366.311,2068.617,1326.204,2128.043,1305.696z"/><path fill="#fff" d="M1973.462,1274.018c36.891-33.377,90.298-37.181,130.961-12.934l-43.643-48.227
			c-40.948-45.225-111.042-48.736-156.284-7.804c-45.233,40.94-48.727,111.05-7.796,156.292l63.127,69.755
			c0.84-1.567,1.866-3.043,2.724-4.602C1925.084,1381.208,1929.459,1313.845,1973.462,1274.018z"/><path fill="#ffa1b4" d="M2090.926,1800.061h33.243c17.323-8.545,181.099-95.004,179.833-302.558
		c-0.025-3.847,2.509-7.248,6.204-8.326c3.729-1.094,7.678,0.438,9.715,3.679c90.239,143.336,227.825,142.267,350.459,122.281
		c41.041-6.642,81.198,6.365,119.317,38.785c52.135,44.331,85.762,113.719,91.425,146.139h27.539
		c32.768,0,62.239,14.072,82.938,36.39c32.329-158.557,21.835-277.196-10.008-365.693c-0.221-0.422-0.341-0.856-0.487-1.302
		c-46.909-129.074-138.957-193.984-208.228-225.631c-186.262-85.112-417.068-35.24-491.329,64.445
		c-1.936,2.61-5.127,3.881-8.385,3.342c-111.959-19.354-216.721,25.988-280.189,121.363
		c-78.545,118.028-75.514,279.482,7.003,413.136C2020.629,1818.239,2053.653,1800.061,2090.926,1800.061z"/><path fill="#eb7f95" d="M2981.593,1470.757c-0.221-0.422-0.341-0.856-0.487-1.302
			c-34.198-94.097-92.374-153.984-148.238-191.852c17.185,25.496,32.546,54.717,44.789,88.404c0.146,0.446,0.266,0.88,0.487,1.302
			c31.843,88.497,42.336,207.136,10.008,365.693c-14.902-16.067-34.395-27.755-56.346-33.101
			c27.726,37.39,45.385,77.652,49.316,100.16h27.539c32.768,0,62.239,14.072,82.938,36.39
			C3023.929,1677.893,3013.435,1559.254,2981.593,1470.757z"/><path fill="#fff" d="M2061.94,1501.94c50.142-75.349,126.057-119.471,210.933-125.134
			c43.736-2.918,85.925-16.141,121.773-41.364c99.423-69.956,289.313-94.798,447.197-22.653
			c24.787,11.324,52.488,27.01,79.996,48.268c-46.347-59.999-102.704-96.101-148.961-117.234
			c-186.245-85.104-417.025-35.25-491.308,64.417c-1.981,2.657-5.174,3.929-8.439,3.365
			c-111.947-19.34-216.694,26.003-280.156,121.369c-78.545,118.028-75.514,279.482,7.003,413.136
			c7.118-9.606,15.789-17.955,25.515-24.911C1989.43,1710.78,2001.107,1593.352,2061.94,1501.94z"/><path fill="#fff1e3" d="M2548.832,2375.702h-98.085c-23.083,0-45.619-2.374-67.391-6.865v156.751
		c0,4.117-2.913,7.661-6.945,8.452l-142.809,28.289c6.084,6.67,11.857,13.685,17.177,21.162
		c21.842,30.698,35.989,66.413,42.62,105.747c57.937,43.731,127.314,66.01,206.395,66.01c200.969,0,286.083-146.232,305.182-185.195
		l-181.849-36.013c-4.033-0.791-6.946-4.335-6.946-8.452v-156.738C2594.421,2373.332,2571.899,2375.702,2548.832,2375.702z"/><path fill="#fff" d="M2383.355 2387.884v137.704c0 4.113-2.907 7.652-6.942 8.451l-142.812 28.29c6.084 6.67 11.857 13.685 17.177 21.162 13.935 19.586 24.385 41.401 32.103 64.706.666 1.898 84.16-24.199 90.357-27.874 50.551-29.962 79.086-75.383 79.082-132.51l0 0c0-19.826-7.876-38.838-21.895-52.857C2414.736 2419.266 2399.046 2403.576 2383.355 2387.884zM2063.935 3223.038l-1.65-1.305c-2.071-1.633-3.283-4.134-3.283-6.769s1.212-5.135 3.283-6.769l1.616-1.28c118.206-93.287 118.206-93.287 176.194-285.03l.817-2.677c.025-.082.118-.105.145-.185.055-.168.025-.339.09-.505 4.832-12.148 9.581-24.658 14.101-37.665 23.216-66.924 30.291-129.866 21.737-185.075-.072-.354-.14-.692-.167-1.054-6.01-37.827-19.311-72.036-40.091-101.24-41.453-58.265-109.097-90.349-190.463-90.349-57.415 0-92.992 14.825-130.657 30.526-43.766 18.243-88.915 37-170.18 35.876 52.364 30.257 117.54 58.261 227.443 61.225 4.756.135 8.511 4.091 8.385 8.856-.126 4.681-3.965 8.385-8.612 8.385h-.244c-141.088-3.813-210.752-47.372-272.208-85.803-14.438-9.029-28.281-17.443-42.446-25.222-10.88 26.279-21.562 61.353-37.776 114.957l-.673 2.206c-1.103 3.637-4.453 6.129-8.25 6.129-3.797 0-7.147-2.492-8.25-6.129l-.657-2.155c-24.113-79.741-36.014-118.935-54.518-148.238-5.468-.322-10.969-.613-16.788-.613-81.366 0-149.01 32.083-190.463 90.349-51.244 72.021-57.819 174.081-18.521 287.37 9.766 28.127 20.634 53.963 31.149 78.95 12.177 28.939 24.034 57.264 33.062 86.897.08.263.18.505.235.777 13.393 44.238 20.377 91.458 12.181 148.259-35.434 245.403 80.954 457.654 208.454 532.782 16.223 9.547 32.344 4.546 42.009-3.342 10.178-8.309 18.748-23.917 12.274-42.784-19.599-57.062-30.391-124.646-30.391-190.312 0-171.058 69.277-305.05 157.723-305.05 88.446 0 157.723 133.991 157.723 305.05 0 65.682-10.793 133.267-30.383 190.312-6.474 18.866 2.096 34.474 12.274 42.784 9.665 7.88 25.769 12.88 42.009 3.342 111.607-65.762 196.584-220.806 212.092-386.392C2159.255 3298.288 2130.146 3275.297 2063.935 3223.038z"/><path fill="#fff1e3" d="M2864.826,2042.475v-233.794c0-20.844-32.605-95.964-86.291-141.627
		c-34.095-28.985-69.555-40.755-105.376-34.895c-114.578,18.63-256.297,22.276-352.649-107.868
		c-11.629,189.462-156.649,274.511-185.749,289.715v228.469c0,174.232,141.753,315.985,315.985,315.985h98.085
		C2723.073,2358.461,2864.826,2216.708,2864.826,2042.475z"/><path fill="#f2dac9" d="M2778.535,1667.054c-13.802-11.735-27.837-20.498-42.021-26.562
		c15.992,28.395,24.863,53.909,24.863,64.74v233.794c0,174.232-141.753,315.985-315.994,315.985h-98.086
		c-60.646,0-117.156-17.473-165.323-47.214c55.702,90.216,155.185,150.662,268.771,150.662h98.085
		c174.241,0,315.994-141.753,315.994-315.985v-233.794C2864.826,1787.837,2832.221,1712.717,2778.535,1667.054z"/><path fill="#fff" d="M2203.727,2111.441v-346.276c-30.554,27.428-57.997,43.11-68.966,48.841v228.469
		c0,104.688,51.389,197.379,130.039,254.912C2226.582,2245.142,2203.727,2180.985,2203.727,2111.441z"/><path fill="#f2dac9" d="M1792.926 3200.491c21.505 6.449 44.379 22.15 59.942 33.997 22.476 17.11 41.736 38.507 56.312 62.708 9.86 16.372 33.093 56.035 27.652 76.069 18.119-66.72 10.1-140.838-25.011-200.395-35.111-59.557-97.645-103.033-166.23-111.743-50.898-6.464-93.099-4.106-131.229 32.035-33.655 31.899-56.134 75.118-67.501 119.761-34.763 136.536 2.841 278.201 51.597 405.462 4.426 11.554 8.453 25.845.414 35.25-8.534 9.984-25.973 8.153-34.177 18.411-6.541 8.179-3.881 20.905 3.082 28.729 7.158 8.044 18.298 12.184 26.71 18.144 8.947 6.338 15.111 12.652 26.131 16.263 12.025 3.941 26.368 3.188 35.936-5.093 16.916-14.641 10.601-41.65 4.115-63.061-31.962-105.51-32.438-220.344-1.351-326.115 10.204-34.717 24.054-69.034 46.896-97.099 15.757-19.361 44.792-47.548 71.036-46.217C1782.3 3197.853 1787.571 3198.885 1792.926 3200.491zM2258.721 2606.4c-24.738-34.776-59.066-59.92-100.014-74.528 22.317 7.961 26.531 107.95 27.633 126.341 3.153 52.589-1.227 105.638-13.143 156.962-19.572 84.301-58.759 162.687-84.409 245.342-24.595 79.256-17.088 170.151-7.224 252.26 8.919 74.247.687 129.122-23.468 200.969-16.867 50.169-35.212 108.562-76.237 144.545-56.781 49.803-1.902 104.781 51.407 52.796 134.287-130.954 193.851-320.258 167.17-505.056-13.787-95.475 14.998-163.873 45.471-236.297 10.465-24.883 21.292-50.615 31.011-78.614C2315.888 2778.781 2309.429 2677.665 2258.721 2606.4z"/><path fill="#fff" d="M2416.786,3214.965c-109.333-86.4-116.75-96.065-167.624-263.529
			c-50.882,167.464-58.299,177.137-167.632,263.529c63.802,50.415,92.855,74.863,116.135,119.627
			c0.851,0.987,1.417,2.17,1.754,3.456c15.834,31.547,29.304,73.177,49.743,140.446
			C2300.045,3311.021,2307.453,3301.349,2416.786,3214.965z"/><path fill="#080075" d="M1972.652 2665.244c-.244 0-.48 0-.716-.008-145.786-3.94-217.563-48.82-280.888-88.413-16.955-10.608-32.967-20.617-49.502-29.179-12.687-6.566-17.646-22.175-11.079-34.853 6.558-12.678 22.175-17.662 34.853-11.079 18.403 9.53 35.283 20.079 53.147 31.25 60.555 37.859 123.165 77.014 254.866 80.566 14.278.387 25.542 12.274 25.155 26.552C1998.11 2654.123 1986.61 2665.244 1972.652 2665.244zM1951.521 3768.179c-16.021 0-31.94-5.498-45.166-16.29-24.103-19.675-33.161-51.345-23.075-80.701 18.378-53.526 28.505-117.137 28.505-179.107 0-159.449-64.95-270.567-123.24-270.567-58.291 0-123.241 111.118-123.241 270.567 0 61.953 10.128 125.564 28.514 179.107 10.085 29.356 1.027 61.027-23.076 80.701-23.454 19.144-55.378 21.636-81.324 6.339-137.156-80.819-262.653-307.146-225.072-567.417 12.375-85.735-13.352-146.863-43.137-217.639-10.717-25.483-21.813-51.833-31.932-81.013-43.07-124.133-34.904-237.305 22.991-318.662 48.113-67.61 125.732-104.846 218.565-104.846 8.259 0 16.189.295 23.833.875 14.236 1.078 24.911 13.495 23.833 27.74-1.078 14.244-13.504 24.877-27.739 23.833-6.381-.48-13.015-.724-19.927-.724-75.633 0-138.285 29.516-176.421 83.109-47.919 67.341-53.694 163.844-16.273 271.72 9.58 27.605 20.339 53.181 30.753 77.906 31.401 74.64 61.069 145.137 46.639 245.092-34.348 237.961 77.485 443.183 200.153 515.457 10.548 6.213 19.144.792 22.351-1.844 5.683-4.639 10.473-13.335 6.87-23.825-20.205-58.813-31.326-128.384-31.326-195.91 0-180.723 76.854-322.291 174.965-322.291 98.111 0 174.965 141.568 174.965 322.291 0 67.534-11.121 137.115-31.317 195.91-3.603 10.49 1.187 19.186 6.87 23.825 3.208 2.626 11.803 8.057 22.352 1.844 107.649-63.426 189.621-214.431 203.984-375.741 1.263-14.244 14.025-24.768 28.051-23.471 14.228 1.271 24.734 13.832 23.471 28.051-16.021 179.923-105.999 343.11-229.24 415.729C1976.365 3764.896 1963.905 3768.179 1951.521 3768.179z"/><path fill="#080075" d="M2249.154,2947.572c-3.182,0-6.415-0.589-9.547-1.835c-13.276-5.279-19.759-20.323-14.48-33.591
			c4.74-11.912,9.395-24.187,13.832-36.949c37.421-107.868,31.646-204.371-16.273-271.712
			c-38.136-53.593-100.788-83.109-176.421-83.109c-53.964,0-86.434,13.529-124.023,29.196
			c-48.996,20.424-104.501,43.558-212.057,35.678c-14.244-1.044-24.944-13.445-23.901-27.689
			c1.052-14.236,13.234-24.936,27.689-23.901c95.223,6.962,140.465-11.862,188.367-31.831
			c39.138-16.307,79.615-33.178,143.925-33.178c92.832,0,170.452,37.236,218.565,104.846
			c57.895,81.358,66.061,194.53,22.991,318.662c-4.689,13.512-9.614,26.494-14.623,39.096
			C2269.165,2941.393,2259.433,2947.572,2249.154,2947.572z"/><path fill="#080075" d="M2249.162 3534.09c-11.399 0-21.451-7.467-24.751-18.378l-.792-2.61c-56.447-186.616-56.447-186.616-170.36-276.527l-1.658-1.313c-6.213-4.9-9.841-12.384-9.841-20.297s3.629-15.398 9.841-20.297l1.616-1.28c113.955-89.936 113.955-89.936 170.376-276.493l.817-2.677c3.3-10.911 13.352-18.378 24.751-18.378l0 0c11.399 0 21.459 7.467 24.751 18.378l.792 2.61c56.438 186.608 56.438 186.608 170.351 276.527l1.658 1.313c6.213 4.9 9.842 12.384 9.842 20.297s-3.628 15.398-9.842 20.297l-1.625 1.288c-113.938 89.919-113.938 89.919-170.351 276.443l-.825 2.719C2270.613 3526.623 2260.561 3534.09 2249.162 3534.09zM2109.253 3214.965c84.692 67.686 103.271 91.006 139.909 205.373 36.638-114.359 55.209-137.687 139.901-205.373-84.683-67.686-103.271-91.031-139.901-205.373C2212.524 3123.943 2193.953 3147.279 2109.253 3214.965zM1611.046 2677.51L1611.046 2677.51c-11.399 0-21.451-7.467-24.751-18.378l-.657-2.155c-45.907-151.805-45.907-151.805-138.302-224.727l-1.355-1.078c-6.213-4.9-9.841-12.384-9.841-20.297 0-7.913 3.628-15.398 9.841-20.297 93.742-73.991 93.742-73.991 139.648-225.788l.665-2.172c3.3-10.91 13.352-18.378 24.751-18.378 11.399 0 21.451 7.467 24.751 18.378l.665 2.172c45.907 151.797 45.907 151.797 138.31 224.727 6.213 4.9 10.506 12.914 10.506 20.828s-2.955 15.928-9.168 20.828l-1.339 1.061c-92.395 72.931-92.395 72.931-138.301 224.685l-.674 2.214C1632.497 2670.043 1622.445 2677.51 1611.046 2677.51zM1503.591 2410.875c63.359 50.933 80.39 71.946 107.456 153.64 27.074-81.686 44.097-102.708 107.456-153.64-63.359-50.924-80.39-71.946-107.456-153.64C1583.98 2338.929 1566.949 2359.951 1503.591 2410.875zM1760.09 2410.875h.168H1760.09zM3463.299 3175.995L3463.299 3175.995c-11.399 0-21.451-7.467-24.751-18.378-35.081-115.975-35.081-115.975-104.273-170.595-6.213-4.9-10.364-12.788-10.364-20.71 0-7.913 3.115-15.802 9.328-20.701 70.228-55.428 70.228-55.428 104.787-169.72l.522-1.701c3.292-10.91 13.352-18.378 24.751-18.378 11.399 0 21.451 7.459 24.751 18.378l.522 1.701c34.567 114.292 34.567 114.292 103.777 168.912 6.213 4.908 10.346 12.788 10.346 20.701 0 7.922-3.115 15.802-9.328 20.701l-1.019.808c-69.21 54.62-69.21 54.62-103.777 168.903l-.522 1.701C3484.75 3168.528 3474.698 3175.995 3463.299 3175.995zM3438.548 3142.649l24.751 7.484L3438.548 3142.649zM3390.73 2965.916c40.62 33.127 55.226 50.764 72.56 98.852 17.401-48.323 31.924-65.766 72.569-98.86-40.637-33.094-55.159-50.529-72.56-98.843C3445.906 2915.379 3431.384 2932.823 3390.73 2965.916zM3577.346 2965.908h.168H3577.346zM3242.158 2619.607c-7.535 0-15.086-2.029-21.829-6.12l-103.777-62.929-103.768 62.929c-14.539 8.823-32.816 8.048-46.572-1.945-13.756-9.993-20.129-27.142-16.231-43.684l27.781-118.139-91.923-79.253c-12.872-11.104-17.797-28.724-12.544-44.888s19.599-27.529 36.537-28.935l120.942-10.094 46.968-111.909c6.575-15.676 21.813-25.803 38.81-25.803 17.006 0 32.243 10.128 38.818 25.812l46.959 111.901 120.951 10.094c16.947 1.406 31.284 12.771 36.537 28.935 5.253 16.172.32 33.792-12.561 44.888l-91.906 79.253 27.773 118.139c3.898 16.534-2.467 33.683-16.223 43.684C3259.534 2616.896 3250.854 2619.607 3242.158 2619.607zM2936.999 2346.279l78.958 68.073c11.921 10.279 17.09 26.182 13.495 41.504l-23.875 101.503 89.153-54.064c13.453-8.166 30.198-8.175 43.667.009l89.128 54.056-23.858-101.495c-3.62-15.322 1.557-31.241 13.503-41.529l78.933-68.056-103.886-8.671c-15.676-1.313-29.196-11.129-35.308-25.618l-40.359-96.166-40.342 96.133c-6.095 14.514-19.624 24.338-35.299 25.652L2936.999 2346.279zM3318.987 2348.181h.168H3318.987zM3107.67 2194.651c.009.017.009.025.017.042l-.017-.034V2194.651zM3116.552 3837.305c-14.287 0-25.862-11.576-25.862-25.862V3310.87c0-14.286 11.575-25.862 25.862-25.862 14.286 0 25.862 11.576 25.862 25.862v500.573C3142.414 3825.729 3130.838 3837.305 3116.552 3837.305z"/><path fill="#080075" d="M3116.552,3054.943c-14.287,0-25.862-11.576-25.862-25.862v-457.334
			c0-14.286,11.575-25.862,25.862-25.862c14.286,0,25.862,11.576,25.862,25.862v457.334
			C3142.414,3043.368,3130.838,3054.943,3116.552,3054.943z"/><path fill="#080075" d="M3163.174 3336.732h-67.341c-73.292 0-132.913-59.621-132.913-132.914v-67.686c0-73.293 59.621-132.914 132.913-132.914h67.341c41.108 0 74.555 33.447 74.555 74.555v184.41C3237.73 3303.293 3204.282 3336.732 3163.174 3336.732zM3095.833 3054.943c-44.77 0-81.189 36.419-81.189 81.189v67.686c0 44.77 36.419 81.189 81.189 81.189h67.341c12.586 0 22.831-10.237 22.831-22.823v-184.41c0-12.586-10.245-22.831-22.831-22.831H3095.833zM2548.832 2392.943h-98.085c-193.25 0-350.468-157.218-350.468-350.468v-233.794c0-14.286 11.576-25.862 25.862-25.862 14.287 0 25.862 11.576 25.862 25.862v233.794c0 164.728 134.016 298.744 298.744 298.744h98.085c164.736 0 298.752-134.016 298.752-298.744v-233.794c0-14.286 11.576-25.862 25.862-25.862s25.862 11.576 25.862 25.862v233.794C2899.309 2235.725 2742.082 2392.943 2548.832 2392.943z"/><path fill="#080075" d="M2126.141 2043.814h-35.215c-71.954 0-130.497-58.543-130.497-130.497s58.543-130.497 130.497-130.497h35.215c14.287 0 25.862 11.576 25.862 25.862v209.271C2152.003 2032.238 2140.427 2043.814 2126.141 2043.814zM2090.926 1834.543c-43.432 0-78.773 35.341-78.773 78.773s35.341 78.773 78.773 78.773h9.353v-157.546H2090.926zM2908.662 2043.814h-35.215c-14.286 0-25.862-11.576-25.862-25.862v-209.271c0-14.286 11.576-25.862 25.862-25.862h35.215c71.954 0 130.498 58.543 130.498 130.497S2980.616 2043.814 2908.662 2043.814zM2899.309 1992.09h9.353c43.432 0 78.773-35.341 78.773-78.773s-35.341-78.773-78.773-78.773h-9.353V1992.09z"/><path fill="#080075" d="M2126.157 1834.552c-9.858 0-19.279-5.674-23.597-15.246-5.859-12.998-.084-28.287 12.889-34.171 7.063-3.233 172.565-81.316 171.311-287.522-.067-11.55 7.526-21.745 18.614-24.987 11.079-3.216 22.983 1.263 29.137 11.045 84.877 134.824 216.056 133.494 333.1 114.451 45.688-7.451 91.713 7.333 133.259 42.666 59.175 50.318 98.439 134.378 98.439 167.893 0 14.286-11.576 25.862-25.862 25.862s-25.862-11.576-25.862-25.862c0-14.531-29.331-85.213-80.221-128.494-30.055-25.567-60.825-35.981-91.435-31.014-109.56 17.839-242.996 22.309-342.723-82.814-31.107 189.116-188.99 262.544-196.44 265.903C2133.322 1833.811 2129.71 1834.552 2126.157 1834.552zM2499.777 2209.846c-69.925 0-133.275-44.021-157.639-109.535-4.984-13.394 1.835-28.278 15.221-33.253 13.377-5.018 28.278 1.827 33.254 15.221 16.871 45.368 60.74 75.844 109.165 75.844 48.407 0 92.268-30.467 109.148-75.818 4.984-13.394 19.876-20.23 33.254-15.221 13.386 4.984 20.205 19.868 15.221 33.254C2633.027 2165.842 2569.685 2209.846 2499.777 2209.846z"/><path fill="#080075" d="M2996.376,1882.21c-1.844,0-3.713-0.202-5.59-0.615c-13.95-3.073-22.764-16.871-19.691-30.821
			c86.662-393.209-91.477-539.231-205.381-591.266c-179.132-81.863-399.919-35.451-470.333,59.057
			c-5.817,7.804-15.507,11.66-25.155,10.035c-106.563-18.42-202.435,23.084-262.897,113.929
			c-75.852,113.972-71.727,270.946,10.498,399.902c7.678,12.047,4.142,28.034-7.897,35.712c-12.064,7.678-28.034,4.134-35.712-7.897
			c-93.236-146.223-97.143-325.355-9.942-456.375c68.385-102.758,179.553-153.741,299.628-138.512
			c91.906-103.962,327.098-152.546,523.303-62.904c128.098,58.535,328.891,220.728,234.4,649.448
			C3018.946,1873.976,3008.246,1882.21,2996.376,1882.21z"/><path fill="#080075" d="M1963.754 1492.645c-7.055 0-14.076-2.871-19.186-8.511l-71.449-78.95c-53.694-59.335-49.106-151.3 10.229-204.994 59.343-53.677 151.292-49.098 204.985 10.237l74.059 81.838c9.581 10.591 8.764 26.94-1.827 36.528-10.599 9.589-26.939 8.755-36.528-1.827l-74.059-81.838c-34.567-38.179-93.733-41.142-131.929-6.583-38.187 34.558-41.133 93.742-6.575 131.937l71.449 78.95c9.58 10.591 8.764 26.94-1.827 36.528C1976.146 1490.44 1969.941 1492.645 1963.754 1492.645zM2989.153 1492.645c-6.188 0-12.401-2.206-17.343-6.684-10.591-9.589-11.407-25.946-1.827-36.528l71.457-78.95c34.559-38.195 31.604-97.378-6.583-131.937-38.178-34.559-97.37-31.595-131.928 6.583l-41.344 45.688c-9.589 10.591-25.938 11.416-36.529 1.827s-11.407-25.938-1.827-36.528l41.344-45.688c26.014-28.741 61.658-45.637 100.375-47.574 38.76-1.768 75.877 11.331 104.61 37.337 28.75 26.014 45.646 61.658 47.574 100.375 1.936 38.717-11.323 75.877-37.337 104.618l-71.458 78.95C3003.229 1489.775 2996.208 1492.645 2989.153 1492.645zM2873.472 2600.699c-1.667 0-3.351-.168-5.051-.505l-248.645-49.241c-12.106-2.391-20.836-13.015-20.836-25.365v-167.691c0-14.286 11.575-25.862 25.862-25.862 14.286 0 25.862 11.576 25.862 25.862v146.451l227.808 45.115c14.009 2.77 23.118 16.374 20.339 30.391C2896.379 2592.171 2885.57 2600.699 2873.472 2600.699zM2216.313 2582.826c-12.097 0-22.907-8.528-25.34-20.845-2.778-14.017 6.331-27.621 20.339-30.391l137.561-27.243v-146.451c0-14.286 11.576-25.862 25.862-25.862s25.862 11.576 25.862 25.862v167.691c0 12.35-8.73 22.974-20.836 25.365l-158.397 31.368C2219.663 2582.657 2217.98 2582.826 2216.313 2582.826z"/><path fill="#080075" d="M2499.794 2789.731c-88.126 0-165.595-25.29-230.25-75.17-11.315-8.722-13.411-24.961-4.681-36.268 8.722-11.315 24.978-13.402 36.268-4.681 55.395 42.725 122.239 64.394 198.663 64.394 218.27 0 290.502-176.236 293.466-183.737 5.253-13.242 20.238-19.801 33.515-14.598 13.268 5.211 19.834 20.137 14.665 33.422C2840.597 2575.258 2754.188 2789.731 2499.794 2789.731zM3354.244 2479.832c-7.518 0-14.977-3.267-20.087-9.555-9.008-11.087-7.324-27.377 3.763-36.377 147.688-119.982 279.07-239.25 342.866-311.254 181.338-204.666 281.604-567.122 134.134-710.272-42.438-41.193-105.309-61.498-181.38-58.577-157.614 5.935-355.797 109.518-481.959 251.903-29.726 33.557-69.513 84.995-115.049 148.749-8.309 11.609-24.439 14.303-36.082 6.011-11.618-8.301-14.312-24.456-6.011-36.082 46.572-65.194 87.52-118.097 118.434-152.975 136.929-154.549 345.383-262.763 518.715-269.296 90.686-3.452 166.538 21.889 219.365 73.158 169.897 164.921 68.848 555.622-131.457 781.679-65.522 73.966-199.236 195.472-348.961 317.097C3365.744 2477.938 3359.969 2479.832 3354.244 2479.832zM3211.859 3107.947c-14.059 0-25.584-11.264-25.845-25.382-.27-14.278 11.087-26.073 25.374-26.333 75.136-1.406 152.807-5.237 224.609-11.087 14.194-1.254 26.712 9.446 27.874 23.682 1.162 14.236-9.446 26.712-23.682 27.874-72.855 5.935-151.636 9.825-227.842 11.239C3212.188 3107.947 3212.019 3107.947 3211.859 3107.947z"/><path fill="#080075" d="M3490.247 3092.086c-13.133 0-24.38-9.968-25.702-23.311-1.406-14.219 8.974-26.881 23.185-28.287 78.496-7.779 144.279-17.738 185.252-28.051 125.396-31.57 246.919-124.234 309.587-236.067 30.063-53.635 60.075-136.18 32.412-224.794-52.027-166.639-272.065-253.915-452.064-250.152-14.143.067-26.064-11.138-26.308-25.416-.244-14.287 11.138-26.056 25.416-26.308 199.303-2.82 442.804 95.821 502.323 286.453 26.249 84.06 13.571 175.865-36.655 265.499-69.285 123.645-203.563 226.074-342.083 260.944-43.365 10.919-111.833 21.35-192.779 29.364C3491.964 3092.044 3491.106 3092.086 3490.247 3092.086zM1528.139 2381.502c-5.977 0-11.988-2.063-16.871-6.263-100.199-86.291-184.309-165.856-230.763-218.295-200.305-226.057-301.354-616.758-131.457-781.679 52.844-51.278 128.83-76.576 219.365-73.158 173.332 6.533 381.786 114.746 518.715 269.296 17.696 19.961 38.692 45.831 62.391 76.887 8.663 11.357 6.482 27.588-4.866 36.251-11.374 8.663-27.588 6.482-36.251-4.866-22.941-30.055-43.12-54.94-59.983-73.966-126.162-142.393-324.345-245.976-481.959-251.911-76.29-2.829-138.95 17.393-181.38 58.577-147.469 143.151-47.203 505.607 134.134 710.272 44.989 50.773 127.29 128.553 225.813 213.396 10.818 9.32 12.039 25.652 2.719 36.478C1542.628 2378.455 1535.405 2381.502 1528.139 2381.502z"/><path fill="#080075" d="M1377.926 3075.039c-1.44.009-2.896-.118-4.361-.362-22.873-3.889-42.783-7.947-59.175-12.081-138.52-34.87-272.798-137.3-342.083-260.944-50.226-89.633-62.904-181.438-36.655-265.499 59.545-190.699 303.054-289.694 502.492-286.453 14.278.253 25.652 12.03 25.407 26.317-.261 14.278-11.685 25.559-26.317 25.407-180.218-3.098-400.163 83.454-452.216 250.152-27.664 88.615 2.349 171.151 32.412 224.794 62.668 111.833 184.192 204.497 309.596 236.067 15.086 3.805 33.658 7.585 55.193 11.239 14.084 2.391 23.564 15.751 21.173 29.827C1401.245 3066.123 1390.301 3075.039 1377.926 3075.039zM3020.015 3654.485h-932.474c-14.286 0-25.862-11.576-25.862-25.862s11.576-25.862 25.862-25.862h932.474c38.97 0 70.675-31.705 70.675-70.675V3310.87c0-14.286 11.575-25.862 25.862-25.862 14.286 0 25.862 11.576 25.862 25.862v221.217C3142.414 3599.579 3087.508 3654.485 3020.015 3654.485z"/></svg>