<svg xmlns="http://www.w3.org/2000/svg" enable-background="new 0 0 5000 5000" viewBox="0 0 5000 5000"><path fill="#fff" d="M1506.508,1484.442c-66.255-93.119-174.241-144.405-304.056-144.405
		c-27.647,0-52.684,1.734-76.542,5.312c-96.351,14.438-169.013,98.936-169.013,196.542v198.486h107.902
		c28.16,0,51.076,22.916,51.076,51.076v46.766c0,2.414-0.999,4.582-2.595,6.146v80.154h428.57
		C1597.808,1751.353,1585.584,1595.575,1506.508,1484.442z"/><path fill="#f2dac9" d="M1506.508,1484.442c-25.294-35.55-56.709-64.951-93.061-87.781
			c60.606,95.932,69.479,214.875,49.983,324.955c-5.161,29.142-12.231,58.07-18.088,86.948
			c-6.13,30.224-22.916,56.694-37.044,84.232c-23.247,45.31,33.855,31.722,62.881,31.722c23.557,0,47.114,0,70.671,0
			C1597.808,1751.353,1585.584,1595.575,1506.508,1484.442z"/><path fill="#ffec9e" d="M1107.254 1846.84c-4.765 0-8.621-3.856-8.621-8.621v-46.766c0-18.656-15.179-33.834-33.834-33.834H956.897v166.9h156.383v-80.154C1111.725 1845.888 1109.604 1846.84 1107.254 1846.84zM2802.12 1838.219v-46.766c0-18.656-15.179-33.834-33.834-33.834h-536.579c-18.656 0-33.834 15.179-33.834 33.834v46.766c0 4.765-3.856 8.621-8.621 8.621-1.016 0-1.959-.256-2.864-.578v78.256h153.23v-69.058c0-4.765 3.856-8.621 8.621-8.621 4.765 0 8.621 3.856 8.621 8.621v69.058h286.276v-69.058c0-4.765 3.856-8.621 8.621-8.621s8.621 3.856 8.621 8.621v69.058h147.13v-78.331C2804.351 1844.906 2802.12 1841.836 2802.12 1838.219z"/><path fill="#fff" d="M3209.995,1484.442c-66.255-93.119-174.241-144.405-304.056-144.405
		c-91.427,0-147.907,23.547-207.713,48.466c-71.802,29.928-145.827,60.799-285.089,55.714
		c85.87,51.522,191.053,101.756,377.063,106.782c4.757,0.135,8.511,4.091,8.385,8.856c-0.126,4.765-4.142,8.587-8.856,8.385
		c-212.007-5.733-321.053-68.822-414.601-127.113l-0.278-0.177c-3.83-2.382-7.619-4.748-11.399-7.114
		c-80.491-50.335-150.012-93.801-269.397-93.801c-129.815,0-237.801,51.286-304.056,144.405
		c-79.076,111.132-91.3,266.911-35.341,440.076h431.731v-78.256c-3.338-1.189-5.756-4.295-5.756-8.043v-46.766
		c0-28.16,22.916-51.076,51.076-51.076h536.579c28.16,0,51.076,22.916,51.076,51.076v46.766c0,4.765-3.856,8.621-8.621,8.621
		c-1.148,0-2.234-0.246-3.235-0.652v78.331h437.831C3301.295,1751.353,3289.071,1595.575,3209.995,1484.442z"/><path fill="#f2dac9" d="M3209.995,1484.442c-25.277-35.526-56.666-64.913-92.985-87.737
			c104.535,163.311,52.248,356.498-21.686,527.813h150.012C3301.295,1751.353,3289.071,1595.575,3209.995,1484.442z"/><path fill="#ffec9e" d="M4043.1,1924.518l0.001-165.09h-107.908c-18.656,0-33.834,15.179-33.834,33.835v44.956
			c0,4.765-3.856,8.621-8.621,8.621c-0.164,0-0.3-0.083-0.462-0.093v77.771H4043.1z"/><path fill="#fff" d="M3935.193,1742.188h107.908l0.002-198.486c0-97.614-72.661-182.112-169.021-196.542
			c-23.799-3.578-48.836-5.312-76.542-5.312c-129.824,0-237.801,51.286-304.064,144.405
			c-78.794,110.739-91.209,265.821-35.916,438.266h434.717v-77.771c-4.537-0.253-8.159-3.927-8.159-8.528v-44.956
			C3884.117,1765.103,3907.033,1742.188,3935.193,1742.188z"/><path fill="#f2dac9" d="M3939.655,1589.072l-0.001,153.116h103.447l0.002-198.486c0-42.317-13.771-82.07-37.106-114.793
				l0,0C3963.519,1471.386,3939.655,1528.998,3939.655,1589.072z"/><path fill="#ffec9e" d="M956.897,1941.76v166.908h107.902c18.656,0,33.834-15.179,33.834-33.834v-46.766
		c0-4.765,3.856-8.621,8.621-8.621c2.351,0,4.471,0.951,6.026,2.475v-80.162H956.897z"/><path fill="#fff" d="M1536.263,1941.76h-422.984v80.162c1.596,1.564,2.595,3.732,2.595,6.146v46.766
		c0,28.16-22.916,51.076-51.076,51.076H956.897v418.137c52.835,90.214,83.1,220.762,83.1,358.71
		c0,103.566-17.09,210.003-48.121,299.704c-10.927,31.57,3.115,57.44,19.885,71.129c5.057,4.121,11.227,7.654,18.042,10.303
		c0.728,0.182,1.406,0.404,2.048,0.757c15.676,5.508,34.846,5.74,54.39-5.849c201.559-119.579,385.582-455.861,329.624-843.54
		c-21.451-148.606,21.526-250.732,71.281-368.981C1503.719,2026.892,1520.846,1986.167,1536.263,1941.76z"/><path fill="#f2dac9" d="M1536.263,1941.76h-143.738c-2.949,7.053-5.901,14.116-8.829,21.072
		c-49.754,118.248-92.731,220.375-71.28,368.982c13.107,90.8,9.971,183.015-4.863,273.39
		c-15.68,95.531-26.738,192.727-58.856,284.574c-33.003,94.378-89.578,179.133-147.52,259.823
		c-21.183,29.5-38.556,66.71-70.094,86.797c-12.973,8.262-31.432,10.026-43.006-0.104c-0.942,18.264,8.327,36.724,23.538,46.877
		c66.376,44.303,148.545-55.174,188.076-96.958c54.436-57.539,98.433-124.751,132.897-195.921
		c82.896-171.187,110.395-367.147,83.276-555.031c-21.451-148.606,21.526-250.732,71.281-368.981
		C1503.719,2026.892,1520.846,1986.167,1536.263,1941.76z"/><path fill="#ffa1b4" d="M3904.954,3295.435c-206.366-122.432-394.919-465.736-337.891-860.823
		c4.825-33.423,6.136-64.411,4.878-93.855c-41.947-50.319-124.662-131.882-220.286-131.882c-95.52,0-178.219,81.527-220.182,131.848
		c-1.127,28.919,0.206,59.323,4.934,92.079c57.179,396.114-132.013,739.519-339.052,861.513
		c-12.939,7.627-26.915,11.39-40.788,11.39c-17.881,0-35.594-6.255-50.697-18.58c-27.436-22.394-37.749-58.434-26.283-91.814
		c30.08-87.596,46.648-191.49,46.648-292.556c0-252.702-101.495-458.294-226.242-458.294
		c-124.748,0-226.234,205.592-226.234,458.294c0,101.066,16.568,204.96,46.648,292.556c11.466,33.38,1.153,69.42-26.283,91.814
		c-26.83,21.888-61.877,24.641-91.485,7.189c-207.04-121.994-396.232-465.399-339.061-861.513
		c4.73-32.757,6.065-63.162,4.939-92.083c-41.963-50.321-124.67-131.844-220.262-131.844c-95.609,0-178.307,81.529-220.258,131.85
		c-1.127,28.919,0.206,59.322,4.934,92.078c57.028,395.087-131.533,738.399-337.899,860.831
		c-13.352,7.922-28.026,11.837-42.573,11.837c-5.319,0-10.593-0.678-15.808-1.721c2.816,196.87,163.615,356.213,361.149,356.213
		h2184.916c196.432,0,356.434-157.599,360.984-352.949C3930.421,3306.384,3917.145,3302.66,3904.954,3295.435z"/><path fill="#eb7f95" d="M3904.954,3295.435c-23.155-13.737-46.055-30.398-68.44-49.458
			c-24.827,175.212-175.281,310.537-357.248,310.537H1294.349c-73.038,0-140.982-21.888-197.846-59.3
			c64.667,97.892,175.415,162.748,301.295,162.748h2184.916c196.432,0,356.434-157.599,360.984-352.949
			C3930.421,3306.384,3917.145,3302.66,3904.954,3295.435z"/><path fill="#fff" d="M3351.655 2208.875c-95.52 0-178.219 81.527-220.182 131.848-1.127 28.919.206 59.323 4.934 92.079 1.621 11.223 2.982 22.39 4.212 33.525 71.642-72.473 203.785-188.487 280.001-188.487 57.032 0 109.388 29.056 151.325 63.149-.003-.077-.001-.156-.004-.233C3529.995 2290.438 3447.279 2208.875 3351.655 2208.875zM1036.648 3303.75c1.648 115.179 57.605 217.218 143.122 282.313-40.85-53.592-86.774-129.054-89.406-290.064-12.082 6.212-25.018 9.472-37.908 9.472C1047.137 3305.47 1041.864 3304.793 1036.648 3303.75zM1648.252 2208.875c-95.609 0-178.307 81.529-220.258 131.85-1.127 28.919.206 59.322 4.934 92.078 1.62 11.218 2.981 22.38 4.209 33.51 76.098-75.521 206.859-188.472 280.08-188.472 57.017 0 109.365 29.044 151.301 63.13-.003-.083-.001-.168-.004-.251C1826.552 2290.398 1743.845 2208.875 1648.252 2208.875z"/><path fill="#ffec9e" d="M2189.251,2019.447c4.765,0,8.621,3.856,8.621,8.621v46.766c0,18.656,15.179,33.834,33.834,33.834
		h536.579c18.656,0,33.834-15.179,33.834-33.834v-46.766c0-3.617,2.231-6.688,5.386-7.968v-78.34h-147.13v69.067
		c0,4.765-3.856,8.621-8.621,8.621s-8.621-3.856-8.621-8.621v-69.067h-286.276v69.067c0,4.765-3.856,8.621-8.621,8.621
		c-4.765,0-8.621-3.856-8.621-8.621v-69.067h-153.23v78.265C2187.292,2019.703,2188.235,2019.447,2189.251,2019.447z"/><path fill="#fff" d="M3239.75,1941.76h-432.245v78.34c1.001-0.406,2.087-0.652,3.235-0.652
		c4.765,0,8.621,3.856,8.621,8.621v46.766c0,28.16-22.916,51.076-51.076,51.076h-536.579c-28.16,0-51.076-22.916-51.076-51.076
		v-46.766c0-3.748,2.418-6.854,5.756-8.043v-78.265h-426.145c15.418,44.399,32.544,85.124,49.119,124.503
		c49.763,118.257,92.74,220.383,71.281,368.998c-56.102,388.689,128.536,725.055,330.752,844.205
		c27.756,16.332,55.302,7.779,71.828-5.699c21.779-17.772,29.979-46.37,20.887-72.846c-30.694-89.355-47.591-195.245-47.591-298.163
		c0-262.216,109.223-475.535,243.476-475.535c134.26,0,243.484,213.32,243.484,475.535c0,102.918-16.896,208.808-47.591,298.163
		c-9.092,26.477-0.892,55.075,20.887,72.846c16.509,13.478,44.063,22.031,71.828,5.699
		c202.216-119.149,386.854-455.516,330.752-844.205c-21.459-148.615,21.518-250.741,71.281-368.998
		C3207.206,2026.884,3224.333,1986.159,3239.75,1941.76z"/><path fill="#f2dac9" d="M2395.404 2318.619c-64.501 18.905-121.624 65.514-158.303 129.003-59.923 103.725-84.033 232.893-84.033 351.687 0 102.918 16.896 208.807 47.591 298.163 9.092 26.477.892 55.075-20.887 72.847-16.526 13.478-44.072 22.031-71.828 5.699-16.473-9.707-32.805-20.997-48.925-33.498 46.844 58.733 98.967 105.478 152.373 136.946 27.756 16.332 55.302 7.779 71.828-5.699 21.779-17.772 29.979-46.37 20.887-72.846-30.694-89.355-47.591-195.245-47.591-298.163 0-137.937 25.99-301.774 119.878-409.592 30.782-35.349 72.094-64.73 120.545-65.913 66.984-1.635 127.405 87.061 157.522 138.881 20.212 34.776 36.319 71.703 50.811 109.17 6.925 17.901 6.119 71.636 28.752 71.092 14.474-71.226 3.545-157.617-19.413-226.015-24.332-72.494-71.176-139.048-137.073-177.842C2517.184 2307.005 2453.32 2301.644 2395.404 2318.619zM3239.75 1941.76h-143.743c-2.948 7.047-5.898 14.104-8.824 21.055-49.762 118.257-92.74 220.383-71.281 368.997 53.963 373.875-114.824 699.235-307.734 829.538-3.831 13.467-7.872 26.727-12.284 39.569-9.092 26.477-.892 55.075 20.887 72.846 16.509 13.478 44.063 22.031 71.828 5.699 202.216-119.149 386.854-455.516 330.752-844.205-21.459-148.615 21.518-250.741 71.281-368.998C3207.206 2026.884 3224.333 1986.159 3239.75 1941.76z"/><path fill="#ffec9e" d="M3935.193,2110.469h107.905l0.002-168.71h-150.824v77.78c0.162-0.01,0.298-0.093,0.462-0.093
		c4.765,0,8.621,3.856,8.621,8.621v48.567C3901.359,2095.291,3916.538,2110.469,3935.193,2110.469z"/><path fill="#fff" d="M3463.14,1941.76c0.19,0.553,0.342,1.096,0.533,1.65c15.431,44.467,32.589,85.247,49.182,124.68
		c49.754,118.248,92.731,220.375,71.272,368.98c-55.959,387.687,128.064,723.961,329.624,843.531
		c29.078,17.258,57.533,8.621,74.471-5.203c16.778-13.68,30.821-39.559,19.893-71.129c-31.031-89.701-48.121-196.138-48.121-299.704
		c0-137.956,30.265-268.504,83.1-358.71l0.003-418.146h-107.905c-28.16,0-51.076-22.916-51.076-51.076v-48.567
		c0-4.601,3.622-8.276,8.159-8.528v-77.78H3463.14z"/><path fill="#f2dac9" d="M4043.098,2127.711h-103.449l-0.002,283.612c0,19.141-4.406,37.969-13.036,55.054
			c-44.748,88.585-70.065,208.564-70.065,334.741c0,103.566,17.09,210.003,48.121,299.704c10.927,31.57-3.115,57.449-19.893,71.129
			c-16.938,13.823-45.393,22.461-74.471,5.203c-16.036-9.513-31.936-20.547-47.639-32.72
			c46.486,58.298,98.154,104.767,151.087,136.168c29.078,17.258,57.533,8.621,74.471-5.203
			c16.778-13.68,30.821-39.559,19.893-71.129c-31.031-89.701-48.121-196.138-48.121-299.704c0-137.956,30.265-268.504,83.1-358.71
			L4043.098,2127.711z"/><path fill="#fff" d="M1107.257,1819.77v-18.792c0-27.71-22.463-50.174-50.174-50.174h-108.81v68.966H1107.257z"/><path fill="#ffec9e" d="M2775.106,2117.286H2225.95c-17.894,0-32.4-14.506-32.4-32.4v-303.488
		c0-17.894,14.506-32.4,32.4-32.4h549.156c17.894,0,32.4,14.506,32.4,32.4v303.488
		C2807.506,2102.78,2793,2117.286,2775.106,2117.286z"/><path fill="#ffb987" d="M2801.809,1779.039l-23.754,23.754c-47.379,47.38-73.997,111.64-73.997,178.645v0
		c0,17.894-14.506,32.399-32.399,32.399h-203.763c-93.1,0-182.387,36.984-248.219,102.816h0c0.188,0.455,0.074,0.178,0.262,0.633
		h555.168c17.894,0,32.399-14.506,32.399-32.399v-303.488C2804.759,1780.261,2804.555,1780.176,2801.809,1779.039z"/><path fill="#fff" d="M2225.95 1748.998c-17.894 0-32.399 14.506-32.399 32.399v301.438c.23-.23.46-.46.69-.69 43.715-43.717 68.276-103.008 68.276-164.832v-66.949c0-17.894 14.506-32.4 32.4-32.4h313.842c60.303 0 118.137-23.955 160.778-66.596l2.369-2.369H2225.95zM4054.968 1794.018c-3.975-14.518-4.939-30.009-5.135-45.02h-124.698c-17.894 0-32.399 14.506-32.399 32.4v303.488c0 17.894 14.505 32.399 32.399 32.399h36.566v-266.922c0-17.894 14.505-32.4 32.399-32.4h61.65C4055.449 1809.88 4055.194 1801.818 4054.968 1794.018z"/><path fill="#080075" d="M2810.74,1864.081c-14.286,0-25.862-11.576-25.862-25.862v-46.766
			c0-9.151-7.442-16.593-16.593-16.593h-536.579c-9.151,0-16.593,7.442-16.593,16.593v46.766c0,14.286-11.575,25.862-25.862,25.862
			c-14.286,0-25.862-11.576-25.862-25.862v-46.766c0-37.673,30.644-68.317,68.317-68.317h536.579
			c37.673,0,68.317,30.644,68.317,68.317v46.766C2836.603,1852.505,2825.027,1864.081,2810.74,1864.081z"/><path fill="#080075" d="M2768.285,2143.151h-536.579c-37.673,0-68.317-30.644-68.317-68.317v-236.614
			c0-14.286,11.576-25.862,25.862-25.862c14.287,0,25.862,11.576,25.862,25.862v236.614c0,9.151,7.442,16.593,16.593,16.593h536.579
			c9.151,0,16.593-7.442,16.593-16.593v-236.614c0-14.286,11.576-25.862,25.862-25.862s25.862,11.576,25.862,25.862v236.614
			C2836.603,2112.507,2805.959,2143.151,2768.285,2143.151z"/><path fill="#080075" d="M2348.237 2036.688c-14.286 0-25.862-11.576-25.862-25.862V1855.46c0-14.286 11.576-25.862 25.862-25.862 14.287 0 25.862 11.576 25.862 25.862v155.366C2374.099 2025.113 2362.524 2036.688 2348.237 2036.688zM2651.754 2036.688c-14.286 0-25.862-11.576-25.862-25.862V1855.46c0-14.286 11.576-25.862 25.862-25.862s25.862 11.576 25.862 25.862v155.366C2677.616 2025.113 2666.041 2036.688 2651.754 2036.688zM1064.798 2143.151H948.276c-14.286 0-25.862-11.576-25.862-25.862s11.576-25.862 25.862-25.862h116.522c9.151 0 16.593-7.442 16.593-16.593v-262.872c0-14.286 11.576-25.862 25.862-25.862 14.286 0 25.862 11.576 25.862 25.862v262.872C1133.116 2112.507 1102.472 2143.151 1064.798 2143.151z"/><path fill="#080075" d="M1107.254 1864.081c-14.286 0-25.862-11.576-25.862-25.862v-46.766c0-9.151-7.442-16.593-16.593-16.593H948.276c-14.286 0-25.862-11.576-25.862-25.862 0-14.286 11.576-25.862 25.862-25.862h116.522c37.673 0 68.317 30.644 68.317 68.317v46.766C1133.116 1852.505 1121.54 1864.081 1107.254 1864.081zM948.276 2036.688c-14.286 0-25.862-11.576-25.862-25.862V1855.46c0-14.286 11.576-25.862 25.862-25.862s25.862 11.576 25.862 25.862v155.366C974.138 2025.113 962.562 2036.688 948.276 2036.688zM4051.724 2144.952h-116.531c-37.674 0-68.317-30.644-68.317-68.317v-141.686c0-14.286 11.576-25.862 25.862-25.862s25.862 11.576 25.862 25.862v141.686c0 9.151 7.442 16.593 16.593 16.593h116.531c14.286 0 25.862 11.576 25.862 25.862S4066.01 2144.952 4051.724 2144.952z"/><path fill="#080075" d="M3892.738 1960.811c-14.286 0-25.862-11.576-25.862-25.862v-141.686c0-37.673 30.644-68.317 68.317-68.317h116.531c14.286 0 25.862 11.576 25.862 25.862 0 14.286-11.576 25.862-25.862 25.862h-116.531c-9.151 0-16.593 7.442-16.593 16.593v141.686C3918.6 1949.236 3907.024 1960.811 3892.738 1960.811zM4051.724 2038.498c-14.286 0-25.862-11.576-25.862-25.862v-155.374c0-14.286 11.576-25.862 25.862-25.862s25.862 11.576 25.862 25.862v155.374C4077.586 2026.923 4066.01 2038.498 4051.724 2038.498z"/><path fill="#080075" d="M4051.724,1959.001H948.276c-14.286,0-25.862-11.576-25.862-25.862
			c0-14.286,11.576-25.862,25.862-25.862h3103.448c14.286,0,25.862,11.576,25.862,25.862
			C4077.586,1947.426,4066.01,1959.001,4051.724,1959.001z"/><path fill="#080075" d="M2756.499 3323.032c-21.712 0-43.213-7.594-61.532-22.553-33.085-26.999-45.528-70.481-31.688-110.764 29.474-85.836 45.713-187.753 45.713-286.958 0-239.073-95.711-441.053-209.001-441.053-113.29 0-208.993 201.98-208.993 441.053 0 99.205 16.24 201.121 45.713 286.958 13.84 40.283 1.398 83.765-31.688 110.764-32.555 26.586-75.136 29.895-111.143 8.696-211.872-124.848-405.619-475.283-347.362-878.839 20.078-139.135-21.173-237.178-68.94-350.695-16.804-39.93-34.18-81.223-49.965-126.726-66.221-190.859-54.039-364.334 34.281-488.466 72.914-102.463 190.876-158.894 332.157-158.894 129.277 0 206.223 48.113 287.682 99.045 2.004 1.254 4.016 2.509 6.036 3.771 149.204 9.909 224.466-21.383 297.187-51.69 60.303-25.138 122.66-51.126 220.981-51.126 141.282 0 259.244 56.43 332.157 158.894 88.32 124.133 100.502 297.607 34.281 488.466-15.785 45.503-33.161 86.796-49.965 126.726-47.767 113.517-89.019 211.561-68.94 350.695 58.257 403.556-135.49 753.99-347.362 878.839C2790.367 3318.444 2773.37 3323.032 2756.499 3323.032zM2499.992 2409.979c146.198 0 260.725 216.452 260.725 492.777 0 104.778-17.233 212.655-48.525 303.761-8.158 23.757 2.652 43.415 15.482 53.896 5.843 4.748 26.839 19.144 52.17 4.193 197.384-116.304 377.467-445.633 322.443-826.879-22.141-153.354 23.808-262.544 72.451-378.149 16.484-39.18 33.531-79.691 48.778-123.619 60.572-174.603 50.781-331.408-27.563-441.524-62.938-88.446-165.931-137.156-290.014-137.156-87.975 0-142.915 22.899-201.079 47.144-58.501 24.38-123.047 51.286-226.007 56.59 74.648 37.69 168.886 68.89 311.81 72.754 14.278.387 25.542 12.274 25.155 26.552-.387 14.295-12.586 25.753-26.552 25.155-216.435-5.851-327.612-70.127-422.953-129.529-.295-.168-.581-.345-.867-.53-3.729-2.332-7.442-4.647-11.129-6.954-78.251-48.929-145.828-91.182-260.262-91.182-124.082 0-227.076 48.71-290.014 137.156-78.344 110.116-88.135 266.921-27.563 441.524 15.246 43.928 32.294 84.439 48.778 123.619 48.643 115.605 94.592 224.795 72.451 378.149-55.024 381.247 125.059 710.575 322.442 826.879 25.332 14.968 46.345.564 52.17-4.193 12.83-10.481 23.639-30.139 15.482-53.896-31.292-91.107-48.525-198.983-48.525-303.761C2239.275 2626.431 2353.793 2409.979 2499.992 2409.979zM1052.431 3322.746c-22.234 0-44.232-7.568-62.458-22.436-32.429-26.443-44.467-69.277-30.686-109.123 29.81-86.173 46.227-188.603 46.227-288.431 0-132.973-28.969-258.057-79.48-343.161-2.366-3.999-3.62-8.553-3.62-13.2V1541.891c0-114.544 85.289-213.699 198.385-230.646 25.567-3.83 52.271-5.691 81.652-5.691 141.29 0 259.252 56.43 332.157 158.894 88.32 124.133 100.502 297.607 34.281 488.466-15.785 45.511-33.161 86.805-49.965 126.734-47.759 113.517-89.01 211.552-68.932 350.687 58.097 402.504-134.993 752.837-346.166 878.123C1087.705 3318.023 1069.993 3322.746 1052.431 3322.746zM974.138 2539.416c52.877 92.605 83.1 224.483 83.1 363.34 0 105.435-17.427 213.875-49.072 305.336-6.811 19.691-1.389 39.18 14.497 52.137 12.434 10.136 33.338 16.45 54.78 3.746 196.752-116.733 376.246-445.978 321.356-826.248-22.133-153.345 23.808-262.535 72.451-378.14 16.484-39.172 33.531-79.691 48.778-123.628 60.572-174.603 50.79-331.408-27.563-441.524-62.938-88.446-165.931-137.156-290.014-137.156-26.788 0-50.992 1.675-73.991 5.119-87.975 13.184-154.322 90.349-154.322 179.494V2539.416zM3947.569 3324.547c-17.57 0-35.282-4.715-51.413-14.286-211.173-125.278-404.255-475.611-346.149-878.115 20.078-139.126-21.173-237.17-68.94-350.687-16.803-39.938-34.18-81.231-49.965-126.743-66.221-190.859-54.039-364.325 34.281-488.458 72.906-102.463 190.867-158.893 332.157-158.893 29.44 0 56.152 1.86 81.661 5.691 113.096 16.938 198.385 116.093 198.385 230.646l-.008 1004.504c0 4.647-1.254 9.202-3.62 13.2-50.512 85.096-79.48 210.18-79.48 343.161 0 99.828 16.417 202.258 46.227 288.431 13.781 39.845 1.743 82.679-30.686 109.123C3991.792 3316.987 3969.794 3324.547 3947.569 3324.547zM3797.54 1359.089c-124.082 0-227.084 48.71-290.014 137.156-78.352 110.116-88.135 266.913-27.563 441.516 15.246 43.937 32.294 84.456 48.778 123.636 48.643 115.605 94.592 224.794 72.451 378.14-54.89 380.27 124.604 709.515 321.356 826.239 21.442 12.704 42.354 6.398 54.78-3.738 15.886-12.956 21.308-32.445 14.497-52.136-31.646-91.46-49.072-199.901-49.072-305.336 0-138.865 30.223-270.743 83.101-363.34l.008-997.525c0-89.153-66.347-166.319-154.331-179.494C3848.582 1360.764 3824.379 1359.089 3797.54 1359.089zM4051.716 2548.205h.168H4051.716z"/><path fill="#080075" d="M1877.13 2363.399c-7.459 0-14.85-3.208-19.961-9.404-39.416-47.759-118.964-127.879-208.917-127.879-89.962 0-169.493 80.112-208.892 127.871-9.1 11.003-25.407 12.577-36.411 3.494-11.02-9.092-12.578-25.391-3.494-36.411 45.2-54.78 137.62-146.678 248.796-146.678 111.16 0 203.605 91.906 248.805 146.687 9.092 11.011 7.535 27.318-3.485 36.402C1888.756 2361.463 1882.922 2363.399 1877.13 2363.399zM3580.524 2363.399c-7.459 0-14.851-3.208-19.969-9.404-39.399-47.759-118.938-127.879-208.9-127.879-89.877 0-169.417 80.12-208.833 127.879-9.084 11.011-25.391 12.594-36.402 3.485-11.02-9.084-12.578-25.391-3.485-36.402 45.208-54.78 137.628-146.687 248.72-146.687 111.177 0 203.605 91.906 248.805 146.687 9.084 11.02 7.526 27.318-3.494 36.411C3592.15 2361.463 3586.316 2363.399 3580.524 2363.399zM3582.713 3694.445H1397.798c-218.295 0-395.895-177.591-395.895-395.886v-6.457c0-14.286 11.576-25.862 25.862-25.862 14.286 0 25.862 11.576 25.862 25.862v6.457c0 189.773 154.398 344.162 344.171 344.162h2184.916c189.773 0 344.171-154.389 344.171-344.162 0-14.287 11.576-25.862 25.862-25.862 14.287 0 25.862 11.575 25.862 25.862C3978.608 3516.854 3801.009 3694.445 3582.713 3694.445z"/></svg>