<svg xmlns="http://www.w3.org/2000/svg" enable-background="new 0 0 5000 5000" viewBox="0 0 5000 5000"><path fill="#ffa1b4" d="M1610.015,3887.159c66.676,149.616,215.694,246.296,379.63,246.296h982.447
		c182.567,0,341.948-116.977,396.594-291.091c141.964-452.317,473.119-1517.991,482.043-1644.169
		c4.773-67.509-22.646-131.095-73.343-170.099c-31.52-24.237-62.702-35.047-101.125-35.047
		c-108.811,0-186.498,153.438-195.91,232.27c-2.963,24.793-5.775,53.071-8.882,84.186
		c-26.375,264.716-70.531,707.772-372.356,984.013c-295.057,270.07-415.309,164.66-503.106,87.688
		c-34.197-29.979-63.721-55.866-97.118-56.279c-50.259-0.968-89.818,13.057-127.576,26.308
		c-106.024,37.16-189.756,66.55-426.076-269.295c-0.184-0.261-0.219-0.567-0.37-0.841c-31.015-36.685-59.755-78.996-85.381-126.007
		c-0.4-0.348-0.865-0.591-1.205-1.023c-73.453-92.967-137.864-271.03-200.153-443.233
		c-88.27-244.031-179.544-496.38-296.101-517.932c-19.674-3.62-41.293-2.576-64.293,3.14
		c-104.534,25.946-170.545,132.316-150.281,242.145C1208.858,2570.997,1399.229,3414.175,1610.015,3887.159z"/><path fill="#eb7f95" d="M3792.592,2041.464L3792.592,2041.464c-27.522,32.364-46.601,70.895-55.915,112.346
			c-58.81,261.732-342.799,1175.237-471.439,1585.105c-54.646,174.115-214.027,291.092-396.594,291.092h-982.447
			c-86.75,0-169.174-27.286-237.578-74.948c76.726,110.214,203.528,178.396,341.027,178.396h982.447
			c182.567,0,341.948-116.977,396.594-291.091c141.964-452.317,473.119-1517.991,482.043-1644.169
			C3854.995,2137.853,3833.4,2080.784,3792.592,2041.464z"/><path fill="#fff" d="M1678.981 3956.125c-210.786-472.985-401.157-1316.162-462.562-1648.968-20.264-109.83 45.747-216.199 150.281-242.146 23-5.716 44.619-6.76 64.293-3.14 11.983 2.216 23.685 6.995 35.157 13.83-32.636-45.755-67.1-75.95-104.123-82.795-19.674-3.62-41.293-2.576-64.293 3.14-104.534 25.946-170.545 132.316-150.281 242.145 61.406 332.806 251.776 1175.983 462.562 1648.968 27.932 62.677 70.448 115.89 122.324 156.772C1711.314 4017.288 1693.184 3987.996 1678.981 3956.125zM3758.679 2015.434c-25.424-15.276-51.583-22.385-82.417-22.385-108.811 0-186.498 153.438-195.91 232.27-2.963 24.793-5.775 53.071-8.882 84.186-26.375 264.716-70.531 707.772-372.356 984.013-295.057 270.07-415.309 164.66-503.106 87.688-34.197-29.979-63.721-55.866-97.118-56.279-50.259-.968-89.818 13.057-127.576 26.308-70.695 24.777-131.54 45.938-234.255-42.162 147.149 165.656 218.023 140.988 303.22 111.127 37.758-13.251 77.317-27.276 127.576-26.308 33.397.412 62.921 26.3 97.117 56.279 87.798 76.972 208.05 182.381 503.106-87.689 301.825-276.241 345.981-719.297 372.357-984.013 3.106-31.115 5.918-59.394 8.882-84.186 7.177-60.108 54.064-163.533 124.164-209.285 25.577-16.694 50.297-34.665 71.895-56.262L3758.679 2015.434z"/><path fill="#ffec9e" d="M3543.39,1274.341c-57.019-121.304-170.898-203.041-320.658-230.132
		c-105.427-19.077-175.402-3.721-249.503,12.527c-48.434,10.62-96.971,20.311-146.611,22.883
		c-43.454,2.251-86.918-1.573-129.915-7.72c-26.485-3.786-53.661-5.459-79.206-13.985c-27.542-9.193-48.005-28.258-69.338-47.181
		c-23.001-20.401-46.557-40.25-71.719-57.956c-56.269-39.596-119.656-65.254-187.319-77.496
		c-149.734-27.091-285.047,9.547-380.969,103.179c-118.156,115.335-164.256,300.285-129.815,520.769
		c8.494,54.384,19.742,104.863,30.619,153.682c32.572,146.122,60.698,272.326,5.236,438.367
		c-145.592,435.884-2.989,861.749,205.112,1041.15c29.095,25.088,63.216,20.861,85.441,8.57
		c29.28-16.206,44.939-47.969,39.904-80.92c-16.677-108.979-14.084-234.089,7.299-352.278
		c51.337-283.675,204.834-497.365,350.99-497.365c8.797,0,17.544,0.775,26.258,2.349c75.515,13.664,135.616,83.934,169.249,197.863
		c33.035,111.909,36.806,253.233,10.624,397.949c-21.383,118.189-62.795,236.278-116.598,332.511
		c-16.273,29.095-12.729,64.327,9.016,89.768c16.509,19.321,46.976,35.232,83.016,21.914
		c257.771-95.105,540.57-443.991,556.944-903.261c6.238-174.948,76.803-283.287,158.506-408.742
		c27.302-41.908,55.521-85.247,82.536-133.2C3592.008,1613.15,3613.635,1423.772,3543.39,1274.341z"/><path fill="#ffb987" d="M2529.196 2212.784c10.861 1.965 21.361 5.235 31.551 9.504-34.268-63.753-80.6-103.109-134.999-112.952-8.713-1.574-17.46-2.349-26.258-2.349-146.156 0-299.653 213.69-350.99 497.365-15.061 83.244-20.977 168.413-17.008 252.93 1.716 36.538 11.2 73.016 18.423 108.759 5.827 28.834 21.225 56.514 24.182 85.574 1.92 18.867-3.629 39.61-18.683 51.144-9.346 7.16-22.532 11.414-26.181 22.608 20.148 18.57 51.758 23.476 76.587 11.885 66.19-30.898 31.088-127.924 28.842-182.877-3.368-82.422 2.599-165.395 17.285-246.575 51.337-283.675 204.834-497.365 350.99-497.365C2511.736 2210.435 2520.483 2211.21 2529.196 2212.784zM3543.39 1274.341c-29.833-63.467-75.356-115.972-133.313-155.616 11.157 16.489 21.238 33.816 29.865 52.168 70.245 149.431 48.618 338.808-60.9 533.245-27.015 47.953-55.235 91.292-82.536 133.2-81.703 125.455-152.268 233.794-158.506 408.743-6.149 172.449-57.671 341.426-132.521 495.997-45.573 94.113-96.79 186.109-158.746 270.516-63.151 86.036-130.897 149.184-228.483 195.622-5.878 2.797-12.055 5.85-15.59 11.317-29.989 46.378 91.594 28.167 108.816 23.234 53.202-15.239 99.204-53.385 142.063-86.797 72.341-56.396 134.897-125.11 187.506-200.09 124.19-177.002 192.708-390.625 200.403-606.352 6.238-174.948 76.803-283.287 158.506-408.742 27.302-41.908 55.521-85.247 82.536-133.2C3592.008 1613.15 3613.635 1423.772 3543.39 1274.341z"/><path fill="#fff" d="M1895.099,2169.796c55.462-166.041,27.335-292.245-5.236-438.367
			c-10.877-48.82-22.124-99.298-30.619-153.682c-34.441-220.484,11.66-405.433,129.815-520.769
			c95.922-93.632,231.235-130.27,380.969-103.179c67.663,12.242,131.05,37.9,187.319,77.496
			c25.162,17.707,48.718,37.555,71.719,57.956c21.334,18.924,41.796,37.988,69.339,47.181c25.544,8.526,52.721,10.199,79.206,13.985
			c42.996,6.146,86.46,9.971,129.914,7.719c49.639-2.571,98.176-12.262,146.611-22.882c74.101-16.248,144.077-31.604,249.503-12.527
			c80.739,14.605,150.92,45.222,207.513,89.23c-63.189-81.621-158.655-136.882-276.479-158.196
			c-105.427-19.077-175.402-3.721-249.503,12.527c-48.435,10.62-96.971,20.311-146.611,22.882
			c-43.454,2.252-86.918-1.573-129.914-7.719c-26.485-3.786-53.662-5.459-79.206-13.985c-27.543-9.193-48.005-28.257-69.339-47.181
			c-23.001-20.402-46.556-40.25-71.718-57.956c-56.269-39.596-119.656-65.254-187.319-77.496
			c-149.734-27.091-285.047,9.547-380.969,103.179c-118.156,115.335-164.256,300.284-129.815,520.769
			c8.494,54.385,19.742,104.863,30.619,153.682c32.572,146.122,60.698,272.326,5.236,438.367
			c-145.592,435.884-2.989,861.749,205.112,1041.15c1.835,1.582,3.736,2.72,5.607,4.075
			C1865.289,2941.416,1764.868,2559.69,1895.099,2169.796z"/><path fill="#080075" d="M2657.606,3292.222c-31.048,0-60.623-13.537-82.334-38.936
			c-31.225-36.537-36.293-87.175-12.897-129.007c51.993-92.992,92.041-207.284,112.759-321.82
			c25.248-139.522,21.779-275.205-9.757-382.055c-29.751-100.78-80.297-162.463-142.317-173.685
			c-132.703-23.892-287.008,189.967-337.175,467.218c-20.727,114.536-23.26,235.613-7.147,340.921
			c7.24,47.38-15.246,93.034-57.297,116.303c-41.319,22.882-89.086,18.05-124.655-12.611
			c-216.586-186.726-365.647-628.064-215.298-1078.192c52.431-156.966,25.264-278.834-6.188-419.947
			c-10.995-49.35-22.368-100.384-31.031-155.863c-36.209-231.816,13.436-427.414,139.8-550.764
			c104.105-101.655,250.135-141.56,411.192-112.439c147.419,26.679,225.443,97.597,308.038,172.683
			c2.323,2.113,4.656,4.235,6.979,6.348c171.302,43.112,264.943,22.562,355.561,2.677c74.151-16.265,150.82-33.077,263.032-12.779
			c161.04,29.137,283.826,117.709,345.729,249.402c75.12,159.811,53.08,360.402-62.062,564.832
			c-27.554,48.921-56.094,92.731-83.681,135.094c-78.908,121.153-147.048,225.78-152.95,391.164
			c-16.913,474.273-311.17,835.39-579.464,934.377C2683.552,3289.899,2670.453,3292.222,2657.606,3292.222z M2502.223,2193.127
			c10.035,0,20.053,0.884,30.046,2.694c82.25,14.884,147.141,89.448,182.71,209.944c33.784,114.443,37.707,258.595,11.054,405.905
			c-21.712,120.016-63.805,239.999-118.518,337.849c-15.423,27.58-6.457,54.325,7.072,70.161
			c16.5,19.287,40.435,25.635,63.948,16.938c252.517-93.161,529.575-435.943,545.679-887.695
			c6.407-179.738,81.644-295.25,161.293-417.548c27.15-41.681,55.218-84.776,81.955-132.257
			c106.706-189.436,128.123-373.198,60.328-517.443c-54.586-116.118-164.012-194.429-308.131-220.501
			c-101.983-18.462-170.36-3.477-242.735,12.409c-75.246,16.509-158.59,34.803-286.68,15.692
			c41.698,32.875,89.499,64.613,150.525,92.841c12.956,5.994,18.605,21.366,12.611,34.331
			c-6.002,12.973-21.358,18.605-34.331,12.611c-106.95-49.468-177.271-110.343-238.248-165.586
			c-0.337-0.286-0.665-0.589-0.985-0.892c-3.805-3.452-7.577-6.878-11.315-10.271c-80.289-72.99-149.633-136.028-282.454-160.064
			c-144.11-26.064-274.044,8.915-365.857,98.549c-114.047,111.336-158.371,290.957-124.823,505.775
			c8.41,53.837,19.599,104.037,30.417,152.588c31.755,142.452,61.742,276.999,4.765,447.586
			c-143.218,428.761-3.839,846.89,200.01,1022.629c19.001,16.4,43.617,18.841,65.834,6.541
			c18.218-10.085,35.99-31.991,31.208-63.232c-16.955-110.806-14.328-237.936,7.383-357.952
			C2188.612,2408.391,2345.939,2193.127,2502.223,2193.127z"/><path fill="#080075" d="M2972.093 4167.938h-982.447c-177.541 0-338.918-104.703-411.124-266.745-192.113-431.077-397.638-1291.748-464.979-1656.747-23.564-127.719 53.686-251.532 175.882-281.865 27.798-6.912 54.325-8.132 78.866-3.586 135.995 25.155 226.478 275.29 322.266 540.106 61.355 169.619 124.798 345.013 194.774 433.594 8.856 11.205 6.954 27.47-4.26 36.318-11.188 8.865-27.47 6.954-36.318-4.26-75.187-95.156-137.19-266.568-202.839-448.057-82.578-228.305-176.185-487.078-283.026-506.836-17.233-3.199-36.402-2.197-57.003 2.913-95.703 23.766-156.09 121.405-137.476 222.294 64.857 351.537 273.345 1223.187 461.358 1645.07 63.906 143.412 206.737 236.075 363.879 236.075h982.447c174.998 0 327.763-112.128 380.144-279.01 299.678-954.817 475.106-1552.659 481.294-1640.229 4.369-61.717-20.55-119.747-66.659-155.214-28.295-21.762-56.245-31.469-90.61-31.469-94.828 0-169.653 140.549-178.795 217.075-2.947 24.692-5.75 52.861-8.84 83.85-26.62 267.174-71.18 714.33-377.871 995.025-306.472 280.518-433.408 169.206-526.123 87.933-31.62-27.723-58.93-51.665-85.954-52.002-47.565-.69-85.306 12.577-121.658 25.332-125.286 43.971-213.833 54.124-445.885-275.635-8.225-11.685-5.413-27.815 6.264-36.032 11.685-8.25 27.807-5.422 36.032 6.263 221.335 314.512 290.603 290.233 386.466 256.6 38.692-13.579 82.242-29.103 139.421-28.253 46.126.581 81.728 31.789 119.418 64.832 86.611 75.936 184.789 162.025 457.099-87.192 292.102-267.342 335.432-702.19 361.32-961.998 3.132-31.359 5.969-59.865 8.958-84.851 11.256-94.272 97.799-262.67 230.149-262.67 45.898 0 84.708 13.411 122.146 42.194 59.899 46.075 92.31 120.791 86.712 199.867-8.839 125.152-306.741 1088.792-483.533 1652.066C3342.403 4041.254 3169.804 4167.938 2972.093 4167.938zM1501.709 1843.088c-6.996 0-13.975-2.82-19.077-8.385-66.861-72.948-66.861-182.954 0-255.901 48.811-53.231 48.795-133.208.16-186.22-66.979-73.023-66.987-183.063-.076-256.036 9.597-10.481 25.879-11.264 36.427-1.76 10.54 9.521 11.466 25.727 2.029 36.343l-.067.076c-48.904 53.332-48.896 133.318-.253 186.338 66.97 73.015 66.987 183.047.093 256.011-48.778 53.214-48.778 133.183-.177 186.195 9.648 10.532 8.932 26.889-1.591 36.545C1514.211 1840.84 1507.948 1843.088 1501.709 1843.088zM3821.323 1875.416c-5.666 0-11.357-1.844-16.113-5.649-11.155-8.924-12.998-25.155-4.075-36.31l.067-.084c.362-.455.741-.892 1.136-1.322 48.635-53.037 48.626-133.015-.017-186.043-66.97-73.006-66.987-183.038-.093-256.003 48.769-53.214 48.769-133.183.177-186.195-9.648-10.532-8.932-26.889 1.591-36.545 10.531-9.648 26.889-8.941 36.545 1.591 66.853 72.948 66.853 182.954 0 255.901-48.811 53.231-48.794 133.208-.16 186.22 66.928 72.964 66.987 182.895.236 255.859C3835.542 1872.477 3828.462 1875.416 3821.323 1875.416z"/></svg>