<svg xmlns="http://www.w3.org/2000/svg" enable-background="new 0 0 5000 5000" viewBox="0 0 5000 5000"><path fill="#ffec9e" d="M3574.508,2979.98c142.112,0,244.885-13.671,348.091-46.815
		c-28.047-14.769-76.137-47.879-88.14-105.975l-108.196-353.179c-4.126-13.453-14.859-22.495-26.704-22.495h-253.552
		c-11.854,0-22.579,9.042-26.696,22.495l-108.398,353.962c-13.739,63.739-54.312,90.392-81.478,101.356
		C3306.655,2957.245,3407.129,2979.98,3574.508,2979.98z"/><path fill="#fff" d="M3918.019 2934.527c1.525-.481 3.055-.872 4.58-1.362-2.218-1.168-4.739-2.655-7.179-4.056C3916.328 2930.877 3917.046 2932.822 3918.019 2934.527zM3707.803 2453.074c-2.639-.978-5.403-1.558-8.245-1.558h-253.552c-11.854 0-22.579 9.042-26.696 22.495l-108.398 353.962c-13.739 63.739-54.312 90.392-81.478 101.356 34.047 12.308 72.641 23.601 119.471 32.391 13.251-15.576 24.838-36.324 30.972-64.781l108.398-353.962c4.117-13.453 14.842-22.495 26.696-22.495h42.078c53.366 0 104.546-21.199 142.281-58.935L3707.803 2453.074z"/><path fill="#ffec9e" d="M1523.179,2979.98c161.355,0,312.659-20.492,414.495-55.384
		c-32.044-12.918-86.524-42.858-100.429-100.933l-125.312-353.086c-4.849-13.663-17.848-22.848-32.353-22.848h-293.726
		c-14.497,0-27.495,9.185-32.344,22.848l-125.581,353.962c-16.251,65.141-65.473,94.769-96.76,107.331
		C1232.868,2962.552,1373.59,2979.98,1523.179,2979.98z"/><path fill="#fff" d="M1922.402 2929.545c5.172-1.625 10.33-3.256 15.272-4.949-7.246-2.921-15.711-6.852-24.523-11.643C1915.803 2918.862 1918.976 2924.33 1922.402 2929.545zM1691.829 2450.255c-3.87-1.499-7.938-2.527-12.248-2.527h-293.726c-14.53 0-27.484 9.15-32.343 22.843l-125.583 353.967c-16.251 65.141-65.473 94.769-96.76 107.331 38.047 11.479 81.566 21.098 128.958 28.649 15.74-16.53 29.559-38.12 36.767-67.014l125.581-353.962c4.859-13.696 17.817-22.848 32.35-22.848h77.544c59.56 0 116.679-23.66 158.795-65.774C1691.386 2450.698 1691.607 2450.476 1691.829 2450.255z"/><path fill="#ffa1b4" d="M3750.407,3648.092c-8.191,5.59-17.115,8.385-26.013,8.385c-9.328,0-18.639-3.073-27.049-9.21
		c-17.056-12.434-30.265-38.473-21.324-68.612c17.46-58.905,27.074-128.763,27.074-196.719
		c0-146.939-44.299-224.609-128.098-224.609c-83.799,0-128.098,77.67-128.098,224.609c0,67.955,9.614,137.813,27.074,196.719
		c8.932,30.139-4.277,56.186-21.341,68.62c-16.417,11.98-36.268,12.266-53.046,0.817
		c-121.229-82.747-232.043-315.303-198.646-583.311c5.562-44.696,3.568-86.204-5.914-130.103c-4.971-1.997-9.885-4.006-14.703-6.027
		c-45.949-19.253-120.723-19.27-166.689,0c-26.923,11.29-57.373,29.322-89.608,48.407
		c-85.517,50.646-191.945,113.668-328.655,113.668c-142.46,0-273.16-69.403-368.602-120.075
		c-32.277-17.14-60.151-31.94-84.144-42.001c-45.974-19.27-120.749-19.253-166.689,0c-1.57,0.659-3.298,1.274-4.9,1.925
		c-11.066,43.983-13.396,85.518-6.937,130.256c38.692,268.108-89.49,500.808-229.745,583.631
		c-9.446,5.573-19.632,8.334-29.709,8.334c-12.763,0-25.349-4.428-36.049-13.158c-19.169-15.65-26.3-41.016-18.167-64.613
		c20.297-58.888,31.477-128.814,31.477-196.878c0-154.617-58.779-254.521-149.751-254.521c-90.972,0-149.759,99.904-149.759,254.521
		c0,68.073,11.18,137.998,31.486,196.878c8.132,23.606,1.002,48.963-18.176,64.613c-19.136,15.625-44.324,17.477-65.75,4.824
		c-41.561-24.545-81.934-62.51-117.348-110.395v47.735c0,128.696,104.703,233.398,233.407,233.398H3617.99
		c128.704,0,233.407-104.703,233.407-233.398v-43.357C3820.889,3585.975,3786.158,3623.686,3750.407,3648.092z"/><path fill="#eb7f95" d="M3750.407,3648.092c-8.191,5.59-17.115,8.385-26.013,8.385c-9.328,0-18.639-3.073-27.049-9.21
			c-4.075-2.971-7.901-6.761-11.286-11.155c-42.686,46.368-103.669,75.641-171.516,75.641H1342.566
			c-37.715,0-73.252-9.196-104.814-25.147c38.482,76.146,117.272,128.596,208.262,128.596H3617.99
			c128.704,0,233.407-104.703,233.407-233.398v-43.357C3820.889,3585.975,3786.158,3623.686,3750.407,3648.092z"/><path fill="#fff" d="M1281.573 3650.769v-41.478c-24.244-20.945-47.522-46.228-68.966-75.223v47.735c0 81.964 42.564 154.058 106.655 195.708C1295.516 3740.971 1281.573 3697.5 1281.573 3650.769zM3195.025 2934.678c-4.971-1.997-9.885-4.006-14.703-6.027-45.949-19.253-120.723-19.27-166.689 0-26.923 11.29-57.373 29.322-89.608 48.407-85.517 50.646-191.945 113.668-328.655 113.668-142.46 0-273.16-69.403-368.602-120.075-32.277-17.14-60.151-31.94-84.144-42.001-45.974-19.27-120.749-19.253-166.689 0-1.57.659-3.298 1.274-4.9 1.925-7.619 30.281-10.791 59.443-10.111 89.247 19.159-5.966 39.549-10.171 58.454-15.03 62.622-16.096 129.72-33.37 192.211-7.177 23.993 10.06 51.867 24.86 84.145 42 95.442 50.672 226.141 120.075 368.602 120.075 136.71 0 243.139-63.022 328.655-113.668 32.235-19.085 62.685-37.118 89.608-48.407 32.391-13.579 78.966-17.374 119.8-11.816C3200.991 2968.9 3198.763 2951.98 3195.025 2934.678z"/><path fill="#91efff" d="M1338.727,3629.613c17.948,10.616,35.586,5.228,46.075-3.325
			c10.759-8.781,19.759-25.382,12.78-45.637c-20.912-60.648-32.429-132.56-32.429-202.502c0-165.09,65.547-271.762,167.001-271.762
			c101.445,0,166.992,106.673,166.992,271.762c0,69.925-11.517,141.846-32.42,202.502c-6.979,20.255,2.021,36.848,12.771,45.629
			c10.498,8.562,28.11,13.941,46.084,3.334c135.439-79.977,259.075-305.639,221.444-566.322
			c-6.21-43.077-4.549-83.344,4.659-125.314c-103.727,37.275-261,59.244-428.504,59.244c-157.17,0-304.975-19.128-409.114-52.627
			c7.956,39.6,9.114,77.737,3.21,118.697C1079.643,3323.974,1203.288,3549.636,1338.727,3629.613z"/><path fill="#fff" d="M1186.24,3132.256c5.56-38.568,23.421-121.626,18.847-164.259
			c-32.939-6.752-63.536-14.561-91.022-23.403c7.956,39.6,9.114,77.737,3.21,118.697
			c-34.562,239.418,66.977,448.957,188.686,543.563C1218.411,3497.067,1158.521,3324.276,1186.24,3132.256z"/><path fill="#7ed1f2" d="M1947.024,3063.291c-6.21-43.077-4.549-83.344,4.659-125.314
			c-31.273,11.238-67.484,21.056-107.305,29.33c28.046,211.111-49.098,398.3-151.788,502.587
			c-5.438,38.894-14.103,76.631-25.864,110.757c-6.979,20.255,2.021,36.848,12.771,45.629c10.498,8.562,28.11,13.941,46.084,3.334
			C1861.019,3549.636,1984.656,3323.974,1947.024,3063.291z"/><path fill="#91efff" d="M3935.099,2947.175c-107.462,35.427-213.255,50.047-360.591,50.047
			c-176.93,0-280.597-25.113-360.598-55.188c7.918,41.803,9.481,81.964,4.136,124.886
			c-32.547,261.222,74.244,487.061,191.255,566.928c10.658,7.274,22.747,7.105,33.178-0.505
			c11.769-8.579,21.476-27.824,14.96-49.788c-17.915-60.454-27.781-132.055-27.781-201.618c0-199.892,79.034-241.851,145.34-241.851
			c66.305,0,145.339,41.958,145.339,241.851c0,69.563-9.867,141.164-27.781,201.618c-6.516,21.964,3.182,41.201,14.951,49.779
			c10.422,7.611,22.503,7.796,33.186,0.514c117.011-79.876,223.801-305.715,191.255-566.928
			C3926.795,3025.623,3928.025,2987.139,3935.099,2947.175z"/><path fill="#fff" d="M3287.011,3135.885c4.674-37.523,15.461-119.243,12.811-167.138
			c-32.14-7.958-60.268-17.073-85.912-26.714c7.918,41.803,9.481,81.964,4.136,124.886
			c-32.066,257.365,71.151,480.082,186.108,562.992C3321.192,3521.716,3261.61,3339.755,3287.011,3135.885z"/><path fill="#7ed1f2" d="M3475.998 3061.481c-53.283 7.761-99.49 37.735-124.886 85.734-44.198 83.537-30.482 197.107-5.905 284.374 7.625 27.076 21.109 50.404 29.063 76.881 9.947 33.112 20.283 65.054 36.49 95.793 4.503 8.542 9.625 17.321 17.897 22.301 8.273 4.98 20.578 4.575 26.069-3.368 4.095-5.926 3.276-13.825 2.289-20.96-10.242-74.038-27.358-144.817-27.358-220.3 0-199.891 79.034-241.85 145.339-241.851 27.707 0 53.191 23.273 76.21 37.179-4.151-2.508-12.819-43.718-17.518-51.508-10.126-16.786-24.038-31.397-40.327-42.307C3561.209 3061.916 3517.811 3055.391 3475.998 3061.481zM1423.487 3043.788c-200.333 25.135-193.033 243.967-151.802 370.109 8.85 27.076 24.5 50.404 33.731 76.881 11.545 33.112 23.541 65.054 42.35 95.793 5.227 8.542 11.171 17.321 20.772 22.301 9.602 4.98 23.883 4.575 30.255-3.368 4.753-5.926 3.802-13.825 2.657-20.96-11.887-74.038-31.752-144.817-31.752-220.3 0-199.892 91.727-241.85 168.681-241.851 32.156 0 61.734 23.273 88.45 37.179-4.818-2.508-14.878-43.718-20.331-51.508-11.752-16.786-27.898-31.397-46.804-42.307C1522.379 3044.225 1472.014 3037.7 1423.487 3043.788zM3931.947 3066.919c-5.151-41.297-3.921-79.78 3.153-119.745-34.815 11.478-69.592 20.558-105.527 27.878 21.238 194.402-34.049 367.985-112.406 474.878-4.2 46.91-12.521 92.818-24.613 133.624-6.516 21.964 3.182 41.201 14.951 49.779 10.422 7.611 22.503 7.796 33.186.514C3857.702 3553.971 3964.493 3328.133 3931.947 3066.919z"/><path fill="#fff" d="M2869.11,1361.748c-79.691,0-126.254,29.112-180.167,62.828c-2.517,1.574-5.051,3.157-7.594,4.74
			c-0.126,0.084-0.261,0.168-0.387,0.244c-63.367,39.475-137.249,82.191-280.896,86.081c-4.874,0.185-8.73-3.62-8.856-8.385
			c-0.126-4.765,3.629-8.722,8.385-8.856c118.072-3.191,187.618-33.548,243.585-66.103c-87.891,1.684-135.767-18.572-182.567-38.078
			c-40.056-16.703-77.898-32.471-138.983-32.471c-86.611,0-158.615,34.163-202.763,96.2
			c-30.039,42.221-45.571,94.167-46.555,152.418c-0.02,1.412-0.084,2.828-0.116,4.241c-0.214,46.328,8.72,96.569,26.938,149.08
			c10.372,29.895,21.922,57.339,33.094,83.883c14.387,34.188,27.975,66.482,37.724,100.653c2.264,7.964,5.834,15.095,10.591,21.198
			c35.417,45.402,170.04,193.545,415.477,193.545c245.496,0,379.159-148.16,414.273-193.57c4.689-6.07,8.208-13.141,10.456-21.021
			c9.749-34.222,23.362-66.566,37.766-100.796c11.172-26.544,22.722-53.997,33.094-83.892
			c41.807-120.504,34.803-229.088-19.733-305.74C3027.725,1395.911,2955.721,1361.748,2869.11,1361.748z"/><path fill="#f2dac9" d="M3071.873,1457.948c-21.744-30.556-50.305-54.271-83.983-70.55
			c41.906,20.257,26.706,161.286,20.843,194.901c-12.986,74.461-46.624,143.641-72.708,214.214
			c-64.824,175.393-266.151,263.006-443.456,263.006c-143.546,0-248.908-50.674-318.966-101.831
			c1.939,4.203,4.173,8.187,6.937,11.734c35.417,45.402,170.04,193.545,415.477,193.545c245.496,0,379.159-148.16,414.273-193.57
			c4.689-6.07,8.208-13.141,10.456-21.021c9.749-34.222,23.362-66.566,37.766-100.796c11.172-26.544,22.722-53.997,33.094-83.892
			C3133.413,1643.184,3126.409,1534.6,3071.873,1457.948z"/><path fill="#fff" d="M2055.317,1603.192c0.042-89.085-24.216-175.094-70.898-240.703
			c-45.999-64.647-109.4-100.249-178.526-100.249c-61.086,0-98.927,15.768-138.983,32.471
			c-46.825,19.514-95.333,39.517-182.626,38.078c43.289,25.281,92.95,48.407,167.211,59.596c4.706,0.716,7.947,5.102,7.24,9.816
			c-0.716,4.706-5.127,7.913-9.816,7.24c-94.365-14.228-152.285-48.188-202.426-79.43c-0.084-0.05-0.168-0.101-0.252-0.16
			c-2.568-1.599-5.119-3.199-7.661-4.782c-53.913-33.717-100.477-62.828-180.176-62.828c-69.125,0-132.526,35.602-178.526,100.249
			c-74.791,105.115-92.049,262.603-43.962,401.199c10.372,29.903,21.931,57.356,33.102,83.909
			c14.051,33.397,27.327,64.941,37.025,98.237c3.14,10.776,9.572,19.683,18.117,25.096c43.23,27.394,169.577,91.098,408.557,91.098
			c240.706,0,367.263-68.906,410.501-98.54c7.947-5.438,13.765-13.621,16.837-23.656c9.521-31.132,22.015-60.825,35.24-92.268
			c11.172-26.544,22.722-53.989,33.094-83.875c16.743-48.267,25.382-98.806,26.608-148.643
			C2055.011,1611.055,2055.175,1607.129,2055.317,1603.192z"/><path fill="#f2dac9" d="M1984.42,1362.489c-24.507-34.442-54.052-60.344-86.672-77.305
		c35.687,61.523,54.158,136.863,54.121,214.56c-0.142,3.937-0.306,7.863-0.319,11.854c-1.226,49.833-9.864,100.368-26.608,148.641
		c-33.18,95.663-58.015,198.378-159.188,245.997c-102.416,48.204-225.205,52.344-336.485,52.344
		c-160.588,0-270.113-28.76-337.939-55.944c5.409,14.269,10.45,28.559,14.714,43.198c3.14,10.776,9.572,19.683,18.117,25.096
		c43.23,27.394,169.577,91.098,408.557,91.098c240.706,0,367.263-68.906,410.501-98.54c7.947-5.438,13.765-13.621,16.837-23.656
		c9.521-31.132,22.015-60.825,35.24-92.268c11.172-26.544,22.722-53.989,33.094-83.875c16.743-48.267,25.382-98.806,26.608-148.643
		c0.013-3.99,0.177-7.917,0.319-11.854C2055.36,1514.107,2031.101,1428.098,1984.42,1362.489z"/><path fill="#fff" d="M3873.269,1381.507c-24.49-19.935-59.89-38.818-94.137-57.07
			c-14.144-7.535-27.832-14.842-40.09-21.88c-19.961-11.466-39.559-25.803-60.311-40.982
			c-36.899-26.999-75.061-54.915-115.933-66.196c-91.999-25.407-179.932-4.31-254.319,60.993
			c-120.008,105.359-188.165,316.575-162.067,502.214l3.637,26.317c6.929,50.705,12.409,90.753,26.106,135.405
			c2.871,9.37,8.36,16.972,15.861,21.973c41.335,27.529,161.2,91.553,380.834,91.553c224.694,0,328.201-64.504,362.212-85.702
			c7.956-4.958,13.941-13.15,16.871-23.075c13.108-44.501,18.917-83.9,26.274-133.772c1.549-10.481,3.157-21.375,4.908-32.799
			C4008.708,1591.224,3970.731,1460.861,3873.269,1381.507z"/><path fill="#f2dac9" d="M3873.269,1381.507c-10.21-8.311-22.377-16.43-35.506-24.407
		c45.694,76.837,60.286,177.8,41.904,297.937c-1.751,11.424-3.359,22.318-4.908,32.799c-7.358,49.872-13.167,89.271-26.275,133.772
		c-2.93,9.926-8.915,18.117-16.871,23.075c-34.011,21.198-137.519,85.702-362.212,85.702c-140.324,0-239.749-26.132-304.162-52.185
		c3.024,13.897,6.516,27.767,10.916,42.108c2.871,9.37,8.36,16.972,15.861,21.973c41.335,27.529,161.2,91.553,380.834,91.553
		c224.694,0,328.201-64.504,362.212-85.702c7.956-4.958,13.941-13.15,16.871-23.075c13.108-44.501,18.917-83.9,26.274-133.772
		c1.549-10.481,3.157-21.375,4.908-32.799C4008.708,1591.224,3970.731,1460.861,3873.269,1381.507z"/><path fill="#ffb987" d="M3860.017 2882.081l-113.26-408.017 0 0c-24.606 24.606-36.354 59.264-31.782 93.76l35.476 267.657c7.293 55.018 35.659 105.057 79.122 139.572l116.448-40.611L3860.017 2882.081zM1866.024 2867.524l-160.968-370.554 0 0c-26.56 26.56-36.77 65.36-26.721 101.553l65.549 236.102c15.773 56.814 52.986 105.286 103.797 135.2l116.539-59.874L1866.024 2867.524z"/><path fill="#080075" d="M1532.718,2096.511c-248.013,0-381.247-67.45-427.01-96.452
			c-15.642-9.909-27.285-25.744-32.774-44.585c-9.134-31.385-22.04-62.045-35.695-94.508c-11.391-27.049-23.16-55.024-33.893-85.971
			c-51.632-148.808-32.622-318.578,48.432-432.491c52.65-74,126.036-114.746,206.627-114.746
			c89.591,0,142.477,33.068,198.461,68.073c0.758,0.471,1.515,0.951,2.273,1.423c97.202,6.154,144.506-13.537,194.504-34.373
			c41.428-17.267,84.262-35.123,152.251-35.123c80.592,0,153.969,40.746,206.619,114.738
			c81.063,113.921,100.081,283.683,48.449,432.499c-10.734,30.938-22.495,58.897-33.877,85.946
			c-12.88,30.602-25.045,59.52-34.053,88.977c-5.388,17.587-15.869,32.109-30.316,42.017
			C1916.827,2023.378,1783.063,2096.511,1532.718,2096.511z M1258.405,1279.481c-81.248,0-134.286,50.579-164.475,93.009
			c-70.565,99.163-87.327,254.1-41.723,385.549c10.195,29.373,21.636,56.565,32.707,82.865
			c14.253,33.868,27.714,65.859,37.682,100.106c1.97,6.743,5.792,12.19,10.784,15.356c41.967,26.586,164.871,88.421,399.338,88.421
			c235.89,0,358.845-66.802,400.761-95.518c5.918-4.058,8.755-10.119,10.094-14.48c9.774-31.974,22.427-62.054,35.838-93.91
			c11.062-26.292,22.503-53.475,32.69-82.839c45.595-131.449,28.834-286.385-41.731-385.557
			c-30.189-42.422-83.227-93.001-164.475-93.001c-57.634,0-92.26,14.43-132.349,31.141c-33.818,14.101-70.59,29.423-123.628,36.074
			c29.103,12.224,62.694,22.394,104.147,28.64c14.126,2.13,23.85,15.305,21.72,29.432c-2.138,14.126-15.381,23.833-29.432,21.72
			c-97.648-14.724-157.184-49.577-208.673-81.652c-0.278-0.168-0.564-0.345-0.833-0.522c-2.484-1.549-4.95-3.098-7.4-4.622
			C1375.643,1306.051,1333.154,1279.481,1258.405,1279.481z"/><path fill="#080075" d="M2596.017,2197.45c-261.062,0-404.819-158.304-442.661-206.821
			c-7.51-9.622-13.083-20.71-16.568-32.951c-9.176-32.168-22.377-63.527-36.343-96.73c-11.382-27.049-23.151-55.016-33.885-85.954
			c-45.57-131.348-36.975-251.044,24.212-337.032c50.79-71.382,132.779-110.697,230.856-110.697
			c67.989,0,110.823,17.856,152.251,35.123c49.99,20.836,97.219,40.544,194.504,34.373c0.758-0.471,1.515-0.951,2.273-1.423
			c55.984-35.005,108.87-68.073,198.453-68.073c98.077,0,180.066,39.315,230.856,110.697
			c61.187,85.988,69.782,205.684,24.212,337.032c-10.734,30.938-22.503,58.914-33.885,85.954
			c-13.992,33.254-27.201,64.655-36.377,96.873c-3.46,12.131-8.958,23.118-16.349,32.673
			C3000.02,2039.037,2857.223,2197.45,2596.017,2197.45z M2321.628,1378.99c-80.878,0-147.899,31.595-188.712,88.96
			c-51.211,71.971-57.424,174.998-17.494,290.09c10.187,29.364,21.627,56.556,32.698,82.848
			c14.589,34.685,28.379,67.442,38.406,102.606c1.658,5.826,4.218,10.978,7.611,15.33
			c34.205,43.844,164.248,186.902,401.881,186.902c237.65,0,366.733-143.041,400.635-186.877c3.342-4.327,5.876-9.437,7.518-15.196
			c10.027-35.232,23.833-68.031,38.448-102.766c11.071-26.292,22.511-53.475,32.698-82.848
			c39.93-115.091,33.717-218.119-17.494-290.09c-40.814-57.365-107.834-88.96-188.712-88.96
			c-74.749,0-117.238,26.569-171.033,60.202c-2.425,1.524-4.866,3.048-7.324,4.58c-0.32,0.21-0.648,0.413-0.985,0.615
			c-65.152,40.595-141.164,84.481-289.239,88.488c-13.571,0.682-26.174-10.868-26.552-25.155
			c-0.387-14.278,10.877-26.165,25.155-26.552c78.327-2.121,133.713-16.046,178.585-34.954
			c-53.096-6.634-89.886-21.973-123.737-36.082C2413.888,1393.419,2379.271,1378.99,2321.628,1378.99z"/><path fill="#080075" d="M3572.849 2068.317c-229.046 0-355.999-68.073-399.953-97.336-14.211-9.479-24.481-23.505-29.709-40.569-14.514-47.313-20.163-88.581-27.31-140.835l-3.612-26.182 0 0c-28.051-199.497 43.28-418.642 173.466-532.934 83.547-73.352 182.533-96.958 286.251-68.317 46.951 12.965 87.705 42.767 127.113 71.601 19.961 14.598 38.818 28.396 57.129 38.911 11.954 6.87 25.323 13.992 39.13 21.358 35.695 19.026 72.602 38.7 99.694 60.757 107.464 87.503 149.7 228.911 122.154 408.936-1.742 11.357-3.342 22.192-4.874 32.614-7.257 49.182-13.529 91.662-27.319 138.478-5.321 18.041-16.576 33.169-31.705 42.598C3917.222 1999.882 3807.409 2068.317 3572.849 2068.317zM3163.484 1756.187l3.645 26.376c6.827 49.939 12.224 89.381 25.509 132.686 1.178 3.864 3.687 9.185 8.94 12.687 40.022 26.653 156.343 88.657 371.271 88.657 219.76 0 320.119-62.542 353.095-83.092 4.361-2.719 7.72-7.45 9.446-13.318 12.771-43.339 18.504-82.208 25.761-131.415 1.558-10.515 3.166-21.434 4.917-32.892 24.978-163.187-9.909-284.643-103.684-361-23.185-18.883-57.845-37.354-91.359-55.226-14.312-7.627-28.169-15.019-40.57-22.141-20.786-11.946-41.689-27.234-61.902-42.026-35.653-26.073-72.51-53.037-110.343-63.485-86.106-23.808-168.541-3.974-238.357 57.331C3203.894 1371.135 3138.136 1575.885 3163.484 1756.187L3163.484 1756.187zM1704.744 3669.921c-16.736 0-33.313-5.708-47.06-16.93-24.827-20.272-34.07-53.08-23.555-83.58 19.691-57.137 30.534-125.059 30.534-191.263 0-144.144-52.01-237.279-132.509-237.279-80.499 0-132.518 93.135-132.518 237.279 0 66.213 10.852 134.134 30.543 191.263 10.515 30.509 1.263 63.317-23.572 83.589-24.498 20.003-58.021 22.486-85.416 6.306-145.087-85.668-277.824-325.406-238.054-600.94 6.011-41.596 4.209-79.893-5.657-120.538-1.692-6.97-.412-14.328 3.527-20.323 3.915-5.952 10.119-10.027 17.14-11.256l0 0c3.157-.573 77.578-14.867 96.57-90.863.202-.8.438-1.6.716-2.374l125.581-353.962c9.715-27.403 35.779-45.806 64.84-45.806h293.726c29.07 0 55.134 18.403 64.849 45.806l125.573 353.962c.303.859.564 1.734.783 2.627 14.547 60.757 98.245 83.395 99.087 83.605 6.701 1.684 12.451 5.977 15.962 11.929 3.511 5.944 4.504 13.057 2.745 19.733-11.374 43.204-13.731 83.707-7.417 127.458 39.77 275.542-92.967 515.271-238.045 600.94C1731.086 3666.411 1717.869 3669.921 1704.744 3669.921zM1132.84 2949.875c6.828 38.49 7.265 75.886 1.49 115.883-36.554 253.25 82.545 471.882 213.16 549.013 12.645 7.45 22.671 1.187 26.409-1.844 3.031-2.475 12.527-11.719 7.383-26.662-21.518-62.407-33.372-136.314-33.372-208.117 0-213.312 99.247-289.004 184.242-289.004 84.986 0 184.234 75.692 184.234 289.004 0 71.794-11.845 145.701-33.363 208.117-5.152 14.943 4.344 24.187 7.375 26.662 2.913 2.366 13.386 9.505 26.418 1.844 130.615-77.132 249.705-295.755 213.152-549.013-6.179-42.825-5.219-82.94 3.115-124.469-34.651-13.781-95.846-46.799-112.263-112.204l-125.135-352.741c-2.416-6.802-8.89-11.374-16.105-11.374h-293.726c-7.215 0-13.68 4.571-16.096 11.374l-125.177 352.834C1225.008 2905.306 1167.037 2937.323 1132.84 2949.875z"/><path fill="#080075" d="M2595.369,3107.969c-146.754,0-279.65-70.565-376.684-122.087
			c-31.906-16.938-59.461-31.57-82.73-41.327c-42.295-17.738-111.092-17.73-153.354,0
			c-104.425,43.777-276.174,69.908-459.422,69.908c-166.319,0-322.729-21.249-429.115-58.308
			c-13.495-4.698-20.617-19.438-15.92-32.925c4.689-13.487,19.439-20.668,32.925-15.92
			c101.142,35.224,251.355,55.428,412.109,55.428c176.733,0,341.006-24.633,439.42-65.884c55.1-23.101,138.226-23.101,193.359,0
			c25.441,10.666,53.964,25.812,86.981,43.339c92.235,48.98,218.556,116.051,352.43,116.051
			c127.265,0,229.189-60.353,311.086-108.853c33.287-19.717,64.731-38.33,93.843-50.537c55.142-23.101,138.251-23.101,193.359,0
			c94.339,39.542,195.211,65.884,380.851,65.884c149.498,0,254.689-15.28,363.062-52.734c13.537-4.681,28.228,2.483,32.892,15.987
			c4.672,13.503-2.492,28.228-15.987,32.892c-114.216,39.475-224.298,55.58-379.967,55.58c-205.727,0-314.234-33.599-400.854-69.908
			c-42.261-17.713-111.075-17.73-153.354,0c-25.828,10.826-54.401,27.748-87.487,47.338
			C2845.487,3043.608,2736.802,3107.969,2595.369,3107.969z"/><path fill="#080075" d="M3724.402,3673.676c-12.923,0-25.82-4.167-37.219-12.477
			c-26.376-19.237-37.497-54.376-27.689-87.453c16.997-57.348,26.359-125.471,26.359-191.81c0-94.6-19.237-207.368-110.857-207.368
			c-91.62,0-110.857,112.768-110.857,207.368c0,66.339,9.361,134.463,26.359,191.819c9.808,33.077-1.33,68.216-27.706,87.453
			c-22.242,16.198-50.2,16.652-72.931,1.12c-125.438-85.618-240.276-324.892-206.029-599.677
			c5.506-44.231,3.452-85.146-6.474-128.771c-3.165-13.925,5.556-27.781,19.489-30.955c13.925-3.149,27.781,5.565,30.955,19.489
			c11.29,49.662,13.63,96.25,7.35,146.636c-31.705,254.445,71.07,473.565,183.872,550.563c3.123,2.138,7.459,4.041,13.301-0.202
			c7.03-5.127,12.721-17.006,8.587-30.955c-18.378-61.995-28.497-135.338-28.497-206.518c0-225.434,101.865-259.092,162.581-259.092
			c60.715,0,162.581,33.658,162.581,259.092c0,71.18-10.119,144.523-28.497,206.518c-4.134,13.95,1.549,25.82,8.579,30.955
			c5.826,4.235,10.17,2.34,13.31,0.202c112.801-77.005,215.576-296.126,183.872-550.563c-6.02-48.264-4.15-92.74,5.885-139.977
			c2.972-13.975,16.711-22.949,30.669-19.927c13.975,2.972,22.89,16.702,19.927,30.669c-8.797,41.437-10.439,80.465-5.161,122.836
			c34.247,274.776-80.592,514.051-206.029,599.677C3749.035,3669.905,3736.71,3673.676,3724.402,3673.676z"/><path fill="#080075" d="M3946.006 2960.314c-2.896 0-5.843-.497-8.73-1.532-4.091-1.473-100.047-36.924-119.435-126.861l-108.062-352.859c-1.861-6.07-6.062-10.304-10.22-10.304h-253.552c-4.159 0-8.352 4.235-10.203 10.296l-108.095 352.952c-24.372 110.116-118.366 121.43-122.365 121.852-14.228 1.566-26.957-8.747-28.472-22.949-1.524-14.202 8.756-26.957 22.949-28.472 2.281-.295 61.641-8.654 77.57-82.444.151-.716.337-1.423.555-2.121l108.398-353.962c8.579-28.034 32.555-46.875 59.663-46.875h253.552c27.1 0 51.076 18.841 59.671 46.875l108.398 353.962c.236.774.438 1.557.598 2.34 12.855 62.188 85.887 89.65 86.628 89.928 13.377 4.908 20.297 19.725 15.44 33.119C3966.471 2953.773 3956.571 2960.314 3946.006 2960.314zM2594.738 2932.979c-7.678 0-14.952-3.409-19.868-9.311l-169.164-203.032c-9.143-10.969-7.661-27.276 3.317-36.419 10.969-9.159 27.285-7.661 36.419 3.317l149.296 179.182L2744 2687.533c9.126-10.969 25.441-12.476 36.419-3.317 10.978 9.143 12.46 25.45 3.317 36.419l-169.131 203.032C2609.698 2929.569 2602.416 2932.979 2594.738 2932.979z"/><path fill="#080075" d="M2594.738 2932.979c-14.287 0-25.862-11.576-25.862-25.862v-580.028c0-14.286 11.575-25.862 25.862-25.862 14.286 0 25.862 11.576 25.862 25.862v580.028C2620.6 2921.403 2609.024 2932.979 2594.738 2932.979zM2800.102 3849.685H1446.014c-147.714 0-267.89-120.168-267.89-267.881v-73.991c0-14.287 11.576-25.862 25.862-25.862 14.286 0 25.862 11.576 25.862 25.862v73.991c0 119.191 96.974 216.157 216.165 216.157h1354.088c14.286 0 25.862 11.576 25.862 25.862S2814.388 3849.685 2800.102 3849.685z"/><path fill="#080075" d="M3617.99,3849.685H2263.902c-14.286,0-25.862-11.576-25.862-25.862s11.576-25.862,25.862-25.862
			H3617.99c119.191,0,216.166-96.966,216.166-216.157v-73.991c0-14.287,11.576-25.862,25.862-25.862s25.862,11.576,25.862,25.862
			v73.991C3885.88,3729.517,3765.704,3849.685,3617.99,3849.685z"/></svg>