<svg xmlns="http://www.w3.org/2000/svg" viewBox="0 0 100 100"><path fill="#f65555" d="M50.519 38.559h-.022c-.468.009-33.545.679-32.555.99 3.152.99 7.354 13.855 32.555 13.863h-.5c25.201-.008 28.838-12.873 31.99-13.863 1.961-.616-29.95-.96-31.468-.99z"/><path d="m50.498 54.537-.5-.002c-19.52-.135-26.524-7.818-30.301-11.961-.851-.933-1.656-1.816-2.091-1.952l-.912-.287.114-.961c.163-1.14.163-1.14 17.218-1.568 8.084-.203 16.219-.367 16.45-.372l1.659.023c30.838.411 30.863.577 31.053 1.872l.139.949-1.001.345c-.427.134-1.2 1.02-2.019 1.957-3.616 4.141-10.318 11.82-29.809 11.955v.002zM20.807 40.456l.552.602c3.56 3.905 10.174 11.157 28.888 11.228 18.66-.07 24.967-7.296 28.363-11.186.243-.278.47-.539.689-.782-3.279-.171-10.721-.392-27.195-.611l-1.654-.025-.052.004c-11.943.245-24.296.55-29.591.77zm60.861.063h.012-.012zM13.526 44.908l1.59-1.591 1.594 1.593-1.59 1.591zM48.858 59.091l-2.202-.169.06-2.165 1.192.004 1.122.086-.172 2.244zM52.435 59l-.108-1.121.002-1.125 1.083-.002.104 2.165-1.081.083zm-8.189-.095-2.18-.335.219-2.149 1.191.089 1.113.171-.343 2.224zm11.554-.098-.161-2.245 1.123-.08.08 1.123-.079-1.123 1.078-.078.263 2.147-1.182.177-1.122.079zm-16.141-.404-2.147-.496.373-2.124 1.184.173 1.096.254-.506 2.193zm20.717-.105-.318-2.228 1.114-.158.159 1.113-.158-1.114 1.068-.154.417 2.118-1.168.263-1.114.16zm-8.05-.419v-1.125 1.125zm-17.168-.354-2.137-.61.526-2.129 1.147.266 1.082.309-.618 2.164zm30.932-.353-.331-1.076-.251-1.097 1.069-.249.568 2.12-1.055.302zm-35.322-.963-1.04-.32.31-1.083.404-1.05-.404 1.05.405-1.049 1.016.389-.691 2.063zm38.629-.055-.732-2.047 1.109-.423 1.075-.332.662 2.151-2.114.651zm-3.638-.059h.011-.011zm-39.33-1.564-1.007-.465.451-1.032.503-1.007-.503 1.007.506-1.005.994.493-.944 2.009zm47.302-.061-.98-1.987 2.064-.992.943 2.043-2.027.936zm4.11-2.112-1.247-1.868 1.023-.736.972-.567 1.134 1.944-.972.567-.91.66zm-55.468-.024-1.086-.642-.91-.661 1.324-1.819.875.636.931.542-1.134 1.944zm-3.869-2.706-.852-.697.696-.885.752-.836-.753.836.755-.835.819.734-1.417 1.683zm63.129-.094-1.449-1.653 1.745-1.497 1.425 1.742-1.721 1.408zM85.377 46.211l-2.014-1.007.592-1.18.925-.925 1.592 1.592-.671.67zM85.384 36.829l-.874-.437-.96-.192.442-2.207 1.392.319 1.006.503zM81.363 35.159l-2.101-.922.943-2.043 2.025.934-.867 2.031zm-62.679-.029-.906-2.016 1.004-.464.492 1.013.431 1.039-1.021.428zm58.585-1.815-2.033-1.016 1.007-2.013 2.013 1.007-.987 2.022zm-54.508-.023-1.007-2.013 2.013-1.007 1.026 2.003-2.032 1.017zm50.484-2.125-1.914-1.247 1.248-1.872 1.863 1.242-1.197 1.877zm-46.443-.027-1.233-1.86.928-.619 1.244 1.875-.939.604zm42.799-2.337-1.058-.532-.972-.567 1.134-1.944 1.914 1.116-1.018 1.927zm-39.151-.029-1.056-1.908.942-.549.587.961.502 1.007-.975.489zm3.786-1.866-.712-2.135 2.111-.704.764 2.063-2.163.776zm14.37-.076-2.133-.785.778-2.113 2.112.778-.757 2.12zm2.789-.031-.728-2.13 2.13-.729.749 2.122-2.151.737zm13.289-.253.404-1.05-.406 1.049-1.029-.393.725-2.08 1.045.348-.335 1.076-.404 1.05zm-26.406-.894-.318-2.228 2.222-.317.35 2.211-2.254.334zm22.354-.154.171-1.112-.182 1.111-1.114-.159.319-2.228 1.114.16-.308 2.228zm-15.958-.061-1.181-.094-1.114-.159.318-2.228 2.192.314-.215 2.167zm10.709-.005-.259-2.165 1.079-.154.181 1.111.085 1.122-1.086.086zM14.498 36.77l-.848-2.084 1.197-.476 1.092-.272.546 2.183-1.016.254z"/><path fill="#f65555" d="M69.588 32.831c-8.712-5.799-14.157-3.866-14.157-3.866l-5.029 1.784c-.26.092-.549.092-.808 0l-5.03-1.784s-5.444-1.933-14.156 3.866c-6.282 4.181-14.167 6.765-14.167 6.765s3.277 1.933 6.544 1.933c4.356 0 13.068-1.933 16.335-1.933 3.259 0 7.603.961 10.867.966h.023c3.265-.004 7.608-.966 10.867-.966 3.267 0 11.979 1.933 16.335 1.933 3.267 0 6.545-1.933 6.545-1.933s-7.887-2.584-14.169-6.765z"/><path d="M77.211 42.654c-2.421 0-5.979-.551-9.42-1.083-2.822-.437-5.486-.849-6.915-.849-1.563 0-3.465.241-5.303.474-1.9.24-3.864.489-5.562.492-1.725-.002-3.689-.251-5.589-.492-1.839-.233-3.74-.474-5.303-.474-1.43 0-4.094.413-6.915.849-3.441.532-6.999 1.083-9.42 1.083-3.534 0-6.971-2.004-7.116-2.089a1.125 1.125 0 0 1 .221-2.039c.078-.025 7.818-2.589 13.894-6.632 9.076-6.041 14.914-4.076 15.157-3.99l5.029 1.785 5.085-1.785c.242-.086 6.079-2.053 15.157 3.99 6.075 4.044 13.817 6.607 13.894 6.632a1.125 1.125 0 0 1 .221 2.039c-.144.085-3.582 2.089-7.115 2.089zm-16.335-4.183c1.603 0 4.351.425 7.259.876 3.201.496 6.828 1.057 9.076 1.057 1.247 0 2.517-.323 3.564-.695-2.887-1.119-7.658-3.177-11.811-5.941-8.052-5.359-13.114-3.756-13.166-3.739l-5.02 1.781a2.352 2.352 0 0 1-1.56.001l-5.03-1.785c-.041-.013-5.106-1.618-13.157 3.742-4.154 2.764-8.924 4.822-11.811 5.941 1.047.371 2.317.695 3.565.695 2.248 0 5.875-.562 9.076-1.057 2.909-.45 5.657-.876 7.259-.876 1.704 0 3.678.25 5.586.492 1.83.232 3.724.472 5.282.474 1.578-.002 3.471-.242 5.302-.474 1.908-.243 3.881-.492 5.586-.492z"/><path fill="#f7d450" d="M55.623 61.289c0 8.079 6.549 14.628 14.629 14.628 8.079 0 14.628-6.549 14.628-14.628 0-8.08-6.549-14.628-14.628-14.628-8.079-.001-14.629 6.548-14.629 14.628z"/><path d="M70.252 77.042c-8.687 0-15.754-7.067-15.754-15.754s7.067-15.754 15.754-15.754 15.754 7.067 15.754 15.754-7.067 15.754-15.754 15.754zm0-29.257c-7.446 0-13.504 6.057-13.504 13.503 0 7.445 6.058 13.503 13.504 13.503 7.445 0 13.503-6.058 13.503-13.503s-6.058-13.503-13.503-13.503z"/><path fill="#aeaeae" d="M73.085 62.944v-4.501h6.752v4.501z"/><path d="M80.961 64.069h-9.002v-6.752h9.002v6.752zm-6.752-2.25h4.501v-2.251h-4.501v2.251z"/><path fill="#fff" d="M84.599 58.443h-4.764v4.501h4.945c.062-.544.1-1.095.1-1.655 0-.975-.1-1.926-.281-2.846z"/><path d="M85.785 64.069H78.71v-6.752h6.814l.179.907c.201 1.02.303 2.05.303 3.064 0 .562-.035 1.144-.107 1.781l-.114 1zm-4.824-2.25h2.782a13.327 13.327 0 0 0-.1-2.25h-2.682v2.25z"/><path fill="#9bf2ff" d="M61.25 60.163h11.253H61.25z"/><path d="M60.124 59.038h13.503v2.251H60.124z"/><path d="M66.876 59.038h2.251v4.501h-2.251z"/></svg>